<?xml version="1.0"  encoding="UTF-8" standalone="no"?>
<svg version="1.1" xmlns="http://www.w3.org/2000/svg" xmlns:xlink="http://www.w3.org/1999/xlink" width="65.0000" height="68.0000">
<g transform="translate(-1.0000, -1.0000)">
<g transform="matrix(0.0625 0.0000 0.0000 0.0625 0.0000 0.0000)">
<path d="M 341.0000,122.0000 L 316.0000,131.0000 L 35.0000,397.0000 L 24.0000,422.0000 L 24.0000,787.0000 L 40.0000,825.0000 L 312.0000,1084.0000 L 340.0000,1096.0000 L 553.0000,1096.0000 C 512.0000,773.0000 493.0000,448.0000 489.0000,122.0000 L 341.0000,122.0000 Z "  fill="#DEDEDE" stroke="none" />
</g>
<g transform="matrix(1.0000 0.0000 0.0000 1.0000 0.0000 0.0000)">
</g>
<g transform="matrix(0.0625 0.0000 0.0000 0.0625 0.0000 0.0000)">
<path d="M 1039.0000,397.0000 L 762.0000,133.0000 L 733.0000,122.0000 L 489.0000,122.0000 C 493.0000,448.0000 512.0000,773.0000 553.0000,1096.0000 L 733.0000,1096.0000 L 760.0000,1085.0000 L 1032.0000,825.0000 L 1048.0000,791.0000 L 1048.0000,422.0000 L 1039.0000,397.0000 Z "  fill="#CFCFCF" stroke="none" />
</g>
<g transform="matrix(1.0000 0.0000 0.0000 1.0000 0.0000 0.0000)">
<path d="M 20.0000,9.0000 L 3.0000,25.0000 L 2.0000,27.0000 L 2.0000,50.0000 L 3.0000,52.0000 L 20.0000,68.0000 L 20.0000,68.0000 L 20.0000,9.0000 L 20.0000,9.0000 " fill="none" stroke="none" />
<defs><clipPath id="clip-16807"><path d="M 20.0000,9.0000 L 3.0000,25.0000 L 2.0000,27.0000 L 2.0000,50.0000 L 3.0000,52.0000 L 20.0000,68.0000 L 20.0000,68.0000 L 20.0000,9.0000 L 20.0000,9.0000 Z" /></clipPath></defs>
<path  clip-path="url(#clip-16807)" d="M 0.0000,7.0000 L 0.0000,69.0000 L 1.0000,69.0000 L 1.0000,7.0000 L 0.0000,7.0000 Z" stroke-width="1px" stroke="#C9C9C9"  fill="#C9C9C9" />
<path  clip-path="url(#clip-16807)" d="M 1.0000,7.0000 L 1.0000,69.0000 L 2.0000,69.0000 L 2.0000,7.0000 L 1.0000,7.0000 Z" stroke-width="1px" stroke="#D4D4D4"  fill="#D4D4D4" />
<path  clip-path="url(#clip-16807)" d="M 2.0000,7.0000 L 2.0000,69.0000 L 4.0000,69.0000 L 4.0000,7.0000 L 2.0000,7.0000 Z" stroke-width="1px" stroke="#D3D3D3"  fill="#D3D3D3" />
<path  clip-path="url(#clip-16807)" d="M 4.0000,7.0000 L 4.0000,69.0000 L 5.0000,69.0000 L 5.0000,7.0000 L 4.0000,7.0000 Z" stroke-width="1px" stroke="#D2D2D2"  fill="#D2D2D2" />
<path  clip-path="url(#clip-16807)" d="M 5.0000,7.0000 L 5.0000,69.0000 L 8.0000,69.0000 L 8.0000,7.0000 L 5.0000,7.0000 Z" stroke-width="1px" stroke="#D1D1D1"  fill="#D1D1D1" />
<path  clip-path="url(#clip-16807)" d="M 8.0000,7.0000 L 8.0000,69.0000 L 9.0000,69.0000 L 9.0000,7.0000 L 8.0000,7.0000 Z" stroke-width="1px" stroke="#D0D0D0"  fill="#D0D0D0" />
<path  clip-path="url(#clip-16807)" d="M 9.0000,7.0000 L 9.0000,69.0000 L 12.0000,69.0000 L 12.0000,7.0000 L 9.0000,7.0000 Z" stroke-width="1px" stroke="#CFCFCF"  fill="#CFCFCF" />
<path  clip-path="url(#clip-16807)" d="M 12.0000,7.0000 L 12.0000,69.0000 L 13.0000,69.0000 L 13.0000,7.0000 L 12.0000,7.0000 Z" stroke-width="1px" stroke="#CECECE"  fill="#CECECE" />
<path  clip-path="url(#clip-16807)" d="M 13.0000,7.0000 L 13.0000,69.0000 L 14.0000,69.0000 L 14.0000,7.0000 L 13.0000,7.0000 Z" stroke-width="1px" stroke="#CDCDCD"  fill="#CDCDCD" />
<path  clip-path="url(#clip-16807)" d="M 14.0000,7.0000 L 14.0000,69.0000 L 17.0000,69.0000 L 17.0000,7.0000 L 14.0000,7.0000 Z" stroke-width="1px" stroke="#CCCCCC"  fill="#CCCCCC" />
<path  clip-path="url(#clip-16807)" d="M 17.0000,7.0000 L 17.0000,69.0000 L 18.0000,69.0000 L 18.0000,7.0000 L 17.0000,7.0000 Z" stroke-width="1px" stroke="#CBCBCB"  fill="#CBCBCB" />
<path  clip-path="url(#clip-16807)" d="M 18.0000,7.0000 L 18.0000,69.0000 L 21.0000,69.0000 L 21.0000,7.0000 L 18.0000,7.0000 Z" stroke-width="1px" stroke="#CACACA"  fill="#CACACA" />
<path d="M 65.0000,25.0000 L 48.0000,9.0000 L 47.0000,9.0000 L 47.0000,68.0000 L 48.0000,68.0000 L 65.0000,52.0000 L 66.0000,50.0000 L 66.0000,27.0000 L 65.0000,25.0000 " fill="none" stroke="none" />
<defs><clipPath id="clip-282475249"><path d="M 65.0000,25.0000 L 48.0000,9.0000 L 47.0000,9.0000 L 47.0000,68.0000 L 48.0000,68.0000 L 65.0000,52.0000 L 66.0000,50.0000 L 66.0000,27.0000 L 65.0000,25.0000 Z" /></clipPath></defs>
<path  clip-path="url(#clip-282475249)" d="M 46.0000,7.0000 L 46.0000,69.0000 L 47.0000,69.0000 L 47.0000,7.0000 L 46.0000,7.0000 Z" stroke-width="1px" stroke="#A3A3A3"  fill="#A3A3A3" />
<path  clip-path="url(#clip-282475249)" d="M 47.0000,7.0000 L 47.0000,69.0000 L 48.0000,69.0000 L 48.0000,7.0000 L 47.0000,7.0000 Z" stroke-width="1px" stroke="#A4A4A4"  fill="#A4A4A4" />
<path  clip-path="url(#clip-282475249)" d="M 48.0000,7.0000 L 48.0000,69.0000 L 50.0000,69.0000 L 50.0000,7.0000 L 48.0000,7.0000 Z" stroke-width="1px" stroke="#A5A5A5"  fill="#A5A5A5" />
<path  clip-path="url(#clip-282475249)" d="M 50.0000,7.0000 L 50.0000,69.0000 L 51.0000,69.0000 L 51.0000,7.0000 L 50.0000,7.0000 Z" stroke-width="1px" stroke="#A6A6A6"  fill="#A6A6A6" />
<path  clip-path="url(#clip-282475249)" d="M 51.0000,7.0000 L 51.0000,69.0000 L 52.0000,69.0000 L 52.0000,7.0000 L 51.0000,7.0000 Z" stroke-width="1px" stroke="#A7A7A7"  fill="#A7A7A7" />
<path  clip-path="url(#clip-282475249)" d="M 52.0000,7.0000 L 52.0000,69.0000 L 54.0000,69.0000 L 54.0000,7.0000 L 52.0000,7.0000 Z" stroke-width="1px" stroke="#A8A8A8"  fill="#A8A8A8" />
<path  clip-path="url(#clip-282475249)" d="M 54.0000,7.0000 L 54.0000,69.0000 L 55.0000,69.0000 L 55.0000,7.0000 L 54.0000,7.0000 Z" stroke-width="1px" stroke="#A9A9A9"  fill="#A9A9A9" />
<path  clip-path="url(#clip-282475249)" d="M 55.0000,7.0000 L 55.0000,69.0000 L 56.0000,69.0000 L 56.0000,7.0000 L 55.0000,7.0000 Z" stroke-width="1px" stroke="#AAAAAA"  fill="#AAAAAA" />
<path  clip-path="url(#clip-282475249)" d="M 56.0000,7.0000 L 56.0000,69.0000 L 59.0000,69.0000 L 59.0000,7.0000 L 56.0000,7.0000 Z" stroke-width="1px" stroke="#ABABAB"  fill="#ABABAB" />
<path  clip-path="url(#clip-282475249)" d="M 59.0000,7.0000 L 59.0000,69.0000 L 60.0000,69.0000 L 60.0000,7.0000 L 59.0000,7.0000 Z" stroke-width="1px" stroke="#ACACAC"  fill="#ACACAC" />
<path  clip-path="url(#clip-282475249)" d="M 60.0000,7.0000 L 60.0000,69.0000 L 61.0000,69.0000 L 61.0000,7.0000 L 60.0000,7.0000 Z" stroke-width="1px" stroke="#ADADAD"  fill="#ADADAD" />
<path  clip-path="url(#clip-282475249)" d="M 61.0000,7.0000 L 61.0000,69.0000 L 62.0000,69.0000 L 62.0000,7.0000 L 61.0000,7.0000 Z" stroke-width="1px" stroke="#AEAEAE"  fill="#AEAEAE" />
<path  clip-path="url(#clip-282475249)" d="M 62.0000,7.0000 L 62.0000,69.0000 L 64.0000,69.0000 L 64.0000,7.0000 L 62.0000,7.0000 Z" stroke-width="1px" stroke="#AFAFAF"  fill="#AFAFAF" />
<path  clip-path="url(#clip-282475249)" d="M 64.0000,7.0000 L 64.0000,69.0000 L 65.0000,69.0000 L 65.0000,7.0000 L 64.0000,7.0000 Z" stroke-width="1px" stroke="#B0B0B0"  fill="#B0B0B0" />
<path  clip-path="url(#clip-282475249)" d="M 65.0000,7.0000 L 65.0000,69.0000 L 66.0000,69.0000 L 66.0000,7.0000 L 65.0000,7.0000 Z" stroke-width="1px" stroke="#B1B1B1"  fill="#B1B1B1" />
<path  clip-path="url(#clip-282475249)" d="M 66.0000,7.0000 L 66.0000,69.0000 L 67.0000,69.0000 L 67.0000,7.0000 L 66.0000,7.0000 Z" stroke-width="1px" stroke="#B2B2B2"  fill="#B2B2B2" />
<defs><clipPath id="clip-1622650073"><path d="M 21.0000,8.0000 L 47.0000,8.0000 L 47.0000,69.0000 L 21.0000,69.0000 L 21.0000,8.0000 Z Z" /></clipPath></defs>
<path  clip-path="url(#clip-1622650073)" d="M 19.0000,6.0000 L 19.0000,69.0000 L 20.0000,69.0000 L 20.0000,6.0000 L 19.0000,6.0000 Z" stroke-width="1px" stroke="#BDBDBD"  fill="#BDBDBD" />
<path  clip-path="url(#clip-1622650073)" d="M 20.0000,6.0000 L 20.0000,69.0000 L 21.0000,69.0000 L 21.0000,6.0000 L 20.0000,6.0000 Z" stroke-width="1px" stroke="#ADADAD"  fill="#ADADAD" />
<path  clip-path="url(#clip-1622650073)" d="M 21.0000,6.0000 L 21.0000,69.0000 L 23.0000,69.0000 L 23.0000,6.0000 L 21.0000,6.0000 Z" stroke-width="1px" stroke="#AEAEAE"  fill="#AEAEAE" />
<path  clip-path="url(#clip-1622650073)" d="M 23.0000,6.0000 L 23.0000,69.0000 L 24.0000,69.0000 L 24.0000,6.0000 L 23.0000,6.0000 Z" stroke-width="1px" stroke="#AFAFAF"  fill="#AFAFAF" />
<path  clip-path="url(#clip-1622650073)" d="M 24.0000,6.0000 L 24.0000,69.0000 L 26.0000,69.0000 L 26.0000,6.0000 L 24.0000,6.0000 Z" stroke-width="1px" stroke="#B0B0B0"  fill="#B0B0B0" />
<path  clip-path="url(#clip-1622650073)" d="M 26.0000,6.0000 L 26.0000,69.0000 L 28.0000,69.0000 L 28.0000,6.0000 L 26.0000,6.0000 Z" stroke-width="1px" stroke="#B1B1B1"  fill="#B1B1B1" />
<path  clip-path="url(#clip-1622650073)" d="M 28.0000,6.0000 L 28.0000,69.0000 L 30.0000,69.0000 L 30.0000,6.0000 L 28.0000,6.0000 Z" stroke-width="1px" stroke="#B2B2B2"  fill="#B2B2B2" />
<path  clip-path="url(#clip-1622650073)" d="M 30.0000,6.0000 L 30.0000,69.0000 L 31.0000,69.0000 L 31.0000,6.0000 L 30.0000,6.0000 Z" stroke-width="1px" stroke="#B3B3B3"  fill="#B3B3B3" />
<path  clip-path="url(#clip-1622650073)" d="M 31.0000,6.0000 L 31.0000,69.0000 L 33.0000,69.0000 L 33.0000,6.0000 L 31.0000,6.0000 Z" stroke-width="1px" stroke="#B4B4B4"  fill="#B4B4B4" />
<path  clip-path="url(#clip-1622650073)" d="M 33.0000,6.0000 L 33.0000,69.0000 L 35.0000,69.0000 L 35.0000,6.0000 L 33.0000,6.0000 Z" stroke-width="1px" stroke="#B5B5B5"  fill="#B5B5B5" />
<path  clip-path="url(#clip-1622650073)" d="M 35.0000,6.0000 L 35.0000,69.0000 L 37.0000,69.0000 L 37.0000,6.0000 L 35.0000,6.0000 Z" stroke-width="1px" stroke="#B6B6B6"  fill="#B6B6B6" />
<path  clip-path="url(#clip-1622650073)" d="M 37.0000,6.0000 L 37.0000,69.0000 L 38.0000,69.0000 L 38.0000,6.0000 L 37.0000,6.0000 Z" stroke-width="1px" stroke="#B7B7B7"  fill="#B7B7B7" />
<path  clip-path="url(#clip-1622650073)" d="M 38.0000,6.0000 L 38.0000,69.0000 L 40.0000,69.0000 L 40.0000,6.0000 L 38.0000,6.0000 Z" stroke-width="1px" stroke="#B8B8B8"  fill="#B8B8B8" />
<path  clip-path="url(#clip-1622650073)" d="M 40.0000,6.0000 L 40.0000,69.0000 L 42.0000,69.0000 L 42.0000,6.0000 L 40.0000,6.0000 Z" stroke-width="1px" stroke="#B9B9B9"  fill="#B9B9B9" />
<path  clip-path="url(#clip-1622650073)" d="M 42.0000,6.0000 L 42.0000,69.0000 L 44.0000,69.0000 L 44.0000,6.0000 L 42.0000,6.0000 Z" stroke-width="1px" stroke="#BABABA"  fill="#BABABA" />
<path  clip-path="url(#clip-1622650073)" d="M 44.0000,6.0000 L 44.0000,69.0000 L 45.0000,69.0000 L 45.0000,6.0000 L 44.0000,6.0000 Z" stroke-width="1px" stroke="#BBBBBB"  fill="#BBBBBB" />
<path  clip-path="url(#clip-1622650073)" d="M 45.0000,6.0000 L 45.0000,69.0000 L 47.0000,69.0000 L 47.0000,6.0000 L 45.0000,6.0000 Z" stroke-width="1px" stroke="#BCBCBC"  fill="#BCBCBC" />
</g>
<g transform="matrix(0.0625 0.0000 0.0000 0.0625 0.0000 0.0000)">
<path d="M 731.0000,100.0000 L 970.0000,328.0000 L 978.0000,349.0000 L 978.0000,668.0000 L 964.0000,697.0000 L 729.0000,921.0000 L 706.0000,930.0000 L 367.0000,930.0000 L 343.0000,920.0000 L 108.0000,697.0000 L 95.0000,664.0000 L 95.0000,350.0000 L 104.0000,328.0000 L 346.0000,98.0000 L 368.0000,90.0000 L 706.0000,90.0000 L 731.0000,100.0000 Z" stroke-width="1px" stroke="#0000FF"  fill="#0000FF" />
</g>
<g transform="matrix(1.0000 0.0000 0.0000 1.0000 0.0000 0.0000)">
<path d="M 23.0000,56.0000 L 46.0000,56.0000 L 66.0000,42.0000 L 66.0000,44.0000 L 65.0000,46.0000 L 48.0000,62.0000 L 46.0000,63.0000 L 22.0000,63.0000 L 20.0000,62.0000 L 3.0000,46.0000 L 2.0000,44.0000 L 2.0000,42.0000 L 23.0000,56.0000 " fill="none" stroke="none" />
<defs><clipPath id="clip-984943658"><path d="M 23.0000,56.0000 L 46.0000,56.0000 L 66.0000,42.0000 L 66.0000,44.0000 L 65.0000,46.0000 L 48.0000,62.0000 L 46.0000,63.0000 L 22.0000,63.0000 L 20.0000,62.0000 L 3.0000,46.0000 L 2.0000,44.0000 L 2.0000,42.0000 L 23.0000,56.0000 Z" /></clipPath></defs>
<path  clip-path="url(#clip-984943658)" d="M 0.0000,40.0000 L 0.0000,63.0000 L 1.0000,63.0000 L 1.0000,40.0000 L 0.0000,40.0000 Z" stroke-width="1px" stroke="#D4D4D4"  fill="#D4D4D4" />
<path  clip-path="url(#clip-984943658)" d="M 1.0000,40.0000 L 1.0000,63.0000 L 3.0000,63.0000 L 3.0000,40.0000 L 1.0000,40.0000 Z" stroke-width="1px" stroke="#E3E3E3"  fill="#E3E3E3" />
<path  clip-path="url(#clip-984943658)" d="M 3.0000,40.0000 L 3.0000,63.0000 L 7.0000,63.0000 L 7.0000,40.0000 L 3.0000,40.0000 Z" stroke-width="1px" stroke="#E2E2E2"  fill="#E2E2E2" />
<path  clip-path="url(#clip-984943658)" d="M 7.0000,40.0000 L 7.0000,63.0000 L 11.0000,63.0000 L 11.0000,40.0000 L 7.0000,40.0000 Z" stroke-width="1px" stroke="#E1E1E1"  fill="#E1E1E1" />
<path  clip-path="url(#clip-984943658)" d="M 11.0000,40.0000 L 11.0000,63.0000 L 15.0000,63.0000 L 15.0000,40.0000 L 11.0000,40.0000 Z" stroke-width="1px" stroke="#E0E0E0"  fill="#E0E0E0" />
<path  clip-path="url(#clip-984943658)" d="M 15.0000,40.0000 L 15.0000,63.0000 L 20.0000,63.0000 L 20.0000,40.0000 L 15.0000,40.0000 Z" stroke-width="1px" stroke="#DFDFDF"  fill="#DFDFDF" />
<path  clip-path="url(#clip-984943658)" d="M 20.0000,40.0000 L 20.0000,63.0000 L 24.0000,63.0000 L 24.0000,40.0000 L 20.0000,40.0000 Z" stroke-width="1px" stroke="#DEDEDE"  fill="#DEDEDE" />
<path  clip-path="url(#clip-984943658)" d="M 24.0000,40.0000 L 24.0000,63.0000 L 28.0000,63.0000 L 28.0000,40.0000 L 24.0000,40.0000 Z" stroke-width="1px" stroke="#DDDDDD"  fill="#DDDDDD" />
<path  clip-path="url(#clip-984943658)" d="M 28.0000,40.0000 L 28.0000,63.0000 L 36.0000,63.0000 L 36.0000,40.0000 L 28.0000,40.0000 Z" stroke-width="1px" stroke="#DCDCDC"  fill="#DCDCDC" />
<path  clip-path="url(#clip-984943658)" d="M 36.0000,40.0000 L 36.0000,63.0000 L 40.0000,63.0000 L 40.0000,40.0000 L 36.0000,40.0000 Z" stroke-width="1px" stroke="#DBDBDB"  fill="#DBDBDB" />
<path  clip-path="url(#clip-984943658)" d="M 40.0000,40.0000 L 40.0000,63.0000 L 44.0000,63.0000 L 44.0000,40.0000 L 40.0000,40.0000 Z" stroke-width="1px" stroke="#DADADA"  fill="#DADADA" />
<path  clip-path="url(#clip-984943658)" d="M 44.0000,40.0000 L 44.0000,63.0000 L 48.0000,63.0000 L 48.0000,40.0000 L 44.0000,40.0000 Z" stroke-width="1px" stroke="#D9D9D9"  fill="#D9D9D9" />
<path  clip-path="url(#clip-984943658)" d="M 48.0000,40.0000 L 48.0000,63.0000 L 53.0000,63.0000 L 53.0000,40.0000 L 48.0000,40.0000 Z" stroke-width="1px" stroke="#D8D8D8"  fill="#D8D8D8" />
<path  clip-path="url(#clip-984943658)" d="M 53.0000,40.0000 L 53.0000,63.0000 L 57.0000,63.0000 L 57.0000,40.0000 L 53.0000,40.0000 Z" stroke-width="1px" stroke="#D7D7D7"  fill="#D7D7D7" />
<path  clip-path="url(#clip-984943658)" d="M 57.0000,40.0000 L 57.0000,63.0000 L 61.0000,63.0000 L 61.0000,40.0000 L 57.0000,40.0000 Z" stroke-width="1px" stroke="#D6D6D6"  fill="#D6D6D6" />
<path  clip-path="url(#clip-984943658)" d="M 61.0000,40.0000 L 61.0000,63.0000 L 65.0000,63.0000 L 65.0000,40.0000 L 61.0000,40.0000 Z" stroke-width="1px" stroke="#D5D5D5"  fill="#D5D5D5" />
<path  clip-path="url(#clip-984943658)" d="M 65.0000,40.0000 L 65.0000,63.0000 L 66.0000,63.0000 L 66.0000,40.0000 L 65.0000,40.0000 Z" stroke-width="1px" stroke="#D4D4D4"  fill="#D4D4D4" />
</g>
<g transform="matrix(0.0625 0.0000 0.0000 0.0625 0.0000 0.0000)">
<path d="M 354.0000,390.0000 C 350.0000,396.0000 342.0000,401.0000 339.0000,406.0000 C 309.0000,459.0000 279.0000,504.0000 262.0000,525.0000 C 253.0000,538.0000 291.0000,559.0000 292.0000,570.0000 C 294.0000,563.0000 297.0000,556.0000 303.0000,548.0000 C 319.0000,527.0000 336.0000,484.0000 367.0000,430.0000 C 372.0000,422.0000 377.0000,412.0000 383.0000,402.0000 L 383.0000,376.0000 L 354.0000,390.0000 Z "  fill="#000000" stroke="none" />
</g>
<g transform="matrix(1.0000 0.0000 0.0000 1.0000 0.0000 0.0000)">
</g>
<g transform="matrix(0.0625 0.0000 0.0000 0.0625 0.0000 0.0000)">
<path d="M 711.0000,778.0000 C 710.0000,781.0000 711.0000,787.0000 707.0000,788.0000 C 673.0000,802.0000 681.0000,836.0000 691.0000,842.0000 C 696.0000,833.0000 706.0000,822.0000 713.0000,813.0000 C 717.0000,808.0000 719.0000,803.0000 719.0000,797.0000 L 719.0000,776.0000 C 719.0000,776.0000 711.0000,776.0000 711.0000,778.0000 Z "  fill="#000000" stroke="none" />
</g>
<g transform="matrix(1.0000 0.0000 0.0000 1.0000 0.0000 0.0000)">
</g>
<g transform="matrix(0.0625 0.0000 0.0000 0.0625 0.0000 0.0000)">
<path d="M 503.0000,752.0000 C 503.0000,755.0000 494.0000,761.0000 493.0000,765.0000 C 490.0000,774.0000 483.0000,777.0000 474.0000,783.0000 C 465.0000,789.0000 463.0000,787.0000 446.0000,780.0000 C 433.0000,774.0000 427.0000,770.0000 423.0000,761.0000 C 420.0000,755.0000 407.0000,759.0000 407.0000,759.0000 L 407.0000,776.0000 C 406.0000,789.0000 419.0000,801.0000 436.0000,808.0000 C 453.0000,815.0000 486.0000,823.0000 495.0000,817.0000 C 504.0000,811.0000 509.0000,796.0000 511.0000,787.0000 C 514.0000,778.0000 515.0000,767.0000 515.0000,761.0000 L 515.0000,748.0000 C 515.0000,748.0000 504.0000,748.0000 503.0000,752.0000 Z "  fill="#000000" stroke="none" />
</g>
<g transform="matrix(1.0000 0.0000 0.0000 1.0000 0.0000 0.0000)">
</g>
<g transform="matrix(0.0625 0.0000 0.0000 0.0625 0.0000 0.0000)">
<path d="M 396.0000,729.0000 C 438.0000,716.0000 517.0000,701.0000 517.0000,701.0000 C 517.0000,701.0000 518.0000,675.0000 517.0000,658.0000 C 517.0000,671.0000 490.0000,668.0000 490.0000,668.0000 C 490.0000,668.0000 416.0000,684.0000 374.0000,697.0000 C 332.0000,711.0000 306.0000,745.0000 328.0000,762.0000 C 329.0000,763.0000 329.0000,770.0000 329.0000,771.0000 C 335.0000,755.0000 361.0000,741.0000 396.0000,729.0000 "  fill="#000000" stroke="none" />
</g>
<g transform="matrix(1.0000 0.0000 0.0000 1.0000 0.0000 0.0000)">
</g>
<g transform="matrix(0.0625 0.0000 0.0000 0.0625 0.0000 0.0000)">
<path d="M 602.0000,700.0000 C 624.0000,703.0000 691.0000,721.0000 723.0000,731.0000 C 755.0000,741.0000 809.0000,761.0000 817.0000,785.0000 C 817.0000,786.0000 823.0000,781.0000 823.0000,782.0000 C 824.0000,778.0000 826.0000,766.0000 824.0000,760.0000 C 816.0000,736.0000 757.0000,714.0000 725.0000,704.0000 C 692.0000,693.0000 635.0000,675.0000 613.0000,672.0000 C 613.0000,672.0000 598.0000,660.0000 598.0000,638.0000 C 597.0000,663.0000 602.0000,700.0000 602.0000,700.0000 "  fill="#000000" stroke="none" />
</g>
<g transform="matrix(1.0000 0.0000 0.0000 1.0000 0.0000 0.0000)">
</g>
<g transform="matrix(0.0625 0.0000 0.0000 0.0625 0.0000 0.0000)">
<path d="M 406.0000,550.0000 C 418.0000,563.0000 475.0000,561.0000 488.0000,557.0000 C 501.0000,553.0000 517.0000,547.0000 524.0000,534.0000 C 531.0000,521.0000 532.0000,484.0000 533.0000,465.0000 C 534.0000,445.0000 539.0000,432.0000 554.0000,431.0000 C 569.0000,429.0000 617.0000,446.0000 653.0000,467.0000 C 689.0000,488.0000 733.0000,521.0000 739.0000,540.0000 C 741.0000,536.0000 757.0000,521.0000 756.0000,516.0000 C 751.0000,496.0000 703.0000,452.0000 666.0000,431.0000 C 630.0000,410.0000 562.0000,399.0000 546.0000,400.0000 C 531.0000,402.0000 521.0000,424.0000 520.0000,444.0000 C 519.0000,463.0000 516.0000,492.0000 509.0000,505.0000 C 501.0000,517.0000 500.0000,514.0000 487.0000,518.0000 C 474.0000,521.0000 432.0000,535.0000 422.0000,523.0000 C 416.0000,517.0000 401.0000,522.0000 401.0000,519.0000 C 398.0000,527.0000 399.0000,542.0000 406.0000,550.0000 "  fill="#000000" stroke="none" />
</g>
<g transform="matrix(1.0000 0.0000 0.0000 1.0000 0.0000 0.0000)">
</g>
<g transform="matrix(0.0625 0.0000 0.0000 0.0625 0.0000 0.0000)">
<path d="M 669.0000,270.0000 C 710.0000,287.0000 775.0000,310.0000 790.0000,315.0000 C 800.0000,318.0000 805.0000,324.0000 806.0000,332.0000 C 809.0000,319.0000 823.0000,299.0000 808.0000,294.0000 C 793.0000,289.0000 719.0000,252.0000 679.0000,236.0000 C 650.0000,224.0000 621.0000,208.0000 598.0000,207.0000 C 598.0000,212.0000 598.0000,219.0000 598.0000,226.0000 C 609.0000,235.0000 638.0000,257.0000 669.0000,270.0000 "  fill="#000000" stroke="none" />
</g>
<g transform="matrix(1.0000 0.0000 0.0000 1.0000 0.0000 0.0000)">
</g>
<g transform="matrix(0.0625 0.0000 0.0000 0.0625 0.0000 0.0000)">
<path d="M 265.0000,302.0000 C 295.0000,301.0000 334.0000,307.0000 397.0000,307.0000 C 407.0000,307.0000 417.0000,308.0000 429.0000,308.0000 C 441.0000,286.0000 451.0000,268.0000 456.0000,260.0000 C 470.0000,238.0000 485.0000,204.0000 485.0000,184.0000 C 486.0000,165.0000 489.0000,159.0000 508.0000,155.0000 C 526.0000,151.0000 551.0000,158.0000 573.0000,166.0000 C 584.0000,170.0000 599.0000,182.0000 602.0000,201.0000 C 617.0000,182.0000 597.0000,149.0000 584.0000,144.0000 C 562.0000,136.0000 526.0000,125.0000 509.0000,129.0000 C 489.0000,133.0000 479.0000,144.0000 478.0000,164.0000 C 477.0000,183.0000 460.0000,209.0000 446.0000,230.0000 C 441.0000,238.0000 440.0000,251.0000 429.0000,273.0000 C 417.0000,273.0000 406.0000,278.0000 397.0000,278.0000 C 334.0000,277.0000 280.0000,275.0000 249.0000,276.0000 C 235.0000,277.0000 247.0000,301.0000 249.0000,314.0000 C 251.0000,307.0000 255.0000,302.0000 265.0000,302.0000 "  fill="#000000" stroke="none" />
</g>
<g transform="matrix(1.0000 0.0000 0.0000 1.0000 0.0000 0.0000)">
</g>
<g transform="matrix(0.0625 0.0000 0.0000 0.0625 0.0000 0.0000)">
<path d="M 624.0000,312.0000 C 642.0000,311.0000 647.0000,302.0000 644.0000,286.0000 C 642.0000,288.0000 633.0000,283.0000 617.0000,284.0000 C 610.0000,284.0000 579.0000,284.0000 539.0000,292.0000 C 539.0000,297.0000 540.0000,306.0000 540.0000,311.0000 C 582.0000,312.0000 616.0000,313.0000 624.0000,312.0000 "  fill="#000000" stroke="none" />
</g>
<g transform="matrix(1.0000 0.0000 0.0000 1.0000 0.0000 0.0000)">
</g>
<g transform="matrix(0.0625 0.0000 0.0000 0.0625 0.0000 0.0000)">
<path d="M 645.0000,499.0000 C 644.0000,500.0000 638.0000,504.0000 636.0000,505.0000 C 625.0000,513.0000 633.0000,507.0000 620.0000,500.0000 C 615.0000,497.0000 605.0000,506.0000 604.0000,503.0000 C 604.0000,513.0000 603.0000,525.0000 613.0000,530.0000 C 626.0000,537.0000 646.0000,536.0000 657.0000,528.0000 C 660.0000,525.0000 662.0000,522.0000 663.0000,518.0000 L 663.0000,504.0000 C 663.0000,504.0000 646.0000,498.0000 645.0000,499.0000 Z "  fill="#000000" stroke="none" />
</g>
<g transform="matrix(1.0000 0.0000 0.0000 1.0000 0.0000 0.0000)">
</g>
<g transform="matrix(0.0625 0.0000 0.0000 0.0625 0.0000 0.0000)">
<path d="M 499.0000,736.0000 C 482.0000,736.0000 407.0000,746.0000 407.0000,759.0000 C 406.0000,772.0000 419.0000,783.0000 436.0000,790.0000 C 453.0000,798.0000 486.0000,806.0000 495.0000,799.0000 C 504.0000,793.0000 509.0000,778.0000 511.0000,769.0000 C 518.0000,746.0000 517.0000,737.0000 499.0000,736.0000 "  fill="#FFFFFF" stroke="none" />
</g>
<g transform="matrix(1.0000 0.0000 0.0000 1.0000 0.0000 0.0000)">
</g>
<g transform="matrix(0.0625 0.0000 0.0000 0.0625 0.0000 0.0000)">
<path d="M 624.0000,294.0000 C 642.0000,293.0000 648.0000,288.0000 640.0000,277.0000 C 633.0000,268.0000 607.0000,242.0000 589.0000,221.0000 C 580.0000,234.0000 568.0000,248.0000 558.0000,265.0000 C 553.0000,273.0000 547.0000,282.0000 539.0000,293.0000 C 581.0000,294.0000 616.0000,295.0000 624.0000,294.0000 "  fill="#FFFFFF" stroke="none" />
</g>
<g transform="matrix(1.0000 0.0000 0.0000 1.0000 0.0000 0.0000)">
</g>
<g transform="matrix(0.0625 0.0000 0.0000 0.0625 0.0000 0.0000)">
<path d="M 613.0000,514.0000 C 626.0000,521.0000 646.0000,520.0000 657.0000,511.0000 C 668.0000,503.0000 664.0000,490.0000 630.0000,469.0000 C 615.0000,459.0000 606.0000,463.0000 606.0000,481.0000 C 605.0000,498.0000 600.0000,507.0000 613.0000,514.0000 "  fill="#FFFFFF" stroke="none" />
</g>
<g transform="matrix(1.0000 0.0000 0.0000 1.0000 0.0000 0.0000)">
</g>
<g transform="matrix(0.0625 0.0000 0.0000 0.0625 0.0000 0.0000)">
<path d="M 1039.0000,300.0000 L 762.0000,36.0000 L 733.0000,24.0000 L 341.0000,24.0000 L 316.0000,33.0000 L 35.0000,300.0000 L 24.0000,325.0000 L 24.0000,675.0000 L 40.0000,713.0000 L 312.0000,972.0000 L 340.0000,984.0000 L 733.0000,984.0000 L 760.0000,973.0000 L 1032.0000,714.0000 L 1048.0000,680.0000 L 1048.0000,325.0000 L 1039.0000,300.0000 Z M 767.0000,808.0000 C 736.0000,820.0000 705.0000,841.0000 692.0000,836.0000 C 679.0000,831.0000 702.0000,808.0000 713.0000,793.0000 C 725.0000,778.0000 721.0000,758.0000 695.0000,749.0000 C 669.0000,739.0000 626.0000,733.0000 611.0000,734.0000 C 595.0000,736.0000 597.0000,755.0000 596.0000,766.0000 C 596.0000,777.0000 590.0000,805.0000 576.0000,831.0000 C 562.0000,857.0000 551.0000,858.0000 512.0000,857.0000 C 473.0000,855.0000 402.0000,828.0000 374.0000,812.0000 C 346.0000,796.0000 332.0000,782.0000 328.0000,762.0000 C 325.0000,742.0000 354.0000,724.0000 396.0000,710.0000 C 438.0000,697.0000 517.0000,682.0000 517.0000,682.0000 C 517.0000,682.0000 518.0000,645.0000 517.0000,630.0000 C 515.0000,615.0000 513.0000,608.0000 494.0000,605.0000 C 474.0000,602.0000 393.0000,610.0000 365.0000,611.0000 C 336.0000,612.0000 311.0000,602.0000 300.0000,582.0000 C 290.0000,562.0000 287.0000,544.0000 303.0000,523.0000 C 319.0000,502.0000 336.0000,459.0000 367.0000,406.0000 C 372.0000,397.0000 377.0000,387.0000 383.0000,376.0000 C 367.0000,377.0000 353.0000,377.0000 344.0000,376.0000 C 309.0000,375.0000 283.0000,374.0000 268.0000,354.0000 C 254.0000,334.0000 234.0000,285.0000 265.0000,284.0000 C 295.0000,283.0000 334.0000,289.0000 397.0000,289.0000 C 407.0000,289.0000 417.0000,289.0000 429.0000,290.0000 C 441.0000,267.0000 451.0000,249.0000 456.0000,241.0000 C 470.0000,220.0000 485.0000,186.0000 485.0000,166.0000 C 486.0000,147.0000 489.0000,141.0000 508.0000,137.0000 C 526.0000,133.0000 551.0000,140.0000 573.0000,148.0000 C 586.0000,153.0000 607.0000,169.0000 602.0000,197.0000 C 601.0000,200.0000 600.0000,204.0000 598.0000,207.0000 C 609.0000,217.0000 638.0000,239.0000 669.0000,252.0000 C 710.0000,269.0000 775.0000,291.0000 790.0000,296.0000 C 821.0000,306.0000 803.0000,347.0000 790.0000,359.0000 C 776.0000,372.0000 721.0000,370.0000 684.0000,371.0000 C 647.0000,371.0000 540.0000,373.0000 521.0000,373.0000 C 512.0000,372.0000 499.0000,372.0000 484.0000,373.0000 C 481.0000,378.0000 479.0000,382.0000 476.0000,386.0000 C 465.0000,407.0000 423.0000,471.0000 411.0000,493.0000 C 399.0000,514.0000 397.0000,520.0000 407.0000,532.0000 C 418.0000,543.0000 475.0000,541.0000 488.0000,537.0000 C 501.0000,533.0000 517.0000,527.0000 524.0000,515.0000 C 531.0000,502.0000 532.0000,465.0000 533.0000,445.0000 C 534.0000,426.0000 539.0000,413.0000 554.0000,411.0000 C 569.0000,410.0000 617.0000,427.0000 653.0000,448.0000 C 689.0000,469.0000 734.0000,501.0000 739.0000,521.0000 C 745.0000,541.0000 725.0000,555.0000 683.0000,571.0000 C 641.0000,587.0000 615.0000,584.0000 603.0000,601.0000 C 591.0000,618.0000 602.0000,681.0000 602.0000,681.0000 C 624.0000,685.0000 691.0000,702.0000 723.0000,713.0000 C 755.0000,723.0000 809.0000,742.0000 817.0000,766.0000 C 825.0000,791.0000 798.0000,796.0000 767.0000,808.0000 Z "  fill="#FFFFFF" stroke="none" />
</g>
<g transform="matrix(1.0000 0.0000 0.0000 1.0000 0.0000 0.0000)">
</g>
</g>
</svg>
