<?xml version="1.0"  encoding="UTF-8" standalone="no"?>
<svg version="1.1" xmlns="http://www.w3.org/2000/svg" xmlns:xlink="http://www.w3.org/1999/xlink" width="65.0000" height="68.0000">
<g transform="translate(-1.0000, -1.0000)">
<g transform="matrix(0.0625 0.0000 0.0000 0.0625 0.0000 0.0000)">
<path d="M 341.0000,122.0000 L 316.0000,131.0000 L 35.0000,397.0000 L 24.0000,422.0000 L 24.0000,787.0000 L 40.0000,825.0000 L 312.0000,1084.0000 L 340.0000,1096.0000 L 553.0000,1096.0000 C 512.0000,773.0000 493.0000,448.0000 489.0000,122.0000 L 341.0000,122.0000 L 341.0000,122.0000 Z "  fill="#1E26C7" stroke="none" />
</g>
<g transform="matrix(1.0000 0.0000 0.0000 1.0000 0.0000 0.0000)">
</g>
<g transform="matrix(0.0625 0.0000 0.0000 0.0625 0.0000 0.0000)">
<path d="M 1039.0000,397.0000 L 762.0000,133.0000 L 733.0000,122.0000 L 489.0000,122.0000 C 493.0000,448.0000 512.0000,773.0000 553.0000,1096.0000 L 733.0000,1096.0000 L 760.0000,1085.0000 L 1032.0000,825.0000 L 1048.0000,791.0000 L 1048.0000,422.0000 L 1039.0000,397.0000 Z "  fill="#1E26C7" stroke="none" />
</g>
<g transform="matrix(1.0000 0.0000 0.0000 1.0000 0.0000 0.0000)">
<path d="M 20.0000,9.0000 L 3.0000,25.0000 L 2.0000,27.0000 L 2.0000,50.0000 L 3.0000,52.0000 L 20.0000,68.0000 L 20.0000,68.0000 L 20.0000,9.0000 L 20.0000,9.0000 " fill="none" stroke="none" />
<defs><clipPath id="clip-16807"><path d="M 20.0000,9.0000 L 3.0000,25.0000 L 2.0000,27.0000 L 2.0000,50.0000 L 3.0000,52.0000 L 20.0000,68.0000 L 20.0000,68.0000 L 20.0000,9.0000 L 20.0000,9.0000 Z" /></clipPath></defs>
<path  clip-path="url(#clip-16807)" d="M 0.0000,7.0000 L 0.0000,69.0000 L 1.0000,69.0000 L 1.0000,7.0000 L 0.0000,7.0000 Z" stroke-width="1px" stroke="#01019B"  fill="#01019B" />
<path  clip-path="url(#clip-16807)" d="M 1.0000,7.0000 L 1.0000,69.0000 L 2.0000,69.0000 L 2.0000,7.0000 L 1.0000,7.0000 Z" stroke-width="1px" stroke="#2520BA"  fill="#2520BA" />
<path  clip-path="url(#clip-16807)" d="M 2.0000,7.0000 L 2.0000,69.0000 L 3.0000,69.0000 L 3.0000,7.0000 L 2.0000,7.0000 Z" stroke-width="1px" stroke="#231FB9"  fill="#231FB9" />
<path  clip-path="url(#clip-16807)" d="M 3.0000,7.0000 L 3.0000,69.0000 L 4.0000,69.0000 L 4.0000,7.0000 L 3.0000,7.0000 Z" stroke-width="1px" stroke="#211DB7"  fill="#211DB7" />
<path  clip-path="url(#clip-16807)" d="M 4.0000,7.0000 L 4.0000,69.0000 L 5.0000,69.0000 L 5.0000,7.0000 L 4.0000,7.0000 Z" stroke-width="1px" stroke="#201CB6"  fill="#201CB6" />
<path  clip-path="url(#clip-16807)" d="M 5.0000,7.0000 L 5.0000,69.0000 L 6.0000,69.0000 L 6.0000,7.0000 L 5.0000,7.0000 Z" stroke-width="1px" stroke="#1E1AB4"  fill="#1E1AB4" />
<path  clip-path="url(#clip-16807)" d="M 6.0000,7.0000 L 6.0000,69.0000 L 7.0000,69.0000 L 7.0000,7.0000 L 6.0000,7.0000 Z" stroke-width="1px" stroke="#1C18B2"  fill="#1C18B2" />
<path  clip-path="url(#clip-16807)" d="M 7.0000,7.0000 L 7.0000,69.0000 L 8.0000,69.0000 L 8.0000,7.0000 L 7.0000,7.0000 Z" stroke-width="1px" stroke="#1A17B1"  fill="#1A17B1" />
<path  clip-path="url(#clip-16807)" d="M 8.0000,7.0000 L 8.0000,69.0000 L 9.0000,69.0000 L 9.0000,7.0000 L 8.0000,7.0000 Z" stroke-width="1px" stroke="#1815AF"  fill="#1815AF" />
<path  clip-path="url(#clip-16807)" d="M 9.0000,7.0000 L 9.0000,69.0000 L 10.0000,69.0000 L 10.0000,7.0000 L 9.0000,7.0000 Z" stroke-width="1px" stroke="#1614AE"  fill="#1614AE" />
<path  clip-path="url(#clip-16807)" d="M 10.0000,7.0000 L 10.0000,69.0000 L 11.0000,69.0000 L 11.0000,7.0000 L 10.0000,7.0000 Z" stroke-width="1px" stroke="#1412AC"  fill="#1412AC" />
<path  clip-path="url(#clip-16807)" d="M 11.0000,7.0000 L 11.0000,69.0000 L 12.0000,69.0000 L 12.0000,7.0000 L 11.0000,7.0000 Z" stroke-width="1px" stroke="#1310AA"  fill="#1310AA" />
<path  clip-path="url(#clip-16807)" d="M 12.0000,7.0000 L 12.0000,69.0000 L 13.0000,69.0000 L 13.0000,7.0000 L 12.0000,7.0000 Z" stroke-width="1px" stroke="#110EA8"  fill="#110EA8" />
<path  clip-path="url(#clip-16807)" d="M 13.0000,7.0000 L 13.0000,69.0000 L 14.0000,69.0000 L 14.0000,7.0000 L 13.0000,7.0000 Z" stroke-width="1px" stroke="#0F0CA6"  fill="#0F0CA6" />
<path  clip-path="url(#clip-16807)" d="M 14.0000,7.0000 L 14.0000,69.0000 L 15.0000,69.0000 L 15.0000,7.0000 L 14.0000,7.0000 Z" stroke-width="1px" stroke="#0D0BA5"  fill="#0D0BA5" />
<path  clip-path="url(#clip-16807)" d="M 15.0000,7.0000 L 15.0000,69.0000 L 16.0000,69.0000 L 16.0000,7.0000 L 15.0000,7.0000 Z" stroke-width="1px" stroke="#0B09A3"  fill="#0B09A3" />
<path  clip-path="url(#clip-16807)" d="M 16.0000,7.0000 L 16.0000,69.0000 L 17.0000,69.0000 L 17.0000,7.0000 L 16.0000,7.0000 Z" stroke-width="1px" stroke="#0A08A2"  fill="#0A08A2" />
<path  clip-path="url(#clip-16807)" d="M 17.0000,7.0000 L 17.0000,69.0000 L 18.0000,69.0000 L 18.0000,7.0000 L 17.0000,7.0000 Z" stroke-width="1px" stroke="#0706A0"  fill="#0706A0" />
<path  clip-path="url(#clip-16807)" d="M 18.0000,7.0000 L 18.0000,69.0000 L 19.0000,69.0000 L 19.0000,7.0000 L 18.0000,7.0000 Z" stroke-width="1px" stroke="#06059F"  fill="#06059F" />
<path  clip-path="url(#clip-16807)" d="M 19.0000,7.0000 L 19.0000,69.0000 L 20.0000,69.0000 L 20.0000,7.0000 L 19.0000,7.0000 Z" stroke-width="1px" stroke="#04039D"  fill="#04039D" />
<path  clip-path="url(#clip-16807)" d="M 20.0000,7.0000 L 20.0000,69.0000 L 21.0000,69.0000 L 21.0000,7.0000 L 20.0000,7.0000 Z" stroke-width="1px" stroke="#02029C"  fill="#02029C" />
<path d="M 65.0000,25.0000 L 48.0000,9.0000 L 47.0000,9.0000 L 47.0000,68.0000 L 48.0000,68.0000 L 65.0000,52.0000 L 66.0000,50.0000 L 66.0000,27.0000 L 65.0000,25.0000 " fill="none" stroke="none" />
<defs><clipPath id="clip-282475249"><path d="M 65.0000,25.0000 L 48.0000,9.0000 L 47.0000,9.0000 L 47.0000,68.0000 L 48.0000,68.0000 L 65.0000,52.0000 L 66.0000,50.0000 L 66.0000,27.0000 L 65.0000,25.0000 Z" /></clipPath></defs>
<path  clip-path="url(#clip-282475249)" d="M 46.0000,7.0000 L 46.0000,69.0000 L 47.0000,69.0000 L 47.0000,7.0000 L 46.0000,7.0000 Z" stroke-width="1px" stroke="#000065"  fill="#000065" />
<path  clip-path="url(#clip-282475249)" d="M 47.0000,7.0000 L 47.0000,69.0000 L 48.0000,69.0000 L 48.0000,7.0000 L 47.0000,7.0000 Z" stroke-width="1px" stroke="#020267"  fill="#020267" />
<path  clip-path="url(#clip-282475249)" d="M 48.0000,7.0000 L 48.0000,69.0000 L 49.0000,69.0000 L 49.0000,7.0000 L 48.0000,7.0000 Z" stroke-width="1px" stroke="#030369"  fill="#030369" />
<path  clip-path="url(#clip-282475249)" d="M 49.0000,7.0000 L 49.0000,69.0000 L 50.0000,69.0000 L 50.0000,7.0000 L 49.0000,7.0000 Z" stroke-width="1px" stroke="#05046B"  fill="#05046B" />
<path  clip-path="url(#clip-282475249)" d="M 50.0000,7.0000 L 50.0000,69.0000 L 51.0000,69.0000 L 51.0000,7.0000 L 50.0000,7.0000 Z" stroke-width="1px" stroke="#06056D"  fill="#06056D" />
<path  clip-path="url(#clip-282475249)" d="M 51.0000,7.0000 L 51.0000,69.0000 L 52.0000,69.0000 L 52.0000,7.0000 L 51.0000,7.0000 Z" stroke-width="1px" stroke="#08076F"  fill="#08076F" />
<path  clip-path="url(#clip-282475249)" d="M 52.0000,7.0000 L 52.0000,69.0000 L 53.0000,69.0000 L 53.0000,7.0000 L 52.0000,7.0000 Z" stroke-width="1px" stroke="#090871"  fill="#090871" />
<path  clip-path="url(#clip-282475249)" d="M 53.0000,7.0000 L 53.0000,69.0000 L 54.0000,69.0000 L 54.0000,7.0000 L 53.0000,7.0000 Z" stroke-width="1px" stroke="#0B0A73"  fill="#0B0A73" />
<path  clip-path="url(#clip-282475249)" d="M 54.0000,7.0000 L 54.0000,69.0000 L 55.0000,69.0000 L 55.0000,7.0000 L 54.0000,7.0000 Z" stroke-width="1px" stroke="#0D0B75"  fill="#0D0B75" />
<path  clip-path="url(#clip-282475249)" d="M 55.0000,7.0000 L 55.0000,69.0000 L 56.0000,69.0000 L 56.0000,7.0000 L 55.0000,7.0000 Z" stroke-width="1px" stroke="#0E0C77"  fill="#0E0C77" />
<path  clip-path="url(#clip-282475249)" d="M 56.0000,7.0000 L 56.0000,69.0000 L 57.0000,69.0000 L 57.0000,7.0000 L 56.0000,7.0000 Z" stroke-width="1px" stroke="#100E79"  fill="#100E79" />
<path  clip-path="url(#clip-282475249)" d="M 57.0000,7.0000 L 57.0000,69.0000 L 58.0000,69.0000 L 58.0000,7.0000 L 57.0000,7.0000 Z" stroke-width="1px" stroke="#120F7B"  fill="#120F7B" />
<path  clip-path="url(#clip-282475249)" d="M 58.0000,7.0000 L 58.0000,69.0000 L 59.0000,69.0000 L 59.0000,7.0000 L 58.0000,7.0000 Z" stroke-width="1px" stroke="#14117D"  fill="#14117D" />
<path  clip-path="url(#clip-282475249)" d="M 59.0000,7.0000 L 59.0000,69.0000 L 60.0000,69.0000 L 60.0000,7.0000 L 59.0000,7.0000 Z" stroke-width="1px" stroke="#15127E"  fill="#15127E" />
<path  clip-path="url(#clip-282475249)" d="M 60.0000,7.0000 L 60.0000,69.0000 L 61.0000,69.0000 L 61.0000,7.0000 L 60.0000,7.0000 Z" stroke-width="1px" stroke="#171381"  fill="#171381" />
<path  clip-path="url(#clip-282475249)" d="M 61.0000,7.0000 L 61.0000,69.0000 L 62.0000,69.0000 L 62.0000,7.0000 L 61.0000,7.0000 Z" stroke-width="1px" stroke="#181482"  fill="#181482" />
<path  clip-path="url(#clip-282475249)" d="M 62.0000,7.0000 L 62.0000,69.0000 L 63.0000,69.0000 L 63.0000,7.0000 L 62.0000,7.0000 Z" stroke-width="1px" stroke="#1A1685"  fill="#1A1685" />
<path  clip-path="url(#clip-282475249)" d="M 63.0000,7.0000 L 63.0000,69.0000 L 64.0000,69.0000 L 64.0000,7.0000 L 63.0000,7.0000 Z" stroke-width="1px" stroke="#1C1887"  fill="#1C1887" />
<path  clip-path="url(#clip-282475249)" d="M 64.0000,7.0000 L 64.0000,69.0000 L 65.0000,69.0000 L 65.0000,7.0000 L 64.0000,7.0000 Z" stroke-width="1px" stroke="#1D1988"  fill="#1D1988" />
<path  clip-path="url(#clip-282475249)" d="M 65.0000,7.0000 L 65.0000,69.0000 L 66.0000,69.0000 L 66.0000,7.0000 L 65.0000,7.0000 Z" stroke-width="1px" stroke="#1F1A8B"  fill="#1F1A8B" />
<path  clip-path="url(#clip-282475249)" d="M 66.0000,7.0000 L 66.0000,69.0000 L 67.0000,69.0000 L 67.0000,7.0000 L 66.0000,7.0000 Z" stroke-width="1px" stroke="#201B8C"  fill="#201B8C" />
<defs><clipPath id="clip-1622650073"><path d="M 21.0000,8.0000 L 47.0000,8.0000 L 47.0000,69.0000 L 21.0000,69.0000 L 21.0000,8.0000 Z Z" /></clipPath></defs>
<path  clip-path="url(#clip-1622650073)" d="M 19.0000,6.0000 L 19.0000,69.0000 L 20.0000,69.0000 L 20.0000,6.0000 L 19.0000,6.0000 Z" stroke-width="1px" stroke="#181B99"  fill="#181B99" />
<path  clip-path="url(#clip-1622650073)" d="M 20.0000,6.0000 L 20.0000,69.0000 L 21.0000,69.0000 L 21.0000,6.0000 L 20.0000,6.0000 Z" stroke-width="1px" stroke="#000070"  fill="#000070" />
<path  clip-path="url(#clip-1622650073)" d="M 21.0000,6.0000 L 21.0000,69.0000 L 22.0000,69.0000 L 22.0000,6.0000 L 21.0000,6.0000 Z" stroke-width="1px" stroke="#020271"  fill="#020271" />
<path  clip-path="url(#clip-1622650073)" d="M 22.0000,6.0000 L 22.0000,69.0000 L 23.0000,69.0000 L 23.0000,6.0000 L 22.0000,6.0000 Z" stroke-width="1px" stroke="#020373"  fill="#020373" />
<path  clip-path="url(#clip-1622650073)" d="M 23.0000,6.0000 L 23.0000,69.0000 L 24.0000,69.0000 L 24.0000,6.0000 L 23.0000,6.0000 Z" stroke-width="1px" stroke="#030474"  fill="#030474" />
<path  clip-path="url(#clip-1622650073)" d="M 24.0000,6.0000 L 24.0000,69.0000 L 25.0000,69.0000 L 25.0000,6.0000 L 24.0000,6.0000 Z" stroke-width="1px" stroke="#040576"  fill="#040576" />
<path  clip-path="url(#clip-1622650073)" d="M 25.0000,6.0000 L 25.0000,69.0000 L 26.0000,69.0000 L 26.0000,6.0000 L 25.0000,6.0000 Z" stroke-width="1px" stroke="#050577"  fill="#050577" />
<path  clip-path="url(#clip-1622650073)" d="M 26.0000,6.0000 L 26.0000,69.0000 L 27.0000,69.0000 L 27.0000,6.0000 L 26.0000,6.0000 Z" stroke-width="1px" stroke="#060679"  fill="#060679" />
<path  clip-path="url(#clip-1622650073)" d="M 27.0000,6.0000 L 27.0000,69.0000 L 28.0000,69.0000 L 28.0000,6.0000 L 27.0000,6.0000 Z" stroke-width="1px" stroke="#07087B"  fill="#07087B" />
<path  clip-path="url(#clip-1622650073)" d="M 28.0000,6.0000 L 28.0000,69.0000 L 29.0000,69.0000 L 29.0000,6.0000 L 28.0000,6.0000 Z" stroke-width="1px" stroke="#08097C"  fill="#08097C" />
<path  clip-path="url(#clip-1622650073)" d="M 29.0000,6.0000 L 29.0000,69.0000 L 30.0000,69.0000 L 30.0000,6.0000 L 29.0000,6.0000 Z" stroke-width="1px" stroke="#080A7D"  fill="#080A7D" />
<path  clip-path="url(#clip-1622650073)" d="M 30.0000,6.0000 L 30.0000,69.0000 L 31.0000,69.0000 L 31.0000,6.0000 L 30.0000,6.0000 Z" stroke-width="1px" stroke="#090B7F"  fill="#090B7F" />
<path  clip-path="url(#clip-1622650073)" d="M 31.0000,6.0000 L 31.0000,69.0000 L 32.0000,69.0000 L 32.0000,6.0000 L 31.0000,6.0000 Z" stroke-width="1px" stroke="#0A0C81"  fill="#0A0C81" />
<path  clip-path="url(#clip-1622650073)" d="M 32.0000,6.0000 L 32.0000,69.0000 L 33.0000,69.0000 L 33.0000,6.0000 L 32.0000,6.0000 Z" stroke-width="1px" stroke="#0B0C82"  fill="#0B0C82" />
<path  clip-path="url(#clip-1622650073)" d="M 33.0000,6.0000 L 33.0000,69.0000 L 34.0000,69.0000 L 34.0000,6.0000 L 33.0000,6.0000 Z" stroke-width="1px" stroke="#0C0D84"  fill="#0C0D84" />
<path  clip-path="url(#clip-1622650073)" d="M 34.0000,6.0000 L 34.0000,69.0000 L 35.0000,69.0000 L 35.0000,6.0000 L 34.0000,6.0000 Z" stroke-width="1px" stroke="#0D0F86"  fill="#0D0F86" />
<path  clip-path="url(#clip-1622650073)" d="M 35.0000,6.0000 L 35.0000,69.0000 L 36.0000,69.0000 L 36.0000,6.0000 L 35.0000,6.0000 Z" stroke-width="1px" stroke="#0E1087"  fill="#0E1087" />
<path  clip-path="url(#clip-1622650073)" d="M 36.0000,6.0000 L 36.0000,69.0000 L 37.0000,69.0000 L 37.0000,6.0000 L 36.0000,6.0000 Z" stroke-width="1px" stroke="#0F1188"  fill="#0F1188" />
<path  clip-path="url(#clip-1622650073)" d="M 37.0000,6.0000 L 37.0000,69.0000 L 38.0000,69.0000 L 38.0000,6.0000 L 37.0000,6.0000 Z" stroke-width="1px" stroke="#10128A"  fill="#10128A" />
<path  clip-path="url(#clip-1622650073)" d="M 38.0000,6.0000 L 38.0000,69.0000 L 39.0000,69.0000 L 39.0000,6.0000 L 38.0000,6.0000 Z" stroke-width="1px" stroke="#11138C"  fill="#11138C" />
<path  clip-path="url(#clip-1622650073)" d="M 39.0000,6.0000 L 39.0000,69.0000 L 40.0000,69.0000 L 40.0000,6.0000 L 39.0000,6.0000 Z" stroke-width="1px" stroke="#11138D"  fill="#11138D" />
<path  clip-path="url(#clip-1622650073)" d="M 40.0000,6.0000 L 40.0000,69.0000 L 41.0000,69.0000 L 41.0000,6.0000 L 40.0000,6.0000 Z" stroke-width="1px" stroke="#13158F"  fill="#13158F" />
<path  clip-path="url(#clip-1622650073)" d="M 41.0000,6.0000 L 41.0000,69.0000 L 42.0000,69.0000 L 42.0000,6.0000 L 41.0000,6.0000 Z" stroke-width="1px" stroke="#131690"  fill="#131690" />
<path  clip-path="url(#clip-1622650073)" d="M 42.0000,6.0000 L 42.0000,69.0000 L 43.0000,69.0000 L 43.0000,6.0000 L 42.0000,6.0000 Z" stroke-width="1px" stroke="#141792"  fill="#141792" />
<path  clip-path="url(#clip-1622650073)" d="M 43.0000,6.0000 L 43.0000,69.0000 L 44.0000,69.0000 L 44.0000,6.0000 L 43.0000,6.0000 Z" stroke-width="1px" stroke="#151893"  fill="#151893" />
<path  clip-path="url(#clip-1622650073)" d="M 44.0000,6.0000 L 44.0000,69.0000 L 45.0000,69.0000 L 45.0000,6.0000 L 44.0000,6.0000 Z" stroke-width="1px" stroke="#161995"  fill="#161995" />
<path  clip-path="url(#clip-1622650073)" d="M 45.0000,6.0000 L 45.0000,69.0000 L 46.0000,69.0000 L 46.0000,6.0000 L 45.0000,6.0000 Z" stroke-width="1px" stroke="#171A96"  fill="#171A96" />
<path  clip-path="url(#clip-1622650073)" d="M 46.0000,6.0000 L 46.0000,69.0000 L 47.0000,69.0000 L 47.0000,6.0000 L 46.0000,6.0000 Z" stroke-width="1px" stroke="#171A98"  fill="#171A98" />
</g>
<g transform="matrix(0.0625 0.0000 0.0000 0.0625 0.0000 0.0000)">
<path d="M 731.0000,100.0000 L 970.0000,328.0000 L 978.0000,349.0000 L 978.0000,668.0000 L 964.0000,697.0000 L 729.0000,921.0000 L 706.0000,930.0000 L 367.0000,930.0000 L 343.0000,920.0000 L 108.0000,697.0000 L 95.0000,664.0000 L 95.0000,350.0000 L 104.0000,328.0000 L 347.0000,98.0000 L 368.0000,90.0000 L 706.0000,90.0000 L 731.0000,100.0000 Z" stroke-width="1px" stroke="#FFFFFF"  fill="#FFFFFF" />
</g>
<g transform="matrix(1.0000 0.0000 0.0000 1.0000 0.0000 0.0000)">
</g>
<g transform="matrix(0.0625 0.0000 0.0000 0.0625 0.0000 0.0000)">
<path d="M 324.0000,900.0000 L 700.0000,911.0000 L 1048.0000,672.0000 L 1048.0000,694.0000 L 1032.0000,728.0000 L 760.0000,988.0000 L 733.0000,998.0000 L 340.0000,998.0000 L 312.0000,987.0000 L 40.0000,728.0000 L 24.0000,689.0000 L 24.0000,667.0000 L 324.0000,900.0000 Z" stroke-width="1px" stroke="#0000AC"  fill="#0000AC" />
</g>
<g transform="matrix(1.0000 0.0000 0.0000 1.0000 0.0000 0.0000)">
</g>
<g transform="matrix(0.0625 0.0000 0.0000 0.0625 0.0000 0.0000)">
<path d="M 792.0000,773.0000 C 760.0000,773.0000 690.0000,776.0000 607.0000,780.0000 C 523.0000,785.0000 373.0000,785.0000 319.0000,783.0000 C 266.0000,780.0000 247.0000,755.0000 234.0000,734.0000 C 224.0000,719.0000 216.0000,704.0000 213.0000,691.0000 C 213.0000,692.0000 213.0000,693.0000 213.0000,693.0000 C 210.0000,710.0000 202.0000,749.0000 216.0000,770.0000 C 230.0000,790.0000 273.0000,816.0000 326.0000,819.0000 C 380.0000,821.0000 529.0000,819.0000 612.0000,815.0000 C 696.0000,810.0000 772.0000,803.0000 804.0000,803.0000 C 824.0000,803.0000 835.0000,773.0000 814.0000,764.0000 C 810.0000,770.0000 803.0000,773.0000 792.0000,773.0000 "  fill="#000000" stroke="none" />
</g>
<g transform="matrix(1.0000 0.0000 0.0000 1.0000 0.0000 0.0000)">
</g>
<g transform="matrix(0.0625 0.0000 0.0000 0.0625 0.0000 0.0000)">
<path d="M 326.0000,721.0000 C 328.0000,719.0000 334.0000,716.0000 336.0000,714.0000 C 355.0000,701.0000 376.0000,679.0000 387.0000,672.0000 C 397.0000,666.0000 389.0000,646.0000 370.0000,660.0000 C 357.0000,668.0000 340.0000,682.0000 326.0000,692.0000 C 318.0000,698.0000 316.0000,703.0000 316.0000,707.0000 L 316.0000,723.0000 L 316.0000,723.0000 C 316.0000,723.0000 316.0000,725.0000 320.0000,720.0000 L 326.0000,721.0000 Z "  fill="#000000" stroke="none" />
</g>
<g transform="matrix(1.0000 0.0000 0.0000 1.0000 0.0000 0.0000)">
</g>
<g transform="matrix(0.0625 0.0000 0.0000 0.0625 0.0000 0.0000)">
<path d="M 449.0000,634.0000 C 432.0000,632.0000 408.0000,597.0000 402.0000,577.0000 C 400.0000,582.0000 388.0000,589.0000 389.0000,593.0000 C 394.0000,612.0000 422.0000,668.0000 440.0000,670.0000 C 459.0000,673.0000 729.0000,653.0000 773.0000,653.0000 C 790.0000,653.0000 782.0000,628.0000 765.0000,626.0000 C 763.0000,627.0000 760.0000,627.0000 755.0000,627.0000 C 711.0000,627.0000 468.0000,637.0000 449.0000,634.0000 "  fill="#000000" stroke="none" />
</g>
<g transform="matrix(1.0000 0.0000 0.0000 1.0000 0.0000 0.0000)">
</g>
<g transform="matrix(0.0625 0.0000 0.0000 0.0625 0.0000 0.0000)">
<path d="M 628.0000,405.0000 C 604.0000,385.0000 596.0000,362.0000 594.0000,341.0000 C 592.0000,367.0000 598.0000,398.0000 628.0000,422.0000 C 679.0000,464.0000 746.0000,431.0000 767.0000,385.0000 C 779.0000,359.0000 783.0000,330.0000 782.0000,303.0000 C 781.0000,325.0000 776.0000,347.0000 767.0000,368.0000 C 746.0000,414.0000 679.0000,446.0000 628.0000,405.0000 "  fill="#000000" stroke="none" />
</g>
<g transform="matrix(1.0000 0.0000 0.0000 1.0000 0.0000 0.0000)">
</g>
<g transform="matrix(0.0625 0.0000 0.0000 0.0625 0.0000 0.0000)">
<path d="M 706.0000,288.0000 C 720.0000,286.0000 720.0000,294.0000 732.0000,306.0000 C 734.0000,308.0000 739.0000,310.0000 740.0000,312.0000 C 740.0000,304.0000 740.0000,296.0000 739.0000,289.0000 C 737.0000,266.0000 720.0000,256.0000 707.0000,259.0000 C 682.0000,263.0000 668.0000,308.0000 672.0000,335.0000 C 674.0000,309.0000 686.0000,291.0000 706.0000,288.0000 "  fill="#000000" stroke="none" />
</g>
<g transform="matrix(1.0000 0.0000 0.0000 1.0000 0.0000 0.0000)">
</g>
<g transform="matrix(0.0625 0.0000 0.0000 0.0625 0.0000 0.0000)">
<path d="M 777.0000,245.0000 C 782.0000,243.0000 793.0000,239.0000 799.0000,237.0000 C 808.0000,232.0000 823.0000,216.0000 802.0000,211.0000 C 799.0000,213.0000 796.0000,215.0000 792.0000,217.0000 C 783.0000,221.0000 769.0000,226.0000 769.0000,226.0000 L 769.0000,243.0000 L 777.0000,245.0000 Z "  fill="#000000" stroke="none" />
</g>
<g transform="matrix(1.0000 0.0000 0.0000 1.0000 0.0000 0.0000)">
</g>
<g transform="matrix(0.0625 0.0000 0.0000 0.0625 0.0000 0.0000)">
<path d="M 636.0000,236.0000 C 629.0000,228.0000 618.0000,224.0000 592.0000,223.0000 C 548.0000,221.0000 490.0000,224.0000 456.0000,275.0000 C 442.0000,295.0000 430.0000,309.0000 428.0000,326.0000 C 426.0000,304.0000 431.0000,280.0000 449.0000,254.0000 C 484.0000,203.0000 549.0000,191.0000 593.0000,194.0000 C 637.0000,196.0000 646.0000,224.0000 646.0000,224.0000 L 646.0000,241.0000 C 646.0000,241.0000 639.0000,239.0000 636.0000,236.0000 Z "  fill="#000000" stroke="none" />
</g>
<g transform="matrix(1.0000 0.0000 0.0000 1.0000 0.0000 0.0000)">
</g>
<g transform="matrix(0.0625 0.0000 0.0000 0.0625 0.0000 0.0000)">
<path d="M 481.0000,507.0000 C 478.0000,503.0000 468.0000,501.0000 461.0000,500.0000 C 442.0000,495.0000 397.0000,484.0000 365.0000,461.0000 C 332.0000,438.0000 308.0000,389.0000 305.0000,340.0000 C 305.0000,336.0000 306.0000,331.0000 311.0000,328.0000 C 314.0000,375.0000 341.0000,415.0000 373.0000,437.0000 C 405.0000,460.0000 451.0000,470.0000 470.0000,474.0000 C 482.0000,477.0000 490.0000,485.0000 490.0000,494.0000 L 490.0000,510.0000 C 490.0000,510.0000 484.0000,510.0000 481.0000,507.0000 Z "  fill="#000000" stroke="none" />
</g>
<g transform="matrix(1.0000 0.0000 0.0000 1.0000 0.0000 0.0000)">
</g>
<g transform="matrix(0.0625 0.0000 0.0000 0.0625 0.0000 0.0000)">
<path d="M 577.0000,553.0000 C 579.0000,546.0000 590.0000,539.0000 599.0000,530.0000 C 616.0000,514.0000 629.0000,484.0000 629.0000,473.0000 C 629.0000,470.0000 622.0000,467.0000 620.0000,464.0000 C 614.0000,478.0000 597.0000,498.0000 584.0000,511.0000 C 570.0000,525.0000 566.0000,535.0000 567.0000,545.0000 L 567.0000,565.0000 C 567.0000,565.0000 576.0000,556.0000 577.0000,553.0000 Z "  fill="#000000" stroke="none" />
</g>
<g transform="matrix(1.0000 0.0000 0.0000 1.0000 0.0000 0.0000)">
</g>
<g transform="matrix(0.0625 0.0000 0.0000 0.0625 0.0000 0.0000)">
<path d="M 723.0000,378.0000 C 739.0000,362.0000 741.0000,329.0000 739.0000,306.0000 C 737.0000,283.0000 720.0000,274.0000 707.0000,276.0000 C 679.0000,281.0000 665.0000,339.0000 674.0000,362.0000 C 683.0000,385.0000 707.0000,394.0000 723.0000,378.0000 "  fill="#0000FF" stroke="none" />
</g>
<g transform="matrix(1.0000 0.0000 0.0000 1.0000 0.0000 0.0000)">
</g>
<g transform="matrix(0.0625 0.0000 0.0000 0.0625 0.0000 0.0000)">
<path d="M 33.0000,708.0000 L 311.0000,972.0000 L 340.0000,984.0000 L 732.0000,984.0000 L 757.0000,975.0000 L 1038.0000,708.0000 L 1048.0000,683.0000 L 1048.0000,333.0000 L 1033.0000,295.0000 L 760.0000,36.0000 L 733.0000,24.0000 L 340.0000,24.0000 L 313.0000,35.0000 L 40.0000,295.0000 L 24.0000,329.0000 L 24.0000,683.0000 L 33.0000,708.0000 Z M 400.0000,190.0000 C 463.0000,132.0000 528.0000,137.0000 600.0000,146.0000 C 672.0000,155.0000 718.0000,199.0000 718.0000,199.0000 C 737.0000,195.0000 788.0000,199.0000 802.0000,211.0000 C 816.0000,223.0000 802.0000,230.0000 792.0000,234.0000 C 783.0000,239.0000 769.0000,243.0000 769.0000,243.0000 C 785.0000,283.0000 788.0000,339.0000 767.0000,385.0000 C 746.0000,431.0000 679.0000,464.0000 628.0000,422.0000 C 577.0000,380.0000 595.0000,320.0000 605.0000,297.0000 C 614.0000,274.0000 646.0000,241.0000 646.0000,241.0000 C 646.0000,241.0000 637.0000,213.0000 593.0000,211.0000 C 549.0000,209.0000 484.0000,220.0000 449.0000,271.0000 C 414.0000,322.0000 428.0000,364.0000 447.0000,406.0000 C 465.0000,447.0000 535.0000,443.0000 572.0000,445.0000 C 609.0000,448.0000 623.0000,461.0000 623.0000,473.0000 C 623.0000,485.0000 600.0000,512.0000 584.0000,529.0000 C 567.0000,545.0000 565.0000,557.0000 568.0000,568.0000 C 570.0000,580.0000 623.0000,566.0000 646.0000,561.0000 C 670.0000,556.0000 695.0000,552.0000 714.0000,561.0000 C 732.0000,570.0000 753.0000,605.0000 762.0000,621.0000 C 772.0000,638.0000 774.0000,645.0000 755.0000,645.0000 C 711.0000,645.0000 468.0000,654.0000 449.0000,652.0000 C 431.0000,649.0000 405.0000,610.0000 401.0000,591.0000 C 396.0000,573.0000 419.0000,550.0000 438.0000,547.0000 C 456.0000,545.0000 461.0000,536.0000 479.0000,524.0000 C 498.0000,512.0000 489.0000,496.0000 470.0000,492.0000 C 451.0000,487.0000 405.0000,478.0000 373.0000,454.0000 C 340.0000,431.0000 312.0000,390.0000 310.0000,341.0000 C 308.0000,292.0000 338.0000,248.0000 400.0000,190.0000 Z M 213.0000,693.0000 C 215.0000,677.0000 247.0000,665.0000 273.0000,665.0000 C 298.0000,665.0000 336.0000,665.0000 359.0000,661.0000 C 382.0000,656.0000 391.0000,663.0000 380.0000,670.0000 C 368.0000,677.0000 345.0000,696.0000 326.0000,710.0000 C 308.0000,723.0000 317.0000,733.0000 333.0000,740.0000 C 350.0000,747.0000 447.0000,735.0000 509.0000,728.0000 C 572.0000,721.0000 672.0000,712.0000 711.0000,707.0000 C 751.0000,703.0000 769.0000,712.0000 797.0000,740.0000 C 825.0000,768.0000 821.0000,791.0000 792.0000,791.0000 C 760.0000,791.0000 690.0000,793.0000 607.0000,798.0000 C 523.0000,802.0000 373.0000,802.0000 319.0000,800.0000 C 266.0000,798.0000 247.0000,772.0000 234.0000,751.0000 C 220.0000,730.0000 210.0000,710.0000 213.0000,693.0000 Z "  fill="#0000FF" stroke="none" />
</g>
<g transform="matrix(1.0000 0.0000 0.0000 1.0000 0.0000 0.0000)">
</g>
</g>
</svg>
