<?xml version="1.0"  encoding="UTF-8" standalone="no"?>
<svg version="1.1" xmlns="http://www.w3.org/2000/svg" xmlns:xlink="http://www.w3.org/1999/xlink" width="65.0000" height="68.0000">
<g transform="translate(-1.0000, -1.0000)">
<g transform="matrix(0.0625 0.0000 0.0000 0.0625 0.0000 0.0000)">
<path d="M 341.0000,122.0000 L 316.0000,131.0000 L 35.0000,397.0000 L 24.0000,422.0000 L 24.0000,787.0000 L 40.0000,825.0000 L 312.0000,1084.0000 L 340.0000,1096.0000 L 553.0000,1096.0000 C 512.0000,773.0000 493.0000,448.0000 489.0000,122.0000 L 341.0000,122.0000 Z "  fill="#DEDEDE" stroke="none" />
</g>
<g transform="matrix(1.0000 0.0000 0.0000 1.0000 0.0000 0.0000)">
</g>
<g transform="matrix(0.0625 0.0000 0.0000 0.0625 0.0000 0.0000)">
<path d="M 1039.0000,397.0000 L 762.0000,133.0000 L 733.0000,122.0000 L 489.0000,122.0000 C 493.0000,448.0000 512.0000,773.0000 553.0000,1096.0000 L 733.0000,1096.0000 L 760.0000,1085.0000 L 1032.0000,825.0000 L 1048.0000,791.0000 L 1048.0000,422.0000 L 1039.0000,397.0000 Z "  fill="#CFCFCF" stroke="none" />
</g>
<g transform="matrix(1.0000 0.0000 0.0000 1.0000 0.0000 0.0000)">
<path d="M 20.0000,9.0000 L 3.0000,25.0000 L 2.0000,27.0000 L 2.0000,50.0000 L 3.0000,52.0000 L 20.0000,68.0000 L 20.0000,68.0000 L 20.0000,9.0000 L 20.0000,9.0000 " fill="none" stroke="none" />
<defs><clipPath id="clip-16807"><path d="M 20.0000,9.0000 L 3.0000,25.0000 L 2.0000,27.0000 L 2.0000,50.0000 L 3.0000,52.0000 L 20.0000,68.0000 L 20.0000,68.0000 L 20.0000,9.0000 L 20.0000,9.0000 Z" /></clipPath></defs>
<path  clip-path="url(#clip-16807)" d="M 0.0000,7.0000 L 0.0000,69.0000 L 1.0000,69.0000 L 1.0000,7.0000 L 0.0000,7.0000 Z" stroke-width="1px" stroke="#C9C9C9"  fill="#C9C9C9" />
<path  clip-path="url(#clip-16807)" d="M 1.0000,7.0000 L 1.0000,69.0000 L 2.0000,69.0000 L 2.0000,7.0000 L 1.0000,7.0000 Z" stroke-width="1px" stroke="#D4D4D4"  fill="#D4D4D4" />
<path  clip-path="url(#clip-16807)" d="M 2.0000,7.0000 L 2.0000,69.0000 L 4.0000,69.0000 L 4.0000,7.0000 L 2.0000,7.0000 Z" stroke-width="1px" stroke="#D3D3D3"  fill="#D3D3D3" />
<path  clip-path="url(#clip-16807)" d="M 4.0000,7.0000 L 4.0000,69.0000 L 5.0000,69.0000 L 5.0000,7.0000 L 4.0000,7.0000 Z" stroke-width="1px" stroke="#D2D2D2"  fill="#D2D2D2" />
<path  clip-path="url(#clip-16807)" d="M 5.0000,7.0000 L 5.0000,69.0000 L 8.0000,69.0000 L 8.0000,7.0000 L 5.0000,7.0000 Z" stroke-width="1px" stroke="#D1D1D1"  fill="#D1D1D1" />
<path  clip-path="url(#clip-16807)" d="M 8.0000,7.0000 L 8.0000,69.0000 L 9.0000,69.0000 L 9.0000,7.0000 L 8.0000,7.0000 Z" stroke-width="1px" stroke="#D0D0D0"  fill="#D0D0D0" />
<path  clip-path="url(#clip-16807)" d="M 9.0000,7.0000 L 9.0000,69.0000 L 12.0000,69.0000 L 12.0000,7.0000 L 9.0000,7.0000 Z" stroke-width="1px" stroke="#CFCFCF"  fill="#CFCFCF" />
<path  clip-path="url(#clip-16807)" d="M 12.0000,7.0000 L 12.0000,69.0000 L 13.0000,69.0000 L 13.0000,7.0000 L 12.0000,7.0000 Z" stroke-width="1px" stroke="#CECECE"  fill="#CECECE" />
<path  clip-path="url(#clip-16807)" d="M 13.0000,7.0000 L 13.0000,69.0000 L 14.0000,69.0000 L 14.0000,7.0000 L 13.0000,7.0000 Z" stroke-width="1px" stroke="#CDCDCD"  fill="#CDCDCD" />
<path  clip-path="url(#clip-16807)" d="M 14.0000,7.0000 L 14.0000,69.0000 L 17.0000,69.0000 L 17.0000,7.0000 L 14.0000,7.0000 Z" stroke-width="1px" stroke="#CCCCCC"  fill="#CCCCCC" />
<path  clip-path="url(#clip-16807)" d="M 17.0000,7.0000 L 17.0000,69.0000 L 18.0000,69.0000 L 18.0000,7.0000 L 17.0000,7.0000 Z" stroke-width="1px" stroke="#CBCBCB"  fill="#CBCBCB" />
<path  clip-path="url(#clip-16807)" d="M 18.0000,7.0000 L 18.0000,69.0000 L 21.0000,69.0000 L 21.0000,7.0000 L 18.0000,7.0000 Z" stroke-width="1px" stroke="#CACACA"  fill="#CACACA" />
<path d="M 65.0000,25.0000 L 48.0000,9.0000 L 47.0000,9.0000 L 47.0000,68.0000 L 48.0000,68.0000 L 65.0000,52.0000 L 66.0000,50.0000 L 66.0000,27.0000 L 65.0000,25.0000 " fill="none" stroke="none" />
<defs><clipPath id="clip-282475249"><path d="M 65.0000,25.0000 L 48.0000,9.0000 L 47.0000,9.0000 L 47.0000,68.0000 L 48.0000,68.0000 L 65.0000,52.0000 L 66.0000,50.0000 L 66.0000,27.0000 L 65.0000,25.0000 Z" /></clipPath></defs>
<path  clip-path="url(#clip-282475249)" d="M 46.0000,7.0000 L 46.0000,69.0000 L 47.0000,69.0000 L 47.0000,7.0000 L 46.0000,7.0000 Z" stroke-width="1px" stroke="#A3A3A3"  fill="#A3A3A3" />
<path  clip-path="url(#clip-282475249)" d="M 47.0000,7.0000 L 47.0000,69.0000 L 48.0000,69.0000 L 48.0000,7.0000 L 47.0000,7.0000 Z" stroke-width="1px" stroke="#A4A4A4"  fill="#A4A4A4" />
<path  clip-path="url(#clip-282475249)" d="M 48.0000,7.0000 L 48.0000,69.0000 L 50.0000,69.0000 L 50.0000,7.0000 L 48.0000,7.0000 Z" stroke-width="1px" stroke="#A5A5A5"  fill="#A5A5A5" />
<path  clip-path="url(#clip-282475249)" d="M 50.0000,7.0000 L 50.0000,69.0000 L 51.0000,69.0000 L 51.0000,7.0000 L 50.0000,7.0000 Z" stroke-width="1px" stroke="#A6A6A6"  fill="#A6A6A6" />
<path  clip-path="url(#clip-282475249)" d="M 51.0000,7.0000 L 51.0000,69.0000 L 52.0000,69.0000 L 52.0000,7.0000 L 51.0000,7.0000 Z" stroke-width="1px" stroke="#A7A7A7"  fill="#A7A7A7" />
<path  clip-path="url(#clip-282475249)" d="M 52.0000,7.0000 L 52.0000,69.0000 L 54.0000,69.0000 L 54.0000,7.0000 L 52.0000,7.0000 Z" stroke-width="1px" stroke="#A8A8A8"  fill="#A8A8A8" />
<path  clip-path="url(#clip-282475249)" d="M 54.0000,7.0000 L 54.0000,69.0000 L 55.0000,69.0000 L 55.0000,7.0000 L 54.0000,7.0000 Z" stroke-width="1px" stroke="#A9A9A9"  fill="#A9A9A9" />
<path  clip-path="url(#clip-282475249)" d="M 55.0000,7.0000 L 55.0000,69.0000 L 56.0000,69.0000 L 56.0000,7.0000 L 55.0000,7.0000 Z" stroke-width="1px" stroke="#AAAAAA"  fill="#AAAAAA" />
<path  clip-path="url(#clip-282475249)" d="M 56.0000,7.0000 L 56.0000,69.0000 L 59.0000,69.0000 L 59.0000,7.0000 L 56.0000,7.0000 Z" stroke-width="1px" stroke="#ABABAB"  fill="#ABABAB" />
<path  clip-path="url(#clip-282475249)" d="M 59.0000,7.0000 L 59.0000,69.0000 L 60.0000,69.0000 L 60.0000,7.0000 L 59.0000,7.0000 Z" stroke-width="1px" stroke="#ACACAC"  fill="#ACACAC" />
<path  clip-path="url(#clip-282475249)" d="M 60.0000,7.0000 L 60.0000,69.0000 L 61.0000,69.0000 L 61.0000,7.0000 L 60.0000,7.0000 Z" stroke-width="1px" stroke="#ADADAD"  fill="#ADADAD" />
<path  clip-path="url(#clip-282475249)" d="M 61.0000,7.0000 L 61.0000,69.0000 L 62.0000,69.0000 L 62.0000,7.0000 L 61.0000,7.0000 Z" stroke-width="1px" stroke="#AEAEAE"  fill="#AEAEAE" />
<path  clip-path="url(#clip-282475249)" d="M 62.0000,7.0000 L 62.0000,69.0000 L 64.0000,69.0000 L 64.0000,7.0000 L 62.0000,7.0000 Z" stroke-width="1px" stroke="#AFAFAF"  fill="#AFAFAF" />
<path  clip-path="url(#clip-282475249)" d="M 64.0000,7.0000 L 64.0000,69.0000 L 65.0000,69.0000 L 65.0000,7.0000 L 64.0000,7.0000 Z" stroke-width="1px" stroke="#B0B0B0"  fill="#B0B0B0" />
<path  clip-path="url(#clip-282475249)" d="M 65.0000,7.0000 L 65.0000,69.0000 L 66.0000,69.0000 L 66.0000,7.0000 L 65.0000,7.0000 Z" stroke-width="1px" stroke="#B1B1B1"  fill="#B1B1B1" />
<path  clip-path="url(#clip-282475249)" d="M 66.0000,7.0000 L 66.0000,69.0000 L 67.0000,69.0000 L 67.0000,7.0000 L 66.0000,7.0000 Z" stroke-width="1px" stroke="#B2B2B2"  fill="#B2B2B2" />
<defs><clipPath id="clip-1622650073"><path d="M 21.0000,8.0000 L 47.0000,8.0000 L 47.0000,69.0000 L 21.0000,69.0000 L 21.0000,8.0000 Z Z" /></clipPath></defs>
<path  clip-path="url(#clip-1622650073)" d="M 19.0000,6.0000 L 19.0000,69.0000 L 20.0000,69.0000 L 20.0000,6.0000 L 19.0000,6.0000 Z" stroke-width="1px" stroke="#BDBDBD"  fill="#BDBDBD" />
<path  clip-path="url(#clip-1622650073)" d="M 20.0000,6.0000 L 20.0000,69.0000 L 21.0000,69.0000 L 21.0000,6.0000 L 20.0000,6.0000 Z" stroke-width="1px" stroke="#ADADAD"  fill="#ADADAD" />
<path  clip-path="url(#clip-1622650073)" d="M 21.0000,6.0000 L 21.0000,69.0000 L 23.0000,69.0000 L 23.0000,6.0000 L 21.0000,6.0000 Z" stroke-width="1px" stroke="#AEAEAE"  fill="#AEAEAE" />
<path  clip-path="url(#clip-1622650073)" d="M 23.0000,6.0000 L 23.0000,69.0000 L 24.0000,69.0000 L 24.0000,6.0000 L 23.0000,6.0000 Z" stroke-width="1px" stroke="#AFAFAF"  fill="#AFAFAF" />
<path  clip-path="url(#clip-1622650073)" d="M 24.0000,6.0000 L 24.0000,69.0000 L 26.0000,69.0000 L 26.0000,6.0000 L 24.0000,6.0000 Z" stroke-width="1px" stroke="#B0B0B0"  fill="#B0B0B0" />
<path  clip-path="url(#clip-1622650073)" d="M 26.0000,6.0000 L 26.0000,69.0000 L 28.0000,69.0000 L 28.0000,6.0000 L 26.0000,6.0000 Z" stroke-width="1px" stroke="#B1B1B1"  fill="#B1B1B1" />
<path  clip-path="url(#clip-1622650073)" d="M 28.0000,6.0000 L 28.0000,69.0000 L 30.0000,69.0000 L 30.0000,6.0000 L 28.0000,6.0000 Z" stroke-width="1px" stroke="#B2B2B2"  fill="#B2B2B2" />
<path  clip-path="url(#clip-1622650073)" d="M 30.0000,6.0000 L 30.0000,69.0000 L 31.0000,69.0000 L 31.0000,6.0000 L 30.0000,6.0000 Z" stroke-width="1px" stroke="#B3B3B3"  fill="#B3B3B3" />
<path  clip-path="url(#clip-1622650073)" d="M 31.0000,6.0000 L 31.0000,69.0000 L 33.0000,69.0000 L 33.0000,6.0000 L 31.0000,6.0000 Z" stroke-width="1px" stroke="#B4B4B4"  fill="#B4B4B4" />
<path  clip-path="url(#clip-1622650073)" d="M 33.0000,6.0000 L 33.0000,69.0000 L 35.0000,69.0000 L 35.0000,6.0000 L 33.0000,6.0000 Z" stroke-width="1px" stroke="#B5B5B5"  fill="#B5B5B5" />
<path  clip-path="url(#clip-1622650073)" d="M 35.0000,6.0000 L 35.0000,69.0000 L 37.0000,69.0000 L 37.0000,6.0000 L 35.0000,6.0000 Z" stroke-width="1px" stroke="#B6B6B6"  fill="#B6B6B6" />
<path  clip-path="url(#clip-1622650073)" d="M 37.0000,6.0000 L 37.0000,69.0000 L 38.0000,69.0000 L 38.0000,6.0000 L 37.0000,6.0000 Z" stroke-width="1px" stroke="#B7B7B7"  fill="#B7B7B7" />
<path  clip-path="url(#clip-1622650073)" d="M 38.0000,6.0000 L 38.0000,69.0000 L 40.0000,69.0000 L 40.0000,6.0000 L 38.0000,6.0000 Z" stroke-width="1px" stroke="#B8B8B8"  fill="#B8B8B8" />
<path  clip-path="url(#clip-1622650073)" d="M 40.0000,6.0000 L 40.0000,69.0000 L 42.0000,69.0000 L 42.0000,6.0000 L 40.0000,6.0000 Z" stroke-width="1px" stroke="#B9B9B9"  fill="#B9B9B9" />
<path  clip-path="url(#clip-1622650073)" d="M 42.0000,6.0000 L 42.0000,69.0000 L 44.0000,69.0000 L 44.0000,6.0000 L 42.0000,6.0000 Z" stroke-width="1px" stroke="#BABABA"  fill="#BABABA" />
<path  clip-path="url(#clip-1622650073)" d="M 44.0000,6.0000 L 44.0000,69.0000 L 45.0000,69.0000 L 45.0000,6.0000 L 44.0000,6.0000 Z" stroke-width="1px" stroke="#BBBBBB"  fill="#BBBBBB" />
<path  clip-path="url(#clip-1622650073)" d="M 45.0000,6.0000 L 45.0000,69.0000 L 47.0000,69.0000 L 47.0000,6.0000 L 45.0000,6.0000 Z" stroke-width="1px" stroke="#BCBCBC"  fill="#BCBCBC" />
</g>
<g transform="matrix(0.0625 0.0000 0.0000 0.0625 0.0000 0.0000)">
<path d="M 726.0000,105.0000 L 960.0000,327.0000 L 967.0000,348.0000 L 967.0000,660.0000 L 954.0000,688.0000 L 724.0000,906.0000 L 702.0000,915.0000 L 371.0000,915.0000 L 348.0000,906.0000 L 119.0000,688.0000 L 106.0000,655.0000 L 106.0000,349.0000 L 114.0000,327.0000 L 351.0000,103.0000 L 372.0000,96.0000 L 702.0000,96.0000 L 726.0000,105.0000 Z" stroke-width="1px" stroke="#FF0000"  fill="#FF0000" />
</g>
<g transform="matrix(1.0000 0.0000 0.0000 1.0000 0.0000 0.0000)">
</g>
<g transform="matrix(0.0625 0.0000 0.0000 0.0625 0.0000 0.0000)">
<path d="M 504.0000,787.0000 C 504.0000,785.0000 504.0000,779.0000 504.0000,776.0000 C 468.0000,776.0000 427.0000,782.0000 418.0000,784.0000 C 385.0000,791.0000 366.0000,803.0000 343.0000,796.0000 C 321.0000,790.0000 302.0000,759.0000 293.0000,745.0000 C 292.0000,743.0000 291.0000,742.0000 290.0000,740.0000 C 288.0000,745.0000 288.0000,755.0000 293.0000,762.0000 C 302.0000,776.0000 321.0000,807.0000 343.0000,814.0000 C 366.0000,820.0000 385.0000,809.0000 418.0000,801.0000 C 427.0000,799.0000 468.0000,793.0000 504.0000,793.0000 C 504.0000,796.0000 504.0000,798.0000 504.0000,799.0000 C 504.0000,801.0000 504.0000,802.0000 504.0000,804.0000 C 504.0000,798.0000 504.0000,792.0000 504.0000,787.0000 "  fill="#000000" stroke="none" />
</g>
<g transform="matrix(1.0000 0.0000 0.0000 1.0000 0.0000 0.0000)">
</g>
<g transform="matrix(0.0625 0.0000 0.0000 0.0625 0.0000 0.0000)">
<path d="M 846.0000,343.0000 C 828.0000,343.0000 762.0000,339.0000 670.0000,339.0000 C 646.0000,339.0000 617.0000,339.0000 586.0000,340.0000 C 586.0000,344.0000 586.0000,353.0000 586.0000,358.0000 C 601.0000,378.0000 642.0000,375.0000 665.0000,375.0000 C 757.0000,375.0000 843.0000,369.0000 861.0000,369.0000 C 872.0000,369.0000 863.0000,349.0000 858.0000,339.0000 C 855.0000,342.0000 851.0000,343.0000 846.0000,343.0000 "  fill="#000000" stroke="none" />
</g>
<g transform="matrix(1.0000 0.0000 0.0000 1.0000 0.0000 0.0000)">
</g>
<g transform="matrix(0.0625 0.0000 0.0000 0.0625 0.0000 0.0000)">
<path d="M 714.0000,779.0000 C 689.0000,773.0000 673.0000,774.0000 651.0000,774.0000 C 643.0000,774.0000 617.0000,774.0000 586.0000,774.0000 C 586.0000,779.0000 586.0000,800.0000 586.0000,804.0000 C 617.0000,804.0000 643.0000,804.0000 651.0000,804.0000 C 673.0000,804.0000 704.0000,805.0000 729.0000,811.0000 C 749.0000,816.0000 769.0000,791.0000 752.0000,776.0000 C 751.0000,776.0000 751.0000,774.0000 751.0000,774.0000 C 746.0000,782.0000 729.0000,783.0000 714.0000,779.0000 "  fill="#000000" stroke="none" />
</g>
<g transform="matrix(1.0000 0.0000 0.0000 1.0000 0.0000 0.0000)">
</g>
<g transform="matrix(0.0625 0.0000 0.0000 0.0625 0.0000 0.0000)">
<path d="M 785.0000,654.0000 C 771.0000,658.0000 758.0000,657.0000 712.0000,655.0000 C 669.0000,653.0000 630.0000,662.0000 586.0000,663.0000 C 586.0000,666.0000 586.0000,682.0000 586.0000,687.0000 C 630.0000,686.0000 666.0000,684.0000 709.0000,686.0000 C 755.0000,688.0000 788.0000,683.0000 802.0000,678.0000 C 812.0000,675.0000 799.0000,652.0000 797.0000,638.0000 C 796.0000,646.0000 792.0000,651.0000 785.0000,654.0000 "  fill="#000000" stroke="none" />
</g>
<g transform="matrix(1.0000 0.0000 0.0000 1.0000 0.0000 0.0000)">
</g>
<g transform="matrix(0.0625 0.0000 0.0000 0.0625 0.0000 0.0000)">
<path d="M 703.0000,606.0000 L 682.0000,555.0000 C 682.0000,555.0000 634.0000,556.0000 586.0000,558.0000 C 586.0000,562.0000 586.0000,572.0000 586.0000,576.0000 C 616.0000,590.0000 667.0000,593.0000 667.0000,593.0000 L 702.0000,622.0000 L 703.0000,606.0000 Z "  fill="#000000" stroke="none" />
</g>
<g transform="matrix(1.0000 0.0000 0.0000 1.0000 0.0000 0.0000)">
</g>
<g transform="matrix(0.0625 0.0000 0.0000 0.0625 0.0000 0.0000)">
<path d="M 662.0000,515.0000 L 639.0000,491.0000 C 639.0000,491.0000 608.0000,488.0000 586.0000,476.0000 C 586.0000,472.0000 586.0000,463.0000 586.0000,458.0000 C 622.0000,458.0000 649.0000,457.0000 649.0000,457.0000 L 662.0000,497.0000 L 662.0000,515.0000 Z "  fill="#000000" stroke="none" />
</g>
<g transform="matrix(1.0000 0.0000 0.0000 1.0000 0.0000 0.0000)">
</g>
<g transform="matrix(0.0625 0.0000 0.0000 0.0625 0.0000 0.0000)">
<path d="M 562.0000,890.0000 C 528.0000,889.0000 498.0000,879.0000 489.0000,867.0000 C 488.0000,866.0000 488.0000,865.0000 488.0000,865.0000 C 486.0000,869.0000 472.0000,885.0000 476.0000,890.0000 C 486.0000,903.0000 528.0000,918.0000 561.0000,919.0000 C 592.0000,921.0000 618.0000,902.0000 597.0000,881.0000 C 593.0000,888.0000 582.0000,891.0000 562.0000,890.0000 "  fill="#000000" stroke="none" />
</g>
<g transform="matrix(1.0000 0.0000 0.0000 1.0000 0.0000 0.0000)">
</g>
<g transform="matrix(0.0625 0.0000 0.0000 0.0625 0.0000 0.0000)">
<path d="M 314.0000,679.0000 C 297.0000,676.0000 284.0000,654.0000 268.0000,633.0000 C 261.0000,623.0000 257.0000,613.0000 256.0000,603.0000 C 247.0000,612.0000 250.0000,642.0000 261.0000,656.0000 C 277.0000,677.0000 294.0000,701.0000 311.0000,704.0000 C 326.0000,707.0000 415.0000,689.0000 504.0000,695.0000 C 504.0000,690.0000 504.0000,674.0000 504.0000,670.0000 C 415.0000,664.0000 329.0000,682.0000 314.0000,679.0000 "  fill="#000000" stroke="none" />
</g>
<g transform="matrix(1.0000 0.0000 0.0000 1.0000 0.0000 0.0000)">
</g>
<g transform="matrix(0.0625 0.0000 0.0000 0.0625 0.0000 0.0000)">
<path d="M 367.0000,605.0000 C 371.0000,589.0000 376.0000,568.0000 379.0000,558.0000 C 383.0000,548.0000 393.0000,554.0000 406.0000,558.0000 C 425.0000,562.0000 452.0000,560.0000 490.0000,560.0000 C 493.0000,560.0000 498.0000,560.0000 504.0000,560.0000 C 504.0000,564.0000 504.0000,574.0000 504.0000,579.0000 C 496.0000,588.0000 490.0000,591.0000 486.0000,591.0000 C 448.0000,591.0000 423.0000,589.0000 404.0000,584.0000 C 390.0000,580.0000 388.0000,577.0000 384.0000,587.0000 C 381.0000,597.0000 369.0000,615.0000 367.0000,625.0000 L 367.0000,605.0000 L 367.0000,605.0000 Z "  fill="#000000" stroke="none" />
</g>
<g transform="matrix(1.0000 0.0000 0.0000 1.0000 0.0000 0.0000)">
</g>
<g transform="matrix(0.0625 0.0000 0.0000 0.0625 0.0000 0.0000)">
<path d="M 410.0000,345.0000 C 345.0000,347.0000 311.0000,353.0000 276.0000,359.0000 C 251.0000,364.0000 243.0000,359.0000 229.0000,343.0000 C 217.0000,330.0000 206.0000,310.0000 203.0000,295.0000 C 202.0000,297.0000 202.0000,304.0000 202.0000,306.0000 C 202.0000,321.0000 205.0000,351.0000 219.0000,367.0000 C 234.0000,383.0000 251.0000,397.0000 276.0000,392.0000 C 311.0000,386.0000 348.0000,383.0000 413.0000,381.0000 C 434.0000,381.0000 474.0000,375.0000 504.0000,361.0000 C 504.0000,355.0000 504.0000,345.0000 504.0000,342.0000 C 465.0000,343.0000 430.0000,345.0000 410.0000,345.0000 "  fill="#000000" stroke="none" />
</g>
<g transform="matrix(1.0000 0.0000 0.0000 1.0000 0.0000 0.0000)">
</g>
<g transform="matrix(0.0625 0.0000 0.0000 0.0625 0.0000 0.0000)">
<path d="M 391.0000,504.0000 C 394.0000,495.0000 406.0000,462.0000 406.0000,462.0000 C 430.0000,461.0000 467.0000,461.0000 504.0000,460.0000 C 504.0000,464.0000 504.0000,473.0000 504.0000,478.0000 C 459.0000,499.0000 451.0000,503.0000 427.0000,504.0000 C 427.0000,504.0000 405.0000,501.0000 401.0000,513.0000 C 401.0000,513.0000 393.0000,518.0000 393.0000,521.0000 C 393.0000,521.0000 390.0000,513.0000 391.0000,504.0000 "  fill="#000000" stroke="none" />
</g>
<g transform="matrix(1.0000 0.0000 0.0000 1.0000 0.0000 0.0000)">
<path d="M 35.0000,6.0000 L 2.0000,22.0000 L 2.0000,21.0000 L 3.0000,19.0000 L 20.0000,3.0000 L 22.0000,2.0000 L 46.0000,2.0000 L 48.0000,3.0000 L 65.0000,19.0000 L 66.0000,21.0000 L 66.0000,23.0000 L 35.0000,6.0000 " fill="none" stroke="none" />
<defs><clipPath id="clip-984943658"><path d="M 35.0000,6.0000 L 2.0000,22.0000 L 2.0000,21.0000 L 3.0000,19.0000 L 20.0000,3.0000 L 22.0000,2.0000 L 46.0000,2.0000 L 48.0000,3.0000 L 65.0000,19.0000 L 66.0000,21.0000 L 66.0000,23.0000 L 35.0000,6.0000 Z" /></clipPath></defs>
<path  clip-path="url(#clip-984943658)" d="M 0.0000,0.0000 L 0.0000,23.0000 L 1.0000,23.0000 L 1.0000,0.0000 L 0.0000,0.0000 Z" stroke-width="1px" stroke="#E3E3E3"  fill="#E3E3E3" />
<path  clip-path="url(#clip-984943658)" d="M 1.0000,0.0000 L 1.0000,23.0000 L 3.0000,23.0000 L 3.0000,0.0000 L 1.0000,0.0000 Z" stroke-width="1px" stroke="#D4D4D4"  fill="#D4D4D4" />
<path  clip-path="url(#clip-984943658)" d="M 3.0000,0.0000 L 3.0000,23.0000 L 7.0000,23.0000 L 7.0000,0.0000 L 3.0000,0.0000 Z" stroke-width="1px" stroke="#D5D5D5"  fill="#D5D5D5" />
<path  clip-path="url(#clip-984943658)" d="M 7.0000,0.0000 L 7.0000,23.0000 L 11.0000,23.0000 L 11.0000,0.0000 L 7.0000,0.0000 Z" stroke-width="1px" stroke="#D6D6D6"  fill="#D6D6D6" />
<path  clip-path="url(#clip-984943658)" d="M 11.0000,0.0000 L 11.0000,23.0000 L 15.0000,23.0000 L 15.0000,0.0000 L 11.0000,0.0000 Z" stroke-width="1px" stroke="#D7D7D7"  fill="#D7D7D7" />
<path  clip-path="url(#clip-984943658)" d="M 15.0000,0.0000 L 15.0000,23.0000 L 20.0000,23.0000 L 20.0000,0.0000 L 15.0000,0.0000 Z" stroke-width="1px" stroke="#D8D8D8"  fill="#D8D8D8" />
<path  clip-path="url(#clip-984943658)" d="M 20.0000,0.0000 L 20.0000,23.0000 L 24.0000,23.0000 L 24.0000,0.0000 L 20.0000,0.0000 Z" stroke-width="1px" stroke="#D9D9D9"  fill="#D9D9D9" />
<path  clip-path="url(#clip-984943658)" d="M 24.0000,0.0000 L 24.0000,23.0000 L 28.0000,23.0000 L 28.0000,0.0000 L 24.0000,0.0000 Z" stroke-width="1px" stroke="#DADADA"  fill="#DADADA" />
<path  clip-path="url(#clip-984943658)" d="M 28.0000,0.0000 L 28.0000,23.0000 L 32.0000,23.0000 L 32.0000,0.0000 L 28.0000,0.0000 Z" stroke-width="1px" stroke="#DBDBDB"  fill="#DBDBDB" />
<path  clip-path="url(#clip-984943658)" d="M 32.0000,0.0000 L 32.0000,23.0000 L 40.0000,23.0000 L 40.0000,0.0000 L 32.0000,0.0000 Z" stroke-width="1px" stroke="#DCDCDC"  fill="#DCDCDC" />
<path  clip-path="url(#clip-984943658)" d="M 40.0000,0.0000 L 40.0000,23.0000 L 44.0000,23.0000 L 44.0000,0.0000 L 40.0000,0.0000 Z" stroke-width="1px" stroke="#DDDDDD"  fill="#DDDDDD" />
<path  clip-path="url(#clip-984943658)" d="M 44.0000,0.0000 L 44.0000,23.0000 L 48.0000,23.0000 L 48.0000,0.0000 L 44.0000,0.0000 Z" stroke-width="1px" stroke="#DEDEDE"  fill="#DEDEDE" />
<path  clip-path="url(#clip-984943658)" d="M 48.0000,0.0000 L 48.0000,23.0000 L 53.0000,23.0000 L 53.0000,0.0000 L 48.0000,0.0000 Z" stroke-width="1px" stroke="#DFDFDF"  fill="#DFDFDF" />
<path  clip-path="url(#clip-984943658)" d="M 53.0000,0.0000 L 53.0000,23.0000 L 57.0000,23.0000 L 57.0000,0.0000 L 53.0000,0.0000 Z" stroke-width="1px" stroke="#E0E0E0"  fill="#E0E0E0" />
<path  clip-path="url(#clip-984943658)" d="M 57.0000,0.0000 L 57.0000,23.0000 L 61.0000,23.0000 L 61.0000,0.0000 L 57.0000,0.0000 Z" stroke-width="1px" stroke="#E1E1E1"  fill="#E1E1E1" />
<path  clip-path="url(#clip-984943658)" d="M 61.0000,0.0000 L 61.0000,23.0000 L 65.0000,23.0000 L 65.0000,0.0000 L 61.0000,0.0000 Z" stroke-width="1px" stroke="#E2E2E2"  fill="#E2E2E2" />
<path  clip-path="url(#clip-984943658)" d="M 65.0000,0.0000 L 65.0000,23.0000 L 66.0000,23.0000 L 66.0000,0.0000 L 65.0000,0.0000 Z" stroke-width="1px" stroke="#E3E3E3"  fill="#E3E3E3" />
</g>
<g transform="matrix(0.0625 0.0000 0.0000 0.0625 0.0000 0.0000)">
<path d="M 393.0000,521.0000 C 395.0000,525.0000 444.0000,521.0000 498.0000,519.0000 C 500.0000,519.0000 502.0000,519.0000 504.0000,519.0000 C 504.0000,505.0000 504.0000,491.0000 504.0000,478.0000 C 467.0000,478.0000 430.0000,479.0000 406.0000,480.0000 C 406.0000,480.0000 391.0000,517.0000 393.0000,521.0000 "  fill="#FFFFFF" stroke="none" />
</g>
<g transform="matrix(1.0000 0.0000 0.0000 1.0000 0.0000 0.0000)">
</g>
<g transform="matrix(0.0625 0.0000 0.0000 0.0625 0.0000 0.0000)">
<path d="M 649.0000,475.0000 C 649.0000,475.0000 622.0000,475.0000 586.0000,476.0000 C 586.0000,490.0000 586.0000,504.0000 586.0000,517.0000 C 611.0000,517.0000 637.0000,516.0000 662.0000,515.0000 L 649.0000,475.0000 Z "  fill="#FFFFFF" stroke="none" />
</g>
<g transform="matrix(1.0000 0.0000 0.0000 1.0000 0.0000 0.0000)">
</g>
<g transform="matrix(0.0625 0.0000 0.0000 0.0625 0.0000 0.0000)">
<path d="M 406.0000,576.0000 C 393.0000,573.0000 383.0000,566.0000 379.0000,576.0000 C 373.0000,594.0000 367.0000,625.0000 367.0000,625.0000 C 367.0000,625.0000 430.0000,625.0000 504.0000,625.0000 C 504.0000,610.0000 504.0000,594.0000 504.0000,578.0000 C 498.0000,579.0000 493.0000,579.0000 490.0000,579.0000 C 452.0000,579.0000 425.0000,581.0000 406.0000,576.0000 "  fill="#FFFFFF" stroke="none" />
</g>
<g transform="matrix(1.0000 0.0000 0.0000 1.0000 0.0000 0.0000)">
</g>
<g transform="matrix(0.0625 0.0000 0.0000 0.0625 0.0000 0.0000)">
<path d="M 682.0000,573.0000 C 682.0000,573.0000 634.0000,575.0000 586.0000,576.0000 C 586.0000,593.0000 586.0000,609.0000 586.0000,625.0000 C 654.0000,625.0000 702.0000,622.0000 702.0000,622.0000 L 682.0000,573.0000 Z "  fill="#FFFFFF" stroke="none" />
</g>
<g transform="matrix(1.0000 0.0000 0.0000 1.0000 0.0000 0.0000)">
</g>
<g transform="matrix(0.0625 0.0000 0.0000 0.0625 0.0000 0.0000)">
<path d="M 33.0000,723.0000 L 311.0000,987.0000 L 340.0000,998.0000 L 732.0000,998.0000 L 757.0000,989.0000 L 1038.0000,723.0000 L 1048.0000,698.0000 L 1048.0000,348.0000 L 1033.0000,310.0000 L 760.0000,51.0000 L 733.0000,39.0000 L 340.0000,39.0000 L 313.0000,50.0000 L 40.0000,309.0000 L 24.0000,343.0000 L 24.0000,698.0000 L 33.0000,723.0000 Z M 222.0000,295.0000 C 235.0000,295.0000 310.0000,300.0000 403.0000,302.0000 C 432.0000,302.0000 468.0000,302.0000 505.0000,302.0000 C 508.0000,251.0000 507.0000,199.0000 516.0000,174.0000 C 534.0000,128.0000 549.0000,115.0000 565.0000,115.0000 C 579.0000,115.0000 585.0000,162.0000 585.0000,197.0000 C 585.0000,205.0000 586.0000,241.0000 586.0000,294.0000 C 623.0000,293.0000 658.0000,292.0000 681.0000,290.0000 C 724.0000,288.0000 743.0000,283.0000 765.0000,278.0000 C 779.0000,275.0000 792.0000,279.0000 803.0000,287.0000 C 814.0000,295.0000 838.0000,322.0000 852.0000,336.0000 C 866.0000,351.0000 860.0000,362.0000 846.0000,362.0000 C 828.0000,362.0000 762.0000,357.0000 670.0000,357.0000 C 646.0000,357.0000 617.0000,358.0000 586.0000,358.0000 C 586.0000,375.0000 586.0000,407.0000 586.0000,424.0000 C 603.0000,424.0000 615.0000,424.0000 619.0000,424.0000 C 635.0000,424.0000 646.0000,418.0000 659.0000,415.0000 C 671.0000,411.0000 687.0000,416.0000 695.0000,435.0000 C 703.0000,454.0000 769.0000,584.0000 785.0000,611.0000 C 801.0000,638.0000 802.0000,666.0000 785.0000,672.0000 C 771.0000,677.0000 758.0000,675.0000 712.0000,673.0000 C 669.0000,672.0000 630.0000,680.0000 586.0000,681.0000 C 586.0000,696.0000 586.0000,722.0000 586.0000,734.0000 C 614.0000,734.0000 636.0000,734.0000 643.0000,734.0000 C 666.0000,734.0000 682.0000,717.0000 698.0000,725.0000 C 715.0000,733.0000 747.0000,766.0000 752.0000,782.0000 C 757.0000,799.0000 734.0000,803.0000 714.0000,798.0000 C 689.0000,792.0000 673.0000,793.0000 651.0000,793.0000 C 643.0000,793.0000 617.0000,793.0000 586.0000,793.0000 C 586.0000,809.0000 586.0000,820.0000 586.0000,822.0000 C 586.0000,839.0000 587.0000,862.0000 595.0000,881.0000 C 603.0000,900.0000 595.0000,910.0000 562.0000,908.0000 C 528.0000,907.0000 498.0000,897.0000 489.0000,885.0000 C 479.0000,872.0000 497.0000,859.0000 497.0000,859.0000 C 505.0000,848.0000 504.0000,819.0000 504.0000,799.0000 C 504.0000,798.0000 504.0000,796.0000 504.0000,793.0000 C 468.0000,793.0000 427.0000,799.0000 418.0000,801.0000 C 385.0000,809.0000 366.0000,820.0000 343.0000,814.0000 C 321.0000,807.0000 302.0000,776.0000 293.0000,762.0000 C 284.0000,749.0000 290.0000,740.0000 305.0000,737.0000 C 321.0000,733.0000 364.0000,734.0000 386.0000,734.0000 C 395.0000,734.0000 448.0000,734.0000 504.0000,734.0000 C 504.0000,722.0000 504.0000,702.0000 504.0000,688.0000 C 415.0000,683.0000 329.0000,700.0000 314.0000,698.0000 C 297.0000,694.0000 284.0000,672.0000 268.0000,652.0000 C 253.0000,631.0000 252.0000,610.0000 260.0000,589.0000 C 268.0000,568.0000 319.0000,503.0000 337.0000,470.0000 C 354.0000,437.0000 365.0000,416.0000 386.0000,414.0000 C 406.0000,413.0000 411.0000,420.0000 430.0000,420.0000 C 438.0000,420.0000 469.0000,424.0000 504.0000,424.0000 C 504.0000,401.0000 504.0000,369.0000 504.0000,361.0000 C 465.0000,362.0000 430.0000,363.0000 409.0000,363.0000 C 344.0000,365.0000 311.0000,371.0000 276.0000,378.0000 C 251.0000,382.0000 243.0000,378.0000 229.0000,362.0000 C 214.0000,346.0000 202.0000,321.0000 202.0000,306.0000 C 202.0000,292.0000 210.0000,295.0000 222.0000,295.0000 Z "  fill="#FFFFFF" stroke="none" />
</g>
<g transform="matrix(1.0000 0.0000 0.0000 1.0000 0.0000 0.0000)">
</g>
</g>
</svg>
