<?xml version="1.0"  encoding="UTF-8" standalone="no"?>
<svg version="1.1" xmlns="http://www.w3.org/2000/svg" xmlns:xlink="http://www.w3.org/1999/xlink" width="65.0000" height="68.0000">
<g transform="translate(-1.0000, -1.0000)">
<g transform="matrix(0.0625 0.0000 0.0000 0.0625 0.0000 0.0000)">
<path d="M 341.0000,122.0000 L 316.0000,131.0000 L 35.0000,397.0000 L 24.0000,422.0000 L 24.0000,787.0000 L 40.0000,825.0000 L 312.0000,1084.0000 L 340.0000,1096.0000 L 553.0000,1096.0000 C 512.0000,773.0000 493.0000,448.0000 489.0000,122.0000 L 341.0000,122.0000 L 341.0000,122.0000 Z "  fill="#D40000" stroke="none" />
</g>
<g transform="matrix(1.0000 0.0000 0.0000 1.0000 0.0000 0.0000)">
</g>
<g transform="matrix(0.0625 0.0000 0.0000 0.0625 0.0000 0.0000)">
<path d="M 1039.0000,397.0000 L 762.0000,133.0000 L 733.0000,122.0000 L 489.0000,122.0000 C 493.0000,448.0000 512.0000,773.0000 553.0000,1096.0000 L 733.0000,1096.0000 L 760.0000,1085.0000 L 1032.0000,826.0000 L 1048.0000,792.0000 L 1048.0000,422.0000 L 1039.0000,397.0000 Z "  fill="#D40000" stroke="none" />
</g>
<g transform="matrix(1.0000 0.0000 0.0000 1.0000 0.0000 0.0000)">
<path d="M 20.0000,9.0000 L 3.0000,25.0000 L 2.0000,27.0000 L 2.0000,50.0000 L 3.0000,52.0000 L 20.0000,68.0000 L 20.0000,68.0000 L 20.0000,9.0000 L 20.0000,9.0000 " fill="none" stroke="none" />
<defs><clipPath id="clip-16807"><path d="M 20.0000,9.0000 L 3.0000,25.0000 L 2.0000,27.0000 L 2.0000,50.0000 L 3.0000,52.0000 L 20.0000,68.0000 L 20.0000,68.0000 L 20.0000,9.0000 L 20.0000,9.0000 Z" /></clipPath></defs>
<path  clip-path="url(#clip-16807)" d="M 0.0000,7.0000 L 0.0000,69.0000 L 1.0000,69.0000 L 1.0000,7.0000 L 0.0000,7.0000 Z" stroke-width="1px" stroke="#B40A0D"  fill="#B40A0D" />
<path  clip-path="url(#clip-16807)" d="M 1.0000,7.0000 L 1.0000,69.0000 L 2.0000,69.0000 L 2.0000,7.0000 L 1.0000,7.0000 Z" stroke-width="1px" stroke="#DB1412"  fill="#DB1412" />
<path  clip-path="url(#clip-16807)" d="M 2.0000,7.0000 L 2.0000,69.0000 L 3.0000,69.0000 L 3.0000,7.0000 L 2.0000,7.0000 Z" stroke-width="1px" stroke="#D91312"  fill="#D91312" />
<path  clip-path="url(#clip-16807)" d="M 3.0000,7.0000 L 3.0000,69.0000 L 4.0000,69.0000 L 4.0000,7.0000 L 3.0000,7.0000 Z" stroke-width="1px" stroke="#D71311"  fill="#D71311" />
<path  clip-path="url(#clip-16807)" d="M 4.0000,7.0000 L 4.0000,69.0000 L 5.0000,69.0000 L 5.0000,7.0000 L 4.0000,7.0000 Z" stroke-width="1px" stroke="#D51211"  fill="#D51211" />
<path  clip-path="url(#clip-16807)" d="M 5.0000,7.0000 L 5.0000,69.0000 L 6.0000,69.0000 L 6.0000,7.0000 L 5.0000,7.0000 Z" stroke-width="1px" stroke="#D31211"  fill="#D31211" />
<path  clip-path="url(#clip-16807)" d="M 6.0000,7.0000 L 6.0000,69.0000 L 7.0000,69.0000 L 7.0000,7.0000 L 6.0000,7.0000 Z" stroke-width="1px" stroke="#D11211"  fill="#D11211" />
<path  clip-path="url(#clip-16807)" d="M 7.0000,7.0000 L 7.0000,69.0000 L 8.0000,69.0000 L 8.0000,7.0000 L 7.0000,7.0000 Z" stroke-width="1px" stroke="#CF1110"  fill="#CF1110" />
<path  clip-path="url(#clip-16807)" d="M 8.0000,7.0000 L 8.0000,69.0000 L 9.0000,69.0000 L 9.0000,7.0000 L 8.0000,7.0000 Z" stroke-width="1px" stroke="#CD1010"  fill="#CD1010" />
<path  clip-path="url(#clip-16807)" d="M 9.0000,7.0000 L 9.0000,69.0000 L 10.0000,69.0000 L 10.0000,7.0000 L 9.0000,7.0000 Z" stroke-width="1px" stroke="#CB1010"  fill="#CB1010" />
<path  clip-path="url(#clip-16807)" d="M 10.0000,7.0000 L 10.0000,69.0000 L 11.0000,69.0000 L 11.0000,7.0000 L 10.0000,7.0000 Z" stroke-width="1px" stroke="#C91010"  fill="#C91010" />
<path  clip-path="url(#clip-16807)" d="M 11.0000,7.0000 L 11.0000,69.0000 L 12.0000,69.0000 L 12.0000,7.0000 L 11.0000,7.0000 Z" stroke-width="1px" stroke="#C70F10"  fill="#C70F10" />
<path  clip-path="url(#clip-16807)" d="M 12.0000,7.0000 L 12.0000,69.0000 L 13.0000,69.0000 L 13.0000,7.0000 L 12.0000,7.0000 Z" stroke-width="1px" stroke="#C50E0F"  fill="#C50E0F" />
<path  clip-path="url(#clip-16807)" d="M 13.0000,7.0000 L 13.0000,69.0000 L 14.0000,69.0000 L 14.0000,7.0000 L 13.0000,7.0000 Z" stroke-width="1px" stroke="#C30E0F"  fill="#C30E0F" />
<path  clip-path="url(#clip-16807)" d="M 14.0000,7.0000 L 14.0000,69.0000 L 15.0000,69.0000 L 15.0000,7.0000 L 14.0000,7.0000 Z" stroke-width="1px" stroke="#C10D0F"  fill="#C10D0F" />
<path  clip-path="url(#clip-16807)" d="M 15.0000,7.0000 L 15.0000,69.0000 L 16.0000,69.0000 L 16.0000,7.0000 L 15.0000,7.0000 Z" stroke-width="1px" stroke="#BF0D0F"  fill="#BF0D0F" />
<path  clip-path="url(#clip-16807)" d="M 16.0000,7.0000 L 16.0000,69.0000 L 17.0000,69.0000 L 17.0000,7.0000 L 16.0000,7.0000 Z" stroke-width="1px" stroke="#BD0D0E"  fill="#BD0D0E" />
<path  clip-path="url(#clip-16807)" d="M 17.0000,7.0000 L 17.0000,69.0000 L 18.0000,69.0000 L 18.0000,7.0000 L 17.0000,7.0000 Z" stroke-width="1px" stroke="#BB0C0E"  fill="#BB0C0E" />
<path  clip-path="url(#clip-16807)" d="M 18.0000,7.0000 L 18.0000,69.0000 L 19.0000,69.0000 L 19.0000,7.0000 L 18.0000,7.0000 Z" stroke-width="1px" stroke="#B90B0E"  fill="#B90B0E" />
<path  clip-path="url(#clip-16807)" d="M 19.0000,7.0000 L 19.0000,69.0000 L 20.0000,69.0000 L 20.0000,7.0000 L 19.0000,7.0000 Z" stroke-width="1px" stroke="#B70B0E"  fill="#B70B0E" />
<path  clip-path="url(#clip-16807)" d="M 20.0000,7.0000 L 20.0000,69.0000 L 21.0000,69.0000 L 21.0000,7.0000 L 20.0000,7.0000 Z" stroke-width="1px" stroke="#B50B0D"  fill="#B50B0D" />
<path d="M 65.0000,25.0000 L 48.0000,9.0000 L 47.0000,9.0000 L 47.0000,68.0000 L 48.0000,68.0000 L 65.0000,52.0000 L 66.0000,50.0000 L 66.0000,27.0000 L 65.0000,25.0000 " fill="none" stroke="none" />
<defs><clipPath id="clip-282475249"><path d="M 65.0000,25.0000 L 48.0000,9.0000 L 47.0000,9.0000 L 47.0000,68.0000 L 48.0000,68.0000 L 65.0000,52.0000 L 66.0000,50.0000 L 66.0000,27.0000 L 65.0000,25.0000 Z" /></clipPath></defs>
<path  clip-path="url(#clip-282475249)" d="M 46.0000,7.0000 L 46.0000,69.0000 L 47.0000,69.0000 L 47.0000,7.0000 L 46.0000,7.0000 Z" stroke-width="1px" stroke="#8B0000"  fill="#8B0000" />
<path  clip-path="url(#clip-282475249)" d="M 47.0000,7.0000 L 47.0000,69.0000 L 48.0000,69.0000 L 48.0000,7.0000 L 47.0000,7.0000 Z" stroke-width="1px" stroke="#8D0000"  fill="#8D0000" />
<path  clip-path="url(#clip-282475249)" d="M 48.0000,7.0000 L 48.0000,69.0000 L 49.0000,69.0000 L 49.0000,7.0000 L 48.0000,7.0000 Z" stroke-width="1px" stroke="#8F0000"  fill="#8F0000" />
<path  clip-path="url(#clip-282475249)" d="M 49.0000,7.0000 L 49.0000,69.0000 L 50.0000,69.0000 L 50.0000,7.0000 L 49.0000,7.0000 Z" stroke-width="1px" stroke="#910000"  fill="#910000" />
<path  clip-path="url(#clip-282475249)" d="M 50.0000,7.0000 L 50.0000,69.0000 L 51.0000,69.0000 L 51.0000,7.0000 L 50.0000,7.0000 Z" stroke-width="1px" stroke="#930000"  fill="#930000" />
<path  clip-path="url(#clip-282475249)" d="M 51.0000,7.0000 L 51.0000,69.0000 L 52.0000,69.0000 L 52.0000,7.0000 L 51.0000,7.0000 Z" stroke-width="1px" stroke="#950000"  fill="#950000" />
<path  clip-path="url(#clip-282475249)" d="M 52.0000,7.0000 L 52.0000,69.0000 L 53.0000,69.0000 L 53.0000,7.0000 L 52.0000,7.0000 Z" stroke-width="1px" stroke="#970000"  fill="#970000" />
<path  clip-path="url(#clip-282475249)" d="M 53.0000,7.0000 L 53.0000,69.0000 L 54.0000,69.0000 L 54.0000,7.0000 L 53.0000,7.0000 Z" stroke-width="1px" stroke="#990000"  fill="#990000" />
<path  clip-path="url(#clip-282475249)" d="M 54.0000,7.0000 L 54.0000,69.0000 L 55.0000,69.0000 L 55.0000,7.0000 L 54.0000,7.0000 Z" stroke-width="1px" stroke="#9B0000"  fill="#9B0000" />
<path  clip-path="url(#clip-282475249)" d="M 55.0000,7.0000 L 55.0000,69.0000 L 56.0000,69.0000 L 56.0000,7.0000 L 55.0000,7.0000 Z" stroke-width="1px" stroke="#9D0000"  fill="#9D0000" />
<path  clip-path="url(#clip-282475249)" d="M 56.0000,7.0000 L 56.0000,69.0000 L 57.0000,69.0000 L 57.0000,7.0000 L 56.0000,7.0000 Z" stroke-width="1px" stroke="#9F0000"  fill="#9F0000" />
<path  clip-path="url(#clip-282475249)" d="M 57.0000,7.0000 L 57.0000,69.0000 L 58.0000,69.0000 L 58.0000,7.0000 L 57.0000,7.0000 Z" stroke-width="1px" stroke="#A10000"  fill="#A10000" />
<path  clip-path="url(#clip-282475249)" d="M 58.0000,7.0000 L 58.0000,69.0000 L 59.0000,69.0000 L 59.0000,7.0000 L 58.0000,7.0000 Z" stroke-width="1px" stroke="#A30000"  fill="#A30000" />
<path  clip-path="url(#clip-282475249)" d="M 59.0000,7.0000 L 59.0000,69.0000 L 60.0000,69.0000 L 60.0000,7.0000 L 59.0000,7.0000 Z" stroke-width="1px" stroke="#A40000"  fill="#A40000" />
<path  clip-path="url(#clip-282475249)" d="M 60.0000,7.0000 L 60.0000,69.0000 L 61.0000,69.0000 L 61.0000,7.0000 L 60.0000,7.0000 Z" stroke-width="1px" stroke="#A70000"  fill="#A70000" />
<path  clip-path="url(#clip-282475249)" d="M 61.0000,7.0000 L 61.0000,69.0000 L 62.0000,69.0000 L 62.0000,7.0000 L 61.0000,7.0000 Z" stroke-width="1px" stroke="#A80000"  fill="#A80000" />
<path  clip-path="url(#clip-282475249)" d="M 62.0000,7.0000 L 62.0000,69.0000 L 63.0000,69.0000 L 63.0000,7.0000 L 62.0000,7.0000 Z" stroke-width="1px" stroke="#AB0000"  fill="#AB0000" />
<path  clip-path="url(#clip-282475249)" d="M 63.0000,7.0000 L 63.0000,69.0000 L 64.0000,69.0000 L 64.0000,7.0000 L 63.0000,7.0000 Z" stroke-width="1px" stroke="#AD0000"  fill="#AD0000" />
<path  clip-path="url(#clip-282475249)" d="M 64.0000,7.0000 L 64.0000,69.0000 L 65.0000,69.0000 L 65.0000,7.0000 L 64.0000,7.0000 Z" stroke-width="1px" stroke="#AE0000"  fill="#AE0000" />
<path  clip-path="url(#clip-282475249)" d="M 65.0000,7.0000 L 65.0000,69.0000 L 66.0000,69.0000 L 66.0000,7.0000 L 65.0000,7.0000 Z" stroke-width="1px" stroke="#B10000"  fill="#B10000" />
<path  clip-path="url(#clip-282475249)" d="M 66.0000,7.0000 L 66.0000,69.0000 L 67.0000,69.0000 L 67.0000,7.0000 L 66.0000,7.0000 Z" stroke-width="1px" stroke="#B20000"  fill="#B20000" />
<defs><clipPath id="clip-1622650073"><path d="M 21.0000,8.0000 L 47.0000,8.0000 L 47.0000,69.0000 L 21.0000,69.0000 L 21.0000,8.0000 Z Z" /></clipPath></defs>
<path  clip-path="url(#clip-1622650073)" d="M 19.0000,6.0000 L 19.0000,69.0000 L 20.0000,69.0000 L 20.0000,6.0000 L 19.0000,6.0000 Z" stroke-width="1px" stroke="#B32116"  fill="#B32116" />
<path  clip-path="url(#clip-1622650073)" d="M 20.0000,6.0000 L 20.0000,69.0000 L 21.0000,69.0000 L 21.0000,6.0000 L 20.0000,6.0000 Z" stroke-width="1px" stroke="#9D000A"  fill="#9D000A" />
<path  clip-path="url(#clip-1622650073)" d="M 21.0000,6.0000 L 21.0000,69.0000 L 22.0000,69.0000 L 22.0000,6.0000 L 21.0000,6.0000 Z" stroke-width="1px" stroke="#9E020B"  fill="#9E020B" />
<path  clip-path="url(#clip-1622650073)" d="M 22.0000,6.0000 L 22.0000,69.0000 L 23.0000,69.0000 L 23.0000,6.0000 L 22.0000,6.0000 Z" stroke-width="1px" stroke="#9F030B"  fill="#9F030B" />
<path  clip-path="url(#clip-1622650073)" d="M 23.0000,6.0000 L 23.0000,69.0000 L 24.0000,69.0000 L 24.0000,6.0000 L 23.0000,6.0000 Z" stroke-width="1px" stroke="#A0040C"  fill="#A0040C" />
<path  clip-path="url(#clip-1622650073)" d="M 24.0000,6.0000 L 24.0000,69.0000 L 25.0000,69.0000 L 25.0000,6.0000 L 24.0000,6.0000 Z" stroke-width="1px" stroke="#A1050C"  fill="#A1050C" />
<path  clip-path="url(#clip-1622650073)" d="M 25.0000,6.0000 L 25.0000,69.0000 L 26.0000,69.0000 L 26.0000,6.0000 L 25.0000,6.0000 Z" stroke-width="1px" stroke="#A1060C"  fill="#A1060C" />
<path  clip-path="url(#clip-1622650073)" d="M 26.0000,6.0000 L 26.0000,69.0000 L 27.0000,69.0000 L 27.0000,6.0000 L 26.0000,6.0000 Z" stroke-width="1px" stroke="#A2080D"  fill="#A2080D" />
<path  clip-path="url(#clip-1622650073)" d="M 27.0000,6.0000 L 27.0000,69.0000 L 28.0000,69.0000 L 28.0000,6.0000 L 27.0000,6.0000 Z" stroke-width="1px" stroke="#A30A0D"  fill="#A30A0D" />
<path  clip-path="url(#clip-1622650073)" d="M 28.0000,6.0000 L 28.0000,69.0000 L 29.0000,69.0000 L 29.0000,6.0000 L 28.0000,6.0000 Z" stroke-width="1px" stroke="#A40B0E"  fill="#A40B0E" />
<path  clip-path="url(#clip-1622650073)" d="M 29.0000,6.0000 L 29.0000,69.0000 L 30.0000,69.0000 L 30.0000,6.0000 L 29.0000,6.0000 Z" stroke-width="1px" stroke="#A40C0E"  fill="#A40C0E" />
<path  clip-path="url(#clip-1622650073)" d="M 30.0000,6.0000 L 30.0000,69.0000 L 31.0000,69.0000 L 31.0000,6.0000 L 30.0000,6.0000 Z" stroke-width="1px" stroke="#A50D0F"  fill="#A50D0F" />
<path  clip-path="url(#clip-1622650073)" d="M 31.0000,6.0000 L 31.0000,69.0000 L 32.0000,69.0000 L 32.0000,6.0000 L 31.0000,6.0000 Z" stroke-width="1px" stroke="#A60E0F"  fill="#A60E0F" />
<path  clip-path="url(#clip-1622650073)" d="M 32.0000,6.0000 L 32.0000,69.0000 L 33.0000,69.0000 L 33.0000,6.0000 L 32.0000,6.0000 Z" stroke-width="1px" stroke="#A70F0F"  fill="#A70F0F" />
<path  clip-path="url(#clip-1622650073)" d="M 33.0000,6.0000 L 33.0000,69.0000 L 34.0000,69.0000 L 34.0000,6.0000 L 33.0000,6.0000 Z" stroke-width="1px" stroke="#A81010"  fill="#A81010" />
<path  clip-path="url(#clip-1622650073)" d="M 34.0000,6.0000 L 34.0000,69.0000 L 35.0000,69.0000 L 35.0000,6.0000 L 34.0000,6.0000 Z" stroke-width="1px" stroke="#A81210"  fill="#A81210" />
<path  clip-path="url(#clip-1622650073)" d="M 35.0000,6.0000 L 35.0000,69.0000 L 36.0000,69.0000 L 36.0000,6.0000 L 35.0000,6.0000 Z" stroke-width="1px" stroke="#A91311"  fill="#A91311" />
<path  clip-path="url(#clip-1622650073)" d="M 36.0000,6.0000 L 36.0000,69.0000 L 37.0000,69.0000 L 37.0000,6.0000 L 36.0000,6.0000 Z" stroke-width="1px" stroke="#AA1411"  fill="#AA1411" />
<path  clip-path="url(#clip-1622650073)" d="M 37.0000,6.0000 L 37.0000,69.0000 L 38.0000,69.0000 L 38.0000,6.0000 L 37.0000,6.0000 Z" stroke-width="1px" stroke="#AB1512"  fill="#AB1512" />
<path  clip-path="url(#clip-1622650073)" d="M 38.0000,6.0000 L 38.0000,69.0000 L 39.0000,69.0000 L 39.0000,6.0000 L 38.0000,6.0000 Z" stroke-width="1px" stroke="#AC1612"  fill="#AC1612" />
<path  clip-path="url(#clip-1622650073)" d="M 39.0000,6.0000 L 39.0000,69.0000 L 40.0000,69.0000 L 40.0000,6.0000 L 39.0000,6.0000 Z" stroke-width="1px" stroke="#AC1812"  fill="#AC1812" />
<path  clip-path="url(#clip-1622650073)" d="M 40.0000,6.0000 L 40.0000,69.0000 L 41.0000,69.0000 L 41.0000,6.0000 L 40.0000,6.0000 Z" stroke-width="1px" stroke="#AE1913"  fill="#AE1913" />
<path  clip-path="url(#clip-1622650073)" d="M 41.0000,6.0000 L 41.0000,69.0000 L 42.0000,69.0000 L 42.0000,6.0000 L 41.0000,6.0000 Z" stroke-width="1px" stroke="#AE1B13"  fill="#AE1B13" />
<path  clip-path="url(#clip-1622650073)" d="M 42.0000,6.0000 L 42.0000,69.0000 L 43.0000,69.0000 L 43.0000,6.0000 L 42.0000,6.0000 Z" stroke-width="1px" stroke="#AF1C14"  fill="#AF1C14" />
<path  clip-path="url(#clip-1622650073)" d="M 43.0000,6.0000 L 43.0000,69.0000 L 44.0000,69.0000 L 44.0000,6.0000 L 43.0000,6.0000 Z" stroke-width="1px" stroke="#AF1D14"  fill="#AF1D14" />
<path  clip-path="url(#clip-1622650073)" d="M 44.0000,6.0000 L 44.0000,69.0000 L 45.0000,69.0000 L 45.0000,6.0000 L 44.0000,6.0000 Z" stroke-width="1px" stroke="#B01E15"  fill="#B01E15" />
<path  clip-path="url(#clip-1622650073)" d="M 45.0000,6.0000 L 45.0000,69.0000 L 46.0000,69.0000 L 46.0000,6.0000 L 45.0000,6.0000 Z" stroke-width="1px" stroke="#B11F15"  fill="#B11F15" />
<path  clip-path="url(#clip-1622650073)" d="M 46.0000,6.0000 L 46.0000,69.0000 L 47.0000,69.0000 L 47.0000,6.0000 L 46.0000,6.0000 Z" stroke-width="1px" stroke="#B22015"  fill="#B22015" />
</g>
<g transform="matrix(0.0625 0.0000 0.0000 0.0625 0.0000 0.0000)">
<path d="M 731.0000,100.0000 L 970.0000,328.0000 L 978.0000,349.0000 L 978.0000,668.0000 L 964.0000,697.0000 L 729.0000,921.0000 L 706.0000,930.0000 L 367.0000,930.0000 L 343.0000,920.0000 L 108.0000,697.0000 L 95.0000,664.0000 L 95.0000,350.0000 L 104.0000,328.0000 L 347.0000,98.0000 L 368.0000,90.0000 L 706.0000,90.0000 L 731.0000,100.0000 Z" stroke-width="1px" stroke="#FFFFFF"  fill="#FFFFFF" />
</g>
<g transform="matrix(1.0000 0.0000 0.0000 1.0000 0.0000 0.0000)">
</g>
<g transform="matrix(0.0625 0.0000 0.0000 0.0625 0.0000 0.0000)">
<path d="M 319.0000,911.0000 L 711.0000,916.0000 L 1048.0000,672.0000 L 1048.0000,694.0000 L 1032.0000,728.0000 L 760.0000,988.0000 L 733.0000,998.0000 L 340.0000,998.0000 L 312.0000,987.0000 L 40.0000,728.0000 L 24.0000,689.0000 L 24.0000,667.0000 L 319.0000,911.0000 Z" stroke-width="1px" stroke="#D40000"  fill="#D40000" />
</g>
<g transform="matrix(1.0000 0.0000 0.0000 1.0000 0.0000 0.0000)">
</g>
<g transform="matrix(0.0625 0.0000 0.0000 0.0625 0.0000 0.0000)">
<path d="M 736.0000,669.0000 C 721.0000,672.0000 709.0000,672.0000 681.0000,686.0000 C 652.0000,699.0000 610.0000,738.0000 593.0000,751.0000 C 576.0000,765.0000 550.0000,786.0000 546.0000,803.0000 C 543.0000,820.0000 545.0000,833.0000 524.0000,830.0000 C 503.0000,827.0000 471.0000,789.0000 461.0000,768.0000 C 458.0000,771.0000 437.0000,778.0000 438.0000,781.0000 C 439.0000,798.0000 489.0000,862.0000 514.0000,866.0000 C 535.0000,869.0000 563.0000,847.0000 567.0000,830.0000 C 570.0000,813.0000 603.0000,795.0000 619.0000,781.0000 C 636.0000,768.0000 677.0000,745.0000 706.0000,731.0000 C 735.0000,718.0000 748.0000,692.0000 764.0000,689.0000 C 774.0000,687.0000 746.0000,676.0000 741.0000,667.0000 C 740.0000,668.0000 738.0000,668.0000 736.0000,669.0000 "  fill="#000000" stroke="none" />
</g>
<g transform="matrix(1.0000 0.0000 0.0000 1.0000 0.0000 0.0000)">
</g>
<g transform="matrix(0.0625 0.0000 0.0000 0.0625 0.0000 0.0000)">
<path d="M 731.0000,415.0000 C 714.0000,417.0000 709.0000,425.0000 702.0000,449.0000 C 699.0000,462.0000 698.0000,491.0000 698.0000,517.0000 C 698.0000,497.0000 721.0000,494.0000 724.0000,483.0000 C 731.0000,460.0000 742.0000,453.0000 759.0000,451.0000 C 776.0000,450.0000 823.0000,438.0000 850.0000,433.0000 C 877.0000,428.0000 885.0000,389.0000 850.0000,392.0000 C 846.0000,397.0000 837.0000,401.0000 823.0000,403.0000 C 797.0000,408.0000 748.0000,413.0000 731.0000,415.0000 "  fill="#000000" stroke="none" />
</g>
<g transform="matrix(1.0000 0.0000 0.0000 1.0000 0.0000 0.0000)">
</g>
<g transform="matrix(0.0625 0.0000 0.0000 0.0625 0.0000 0.0000)">
<path d="M 628.0000,678.0000 L 618.0000,672.0000 C 618.0000,672.0000 561.0000,675.0000 513.0000,678.0000 C 466.0000,682.0000 396.0000,707.0000 352.0000,710.0000 C 309.0000,714.0000 290.0000,664.0000 281.0000,647.0000 C 278.0000,639.0000 296.0000,625.0000 299.0000,620.0000 C 308.0000,637.0000 313.0000,669.0000 356.0000,665.0000 C 400.0000,662.0000 469.0000,642.0000 516.0000,638.0000 C 563.0000,635.0000 630.0000,632.0000 630.0000,632.0000 L 649.0000,659.0000 L 649.0000,678.0000 L 628.0000,678.0000 Z "  fill="#000000" stroke="none" />
</g>
<g transform="matrix(1.0000 0.0000 0.0000 1.0000 0.0000 0.0000)">
</g>
<g transform="matrix(0.0625 0.0000 0.0000 0.0625 0.0000 0.0000)">
<path d="M 691.0000,304.0000 C 681.0000,316.0000 679.0000,328.0000 683.0000,337.0000 C 685.0000,332.0000 707.0000,341.0000 711.0000,336.0000 C 726.0000,318.0000 783.0000,277.0000 801.0000,266.0000 C 820.0000,256.0000 837.0000,204.0000 785.0000,221.0000 C 785.0000,221.0000 785.0000,221.0000 784.0000,221.0000 C 778.0000,226.0000 770.0000,231.0000 763.0000,235.0000 C 745.0000,245.0000 706.0000,286.0000 691.0000,304.0000 "  fill="#000000" stroke="none" />
</g>
<g transform="matrix(1.0000 0.0000 0.0000 1.0000 0.0000 0.0000)">
</g>
<g transform="matrix(0.0625 0.0000 0.0000 0.0625 0.0000 0.0000)">
<path d="M 618.0000,353.0000 C 617.0000,351.0000 605.0000,346.0000 603.0000,345.0000 C 593.0000,336.0000 570.0000,310.0000 592.0000,291.0000 C 592.0000,291.0000 592.0000,290.0000 592.0000,290.0000 C 596.0000,305.0000 609.0000,313.0000 617.0000,319.0000 C 622.0000,323.0000 627.0000,329.0000 627.0000,334.0000 L 627.0000,353.0000 L 618.0000,353.0000 Z "  fill="#000000" stroke="none" />
</g>
<g transform="matrix(1.0000 0.0000 0.0000 1.0000 0.0000 0.0000)">
</g>
<g transform="matrix(0.0625 0.0000 0.0000 0.0625 0.0000 0.0000)">
<path d="M 424.0000,471.0000 C 406.0000,470.0000 327.0000,475.0000 307.0000,473.0000 C 283.0000,472.0000 214.0000,474.0000 185.0000,456.0000 C 158.0000,438.0000 194.0000,403.0000 198.0000,383.0000 C 200.0000,395.0000 209.0000,407.0000 227.0000,418.0000 C 255.0000,437.0000 297.0000,425.0000 321.0000,427.0000 C 345.0000,428.0000 442.0000,432.0000 442.0000,432.0000 L 442.0000,451.0000 L 424.0000,471.0000 Z "  fill="#000000" stroke="none" />
</g>
<g transform="matrix(1.0000 0.0000 0.0000 1.0000 0.0000 0.0000)">
</g>
<g transform="matrix(0.0625 0.0000 0.0000 0.0625 0.0000 0.0000)">
<path d="M 267.0000,329.0000 C 296.0000,349.0000 496.0000,362.0000 527.0000,347.0000 C 534.0000,343.0000 494.0000,316.0000 468.0000,313.0000 C 432.0000,321.0000 339.0000,281.0000 313.0000,262.0000 C 304.0000,256.0000 300.0000,249.0000 298.0000,243.0000 C 271.0000,243.0000 251.0000,318.0000 267.0000,329.0000 "  fill="#000000" stroke="none" />
</g>
<g transform="matrix(1.0000 0.0000 0.0000 1.0000 0.0000 0.0000)">
</g>
<g transform="matrix(0.0625 0.0000 0.0000 0.0625 0.0000 0.0000)">
<path d="M 561.0000,433.0000 C 536.0000,437.0000 529.0000,442.0000 529.0000,442.0000 C 529.0000,442.0000 512.0000,501.0000 506.0000,531.0000 C 503.0000,546.0000 503.0000,557.0000 504.0000,564.0000 C 504.0000,560.0000 521.0000,561.0000 522.0000,556.0000 C 528.0000,526.0000 540.0000,486.0000 540.0000,486.0000 C 540.0000,486.0000 555.0000,481.0000 580.0000,478.0000 C 604.0000,475.0000 627.0000,451.0000 630.0000,451.0000 C 631.0000,437.0000 630.0000,432.0000 630.0000,432.0000 C 630.0000,432.0000 587.0000,430.0000 561.0000,433.0000 "  fill="#000000" stroke="none" />
</g>
<g transform="matrix(1.0000 0.0000 0.0000 1.0000 0.0000 0.0000)">
</g>
<g transform="matrix(0.0625 0.0000 0.0000 0.0625 0.0000 0.0000)">
<path d="M 33.0000,708.0000 L 311.0000,972.0000 L 340.0000,984.0000 L 732.0000,984.0000 L 757.0000,975.0000 L 1038.0000,708.0000 L 1048.0000,683.0000 L 1048.0000,333.0000 L 1033.0000,295.0000 L 760.0000,36.0000 L 733.0000,24.0000 L 340.0000,24.0000 L 313.0000,35.0000 L 40.0000,295.0000 L 24.0000,329.0000 L 24.0000,683.0000 L 33.0000,708.0000 Z M 311.0000,217.0000 C 323.0000,202.0000 343.0000,207.0000 365.0000,222.0000 C 387.0000,237.0000 439.0000,285.0000 454.0000,300.0000 C 469.0000,315.0000 485.0000,325.0000 474.0000,330.0000 C 444.0000,345.0000 341.0000,301.0000 313.0000,281.0000 C 284.0000,261.0000 299.0000,232.0000 311.0000,217.0000 Z M 198.0000,379.0000 C 203.0000,357.0000 215.0000,357.0000 249.0000,364.0000 C 282.0000,370.0000 370.0000,379.0000 420.0000,380.0000 C 471.0000,382.0000 568.0000,372.0000 603.0000,367.0000 C 639.0000,362.0000 627.0000,347.0000 617.0000,338.0000 C 607.0000,330.0000 587.0000,318.0000 592.0000,291.0000 C 597.0000,264.0000 642.0000,249.0000 689.0000,236.0000 C 736.0000,222.0000 765.0000,216.0000 785.0000,221.0000 C 805.0000,226.0000 781.0000,244.0000 763.0000,254.0000 C 745.0000,264.0000 706.0000,305.0000 691.0000,323.0000 C 676.0000,342.0000 679.0000,362.0000 696.0000,365.0000 C 713.0000,369.0000 761.0000,354.0000 793.0000,354.0000 C 825.0000,354.0000 840.0000,377.0000 850.0000,392.0000 C 860.0000,407.0000 850.0000,417.0000 823.0000,422.0000 C 797.0000,427.0000 748.0000,432.0000 731.0000,434.0000 C 714.0000,436.0000 709.0000,444.0000 702.0000,468.0000 C 696.0000,491.0000 697.0000,562.0000 701.0000,584.0000 C 704.0000,606.0000 721.0000,644.0000 733.0000,656.0000 C 744.0000,668.0000 751.0000,685.0000 736.0000,688.0000 C 721.0000,691.0000 709.0000,691.0000 681.0000,705.0000 C 652.0000,718.0000 610.0000,757.0000 593.0000,770.0000 C 576.0000,784.0000 550.0000,806.0000 546.0000,822.0000 C 543.0000,839.0000 545.0000,852.0000 524.0000,849.0000 C 499.0000,846.0000 459.0000,794.0000 457.0000,777.0000 C 455.0000,760.0000 491.0000,751.0000 555.0000,727.0000 C 607.0000,706.0000 649.0000,678.0000 649.0000,678.0000 L 630.0000,651.0000 C 630.0000,651.0000 563.0000,654.0000 516.0000,658.0000 C 469.0000,661.0000 400.0000,681.0000 356.0000,685.0000 C 313.0000,688.0000 308.0000,656.0000 299.0000,639.0000 C 291.0000,622.0000 301.0000,611.0000 329.0000,612.0000 C 358.0000,614.0000 412.0000,604.0000 412.0000,604.0000 C 412.0000,604.0000 413.0000,582.0000 420.0000,553.0000 C 427.0000,525.0000 442.0000,451.0000 442.0000,451.0000 C 442.0000,451.0000 345.0000,448.0000 321.0000,446.0000 C 297.0000,444.0000 255.0000,456.0000 227.0000,438.0000 C 198.0000,419.0000 193.0000,401.0000 198.0000,379.0000 Z "  fill="#FF0000" stroke="none" />
</g>
<g transform="matrix(1.0000 0.0000 0.0000 1.0000 0.0000 0.0000)">
</g>
<g transform="matrix(0.0625 0.0000 0.0000 0.0625 0.0000 0.0000)">
<path d="M 561.0000,453.0000 C 536.0000,456.0000 529.0000,461.0000 529.0000,461.0000 C 529.0000,461.0000 512.0000,520.0000 506.0000,550.0000 C 505.0000,555.0000 504.0000,560.0000 504.0000,564.0000 C 505.0000,577.0000 511.0000,580.0000 511.0000,580.0000 C 511.0000,580.0000 556.0000,590.0000 622.0000,578.0000 C 622.0000,578.0000 622.0000,516.0000 627.0000,479.0000 C 629.0000,467.0000 629.0000,458.0000 630.0000,451.0000 C 627.0000,451.0000 585.0000,449.0000 561.0000,453.0000 "  fill="#FF0000" stroke="none" />
</g>
<g transform="matrix(1.0000 0.0000 0.0000 1.0000 0.0000 0.0000)">
</g>
</g>
</svg>
