<?xml version="1.0"  encoding="UTF-8" standalone="no"?>
<svg version="1.1" xmlns="http://www.w3.org/2000/svg" xmlns:xlink="http://www.w3.org/1999/xlink" width="65.0000" height="68.0000">
<g transform="translate(-1.0000, -1.0000)">
<g transform="matrix(0.0625 0.0000 0.0000 0.0625 0.0000 0.0000)">
<path d="M 341.0000,122.0000 L 316.0000,131.0000 L 35.0000,397.0000 L 24.0000,422.0000 L 24.0000,787.0000 L 40.0000,825.0000 L 312.0000,1084.0000 L 340.0000,1096.0000 L 553.0000,1096.0000 C 512.0000,773.0000 493.0000,448.0000 489.0000,122.0000 L 341.0000,122.0000 Z "  fill="#DEDEDE" stroke="none" />
</g>
<g transform="matrix(1.0000 0.0000 0.0000 1.0000 0.0000 0.0000)">
</g>
<g transform="matrix(0.0625 0.0000 0.0000 0.0625 0.0000 0.0000)">
<path d="M 1039.0000,397.0000 L 762.0000,133.0000 L 733.0000,122.0000 L 489.0000,122.0000 C 493.0000,448.0000 512.0000,773.0000 553.0000,1096.0000 L 733.0000,1096.0000 L 760.0000,1085.0000 L 1032.0000,825.0000 L 1048.0000,791.0000 L 1048.0000,422.0000 L 1039.0000,397.0000 Z "  fill="#CFCFCF" stroke="none" />
</g>
<g transform="matrix(1.0000 0.0000 0.0000 1.0000 0.0000 0.0000)">
<path d="M 20.0000,9.0000 L 3.0000,25.0000 L 2.0000,27.0000 L 2.0000,50.0000 L 3.0000,52.0000 L 20.0000,68.0000 L 20.0000,68.0000 L 20.0000,9.0000 L 20.0000,9.0000 " fill="none" stroke="none" />
<defs><clipPath id="clip-16807"><path d="M 20.0000,9.0000 L 3.0000,25.0000 L 2.0000,27.0000 L 2.0000,50.0000 L 3.0000,52.0000 L 20.0000,68.0000 L 20.0000,68.0000 L 20.0000,9.0000 L 20.0000,9.0000 Z" /></clipPath></defs>
<path  clip-path="url(#clip-16807)" d="M 0.0000,7.0000 L 0.0000,69.0000 L 1.0000,69.0000 L 1.0000,7.0000 L 0.0000,7.0000 Z" stroke-width="1px" stroke="#C9C9C9"  fill="#C9C9C9" />
<path  clip-path="url(#clip-16807)" d="M 1.0000,7.0000 L 1.0000,69.0000 L 2.0000,69.0000 L 2.0000,7.0000 L 1.0000,7.0000 Z" stroke-width="1px" stroke="#D4D4D4"  fill="#D4D4D4" />
<path  clip-path="url(#clip-16807)" d="M 2.0000,7.0000 L 2.0000,69.0000 L 4.0000,69.0000 L 4.0000,7.0000 L 2.0000,7.0000 Z" stroke-width="1px" stroke="#D3D3D3"  fill="#D3D3D3" />
<path  clip-path="url(#clip-16807)" d="M 4.0000,7.0000 L 4.0000,69.0000 L 5.0000,69.0000 L 5.0000,7.0000 L 4.0000,7.0000 Z" stroke-width="1px" stroke="#D2D2D2"  fill="#D2D2D2" />
<path  clip-path="url(#clip-16807)" d="M 5.0000,7.0000 L 5.0000,69.0000 L 8.0000,69.0000 L 8.0000,7.0000 L 5.0000,7.0000 Z" stroke-width="1px" stroke="#D1D1D1"  fill="#D1D1D1" />
<path  clip-path="url(#clip-16807)" d="M 8.0000,7.0000 L 8.0000,69.0000 L 9.0000,69.0000 L 9.0000,7.0000 L 8.0000,7.0000 Z" stroke-width="1px" stroke="#D0D0D0"  fill="#D0D0D0" />
<path  clip-path="url(#clip-16807)" d="M 9.0000,7.0000 L 9.0000,69.0000 L 12.0000,69.0000 L 12.0000,7.0000 L 9.0000,7.0000 Z" stroke-width="1px" stroke="#CFCFCF"  fill="#CFCFCF" />
<path  clip-path="url(#clip-16807)" d="M 12.0000,7.0000 L 12.0000,69.0000 L 13.0000,69.0000 L 13.0000,7.0000 L 12.0000,7.0000 Z" stroke-width="1px" stroke="#CECECE"  fill="#CECECE" />
<path  clip-path="url(#clip-16807)" d="M 13.0000,7.0000 L 13.0000,69.0000 L 14.0000,69.0000 L 14.0000,7.0000 L 13.0000,7.0000 Z" stroke-width="1px" stroke="#CDCDCD"  fill="#CDCDCD" />
<path  clip-path="url(#clip-16807)" d="M 14.0000,7.0000 L 14.0000,69.0000 L 17.0000,69.0000 L 17.0000,7.0000 L 14.0000,7.0000 Z" stroke-width="1px" stroke="#CCCCCC"  fill="#CCCCCC" />
<path  clip-path="url(#clip-16807)" d="M 17.0000,7.0000 L 17.0000,69.0000 L 18.0000,69.0000 L 18.0000,7.0000 L 17.0000,7.0000 Z" stroke-width="1px" stroke="#CBCBCB"  fill="#CBCBCB" />
<path  clip-path="url(#clip-16807)" d="M 18.0000,7.0000 L 18.0000,69.0000 L 21.0000,69.0000 L 21.0000,7.0000 L 18.0000,7.0000 Z" stroke-width="1px" stroke="#CACACA"  fill="#CACACA" />
<path d="M 65.0000,25.0000 L 48.0000,9.0000 L 47.0000,9.0000 L 47.0000,68.0000 L 48.0000,68.0000 L 65.0000,52.0000 L 66.0000,50.0000 L 66.0000,27.0000 L 65.0000,25.0000 " fill="none" stroke="none" />
<defs><clipPath id="clip-282475249"><path d="M 65.0000,25.0000 L 48.0000,9.0000 L 47.0000,9.0000 L 47.0000,68.0000 L 48.0000,68.0000 L 65.0000,52.0000 L 66.0000,50.0000 L 66.0000,27.0000 L 65.0000,25.0000 Z" /></clipPath></defs>
<path  clip-path="url(#clip-282475249)" d="M 46.0000,7.0000 L 46.0000,69.0000 L 47.0000,69.0000 L 47.0000,7.0000 L 46.0000,7.0000 Z" stroke-width="1px" stroke="#A3A3A3"  fill="#A3A3A3" />
<path  clip-path="url(#clip-282475249)" d="M 47.0000,7.0000 L 47.0000,69.0000 L 48.0000,69.0000 L 48.0000,7.0000 L 47.0000,7.0000 Z" stroke-width="1px" stroke="#A4A4A4"  fill="#A4A4A4" />
<path  clip-path="url(#clip-282475249)" d="M 48.0000,7.0000 L 48.0000,69.0000 L 50.0000,69.0000 L 50.0000,7.0000 L 48.0000,7.0000 Z" stroke-width="1px" stroke="#A5A5A5"  fill="#A5A5A5" />
<path  clip-path="url(#clip-282475249)" d="M 50.0000,7.0000 L 50.0000,69.0000 L 51.0000,69.0000 L 51.0000,7.0000 L 50.0000,7.0000 Z" stroke-width="1px" stroke="#A6A6A6"  fill="#A6A6A6" />
<path  clip-path="url(#clip-282475249)" d="M 51.0000,7.0000 L 51.0000,69.0000 L 52.0000,69.0000 L 52.0000,7.0000 L 51.0000,7.0000 Z" stroke-width="1px" stroke="#A7A7A7"  fill="#A7A7A7" />
<path  clip-path="url(#clip-282475249)" d="M 52.0000,7.0000 L 52.0000,69.0000 L 54.0000,69.0000 L 54.0000,7.0000 L 52.0000,7.0000 Z" stroke-width="1px" stroke="#A8A8A8"  fill="#A8A8A8" />
<path  clip-path="url(#clip-282475249)" d="M 54.0000,7.0000 L 54.0000,69.0000 L 55.0000,69.0000 L 55.0000,7.0000 L 54.0000,7.0000 Z" stroke-width="1px" stroke="#A9A9A9"  fill="#A9A9A9" />
<path  clip-path="url(#clip-282475249)" d="M 55.0000,7.0000 L 55.0000,69.0000 L 56.0000,69.0000 L 56.0000,7.0000 L 55.0000,7.0000 Z" stroke-width="1px" stroke="#AAAAAA"  fill="#AAAAAA" />
<path  clip-path="url(#clip-282475249)" d="M 56.0000,7.0000 L 56.0000,69.0000 L 59.0000,69.0000 L 59.0000,7.0000 L 56.0000,7.0000 Z" stroke-width="1px" stroke="#ABABAB"  fill="#ABABAB" />
<path  clip-path="url(#clip-282475249)" d="M 59.0000,7.0000 L 59.0000,69.0000 L 60.0000,69.0000 L 60.0000,7.0000 L 59.0000,7.0000 Z" stroke-width="1px" stroke="#ACACAC"  fill="#ACACAC" />
<path  clip-path="url(#clip-282475249)" d="M 60.0000,7.0000 L 60.0000,69.0000 L 61.0000,69.0000 L 61.0000,7.0000 L 60.0000,7.0000 Z" stroke-width="1px" stroke="#ADADAD"  fill="#ADADAD" />
<path  clip-path="url(#clip-282475249)" d="M 61.0000,7.0000 L 61.0000,69.0000 L 62.0000,69.0000 L 62.0000,7.0000 L 61.0000,7.0000 Z" stroke-width="1px" stroke="#AEAEAE"  fill="#AEAEAE" />
<path  clip-path="url(#clip-282475249)" d="M 62.0000,7.0000 L 62.0000,69.0000 L 64.0000,69.0000 L 64.0000,7.0000 L 62.0000,7.0000 Z" stroke-width="1px" stroke="#AFAFAF"  fill="#AFAFAF" />
<path  clip-path="url(#clip-282475249)" d="M 64.0000,7.0000 L 64.0000,69.0000 L 65.0000,69.0000 L 65.0000,7.0000 L 64.0000,7.0000 Z" stroke-width="1px" stroke="#B0B0B0"  fill="#B0B0B0" />
<path  clip-path="url(#clip-282475249)" d="M 65.0000,7.0000 L 65.0000,69.0000 L 66.0000,69.0000 L 66.0000,7.0000 L 65.0000,7.0000 Z" stroke-width="1px" stroke="#B1B1B1"  fill="#B1B1B1" />
<path  clip-path="url(#clip-282475249)" d="M 66.0000,7.0000 L 66.0000,69.0000 L 67.0000,69.0000 L 67.0000,7.0000 L 66.0000,7.0000 Z" stroke-width="1px" stroke="#B2B2B2"  fill="#B2B2B2" />
<defs><clipPath id="clip-1622650073"><path d="M 21.0000,8.0000 L 47.0000,8.0000 L 47.0000,69.0000 L 21.0000,69.0000 L 21.0000,8.0000 Z Z" /></clipPath></defs>
<path  clip-path="url(#clip-1622650073)" d="M 19.0000,6.0000 L 19.0000,69.0000 L 20.0000,69.0000 L 20.0000,6.0000 L 19.0000,6.0000 Z" stroke-width="1px" stroke="#BDBDBD"  fill="#BDBDBD" />
<path  clip-path="url(#clip-1622650073)" d="M 20.0000,6.0000 L 20.0000,69.0000 L 21.0000,69.0000 L 21.0000,6.0000 L 20.0000,6.0000 Z" stroke-width="1px" stroke="#ADADAD"  fill="#ADADAD" />
<path  clip-path="url(#clip-1622650073)" d="M 21.0000,6.0000 L 21.0000,69.0000 L 23.0000,69.0000 L 23.0000,6.0000 L 21.0000,6.0000 Z" stroke-width="1px" stroke="#AEAEAE"  fill="#AEAEAE" />
<path  clip-path="url(#clip-1622650073)" d="M 23.0000,6.0000 L 23.0000,69.0000 L 24.0000,69.0000 L 24.0000,6.0000 L 23.0000,6.0000 Z" stroke-width="1px" stroke="#AFAFAF"  fill="#AFAFAF" />
<path  clip-path="url(#clip-1622650073)" d="M 24.0000,6.0000 L 24.0000,69.0000 L 26.0000,69.0000 L 26.0000,6.0000 L 24.0000,6.0000 Z" stroke-width="1px" stroke="#B0B0B0"  fill="#B0B0B0" />
<path  clip-path="url(#clip-1622650073)" d="M 26.0000,6.0000 L 26.0000,69.0000 L 28.0000,69.0000 L 28.0000,6.0000 L 26.0000,6.0000 Z" stroke-width="1px" stroke="#B1B1B1"  fill="#B1B1B1" />
<path  clip-path="url(#clip-1622650073)" d="M 28.0000,6.0000 L 28.0000,69.0000 L 30.0000,69.0000 L 30.0000,6.0000 L 28.0000,6.0000 Z" stroke-width="1px" stroke="#B2B2B2"  fill="#B2B2B2" />
<path  clip-path="url(#clip-1622650073)" d="M 30.0000,6.0000 L 30.0000,69.0000 L 31.0000,69.0000 L 31.0000,6.0000 L 30.0000,6.0000 Z" stroke-width="1px" stroke="#B3B3B3"  fill="#B3B3B3" />
<path  clip-path="url(#clip-1622650073)" d="M 31.0000,6.0000 L 31.0000,69.0000 L 33.0000,69.0000 L 33.0000,6.0000 L 31.0000,6.0000 Z" stroke-width="1px" stroke="#B4B4B4"  fill="#B4B4B4" />
<path  clip-path="url(#clip-1622650073)" d="M 33.0000,6.0000 L 33.0000,69.0000 L 35.0000,69.0000 L 35.0000,6.0000 L 33.0000,6.0000 Z" stroke-width="1px" stroke="#B5B5B5"  fill="#B5B5B5" />
<path  clip-path="url(#clip-1622650073)" d="M 35.0000,6.0000 L 35.0000,69.0000 L 37.0000,69.0000 L 37.0000,6.0000 L 35.0000,6.0000 Z" stroke-width="1px" stroke="#B6B6B6"  fill="#B6B6B6" />
<path  clip-path="url(#clip-1622650073)" d="M 37.0000,6.0000 L 37.0000,69.0000 L 38.0000,69.0000 L 38.0000,6.0000 L 37.0000,6.0000 Z" stroke-width="1px" stroke="#B7B7B7"  fill="#B7B7B7" />
<path  clip-path="url(#clip-1622650073)" d="M 38.0000,6.0000 L 38.0000,69.0000 L 40.0000,69.0000 L 40.0000,6.0000 L 38.0000,6.0000 Z" stroke-width="1px" stroke="#B8B8B8"  fill="#B8B8B8" />
<path  clip-path="url(#clip-1622650073)" d="M 40.0000,6.0000 L 40.0000,69.0000 L 42.0000,69.0000 L 42.0000,6.0000 L 40.0000,6.0000 Z" stroke-width="1px" stroke="#B9B9B9"  fill="#B9B9B9" />
<path  clip-path="url(#clip-1622650073)" d="M 42.0000,6.0000 L 42.0000,69.0000 L 44.0000,69.0000 L 44.0000,6.0000 L 42.0000,6.0000 Z" stroke-width="1px" stroke="#BABABA"  fill="#BABABA" />
<path  clip-path="url(#clip-1622650073)" d="M 44.0000,6.0000 L 44.0000,69.0000 L 45.0000,69.0000 L 45.0000,6.0000 L 44.0000,6.0000 Z" stroke-width="1px" stroke="#BBBBBB"  fill="#BBBBBB" />
<path  clip-path="url(#clip-1622650073)" d="M 45.0000,6.0000 L 45.0000,69.0000 L 47.0000,69.0000 L 47.0000,6.0000 L 45.0000,6.0000 Z" stroke-width="1px" stroke="#BCBCBC"  fill="#BCBCBC" />
</g>
<g transform="matrix(0.0625 0.0000 0.0000 0.0625 0.0000 0.0000)">
<path d="M 731.0000,100.0000 L 970.0000,328.0000 L 978.0000,349.0000 L 978.0000,668.0000 L 964.0000,697.0000 L 729.0000,921.0000 L 706.0000,930.0000 L 367.0000,930.0000 L 343.0000,920.0000 L 108.0000,697.0000 L 95.0000,664.0000 L 95.0000,350.0000 L 104.0000,328.0000 L 347.0000,98.0000 L 368.0000,90.0000 L 706.0000,90.0000 L 731.0000,100.0000 Z" stroke-width="1px" stroke="#FF0000"  fill="#FF0000" />
</g>
<g transform="matrix(1.0000 0.0000 0.0000 1.0000 0.0000 0.0000)">
<path d="M 20.0000,57.0000 L 45.0000,58.0000 L 66.0000,42.0000 L 66.0000,44.0000 L 65.0000,46.0000 L 48.0000,62.0000 L 46.0000,63.0000 L 22.0000,63.0000 L 20.0000,62.0000 L 3.0000,46.0000 L 2.0000,44.0000 L 2.0000,42.0000 L 20.0000,57.0000 " fill="none" stroke="none" />
<defs><clipPath id="clip-984943658"><path d="M 20.0000,57.0000 L 45.0000,58.0000 L 66.0000,42.0000 L 66.0000,44.0000 L 65.0000,46.0000 L 48.0000,62.0000 L 46.0000,63.0000 L 22.0000,63.0000 L 20.0000,62.0000 L 3.0000,46.0000 L 2.0000,44.0000 L 2.0000,42.0000 L 20.0000,57.0000 Z" /></clipPath></defs>
<path  clip-path="url(#clip-984943658)" d="M 0.0000,40.0000 L 0.0000,63.0000 L 1.0000,63.0000 L 1.0000,40.0000 L 0.0000,40.0000 Z" stroke-width="1px" stroke="#D4D4D4"  fill="#D4D4D4" />
<path  clip-path="url(#clip-984943658)" d="M 1.0000,40.0000 L 1.0000,63.0000 L 3.0000,63.0000 L 3.0000,40.0000 L 1.0000,40.0000 Z" stroke-width="1px" stroke="#E3E3E3"  fill="#E3E3E3" />
<path  clip-path="url(#clip-984943658)" d="M 3.0000,40.0000 L 3.0000,63.0000 L 7.0000,63.0000 L 7.0000,40.0000 L 3.0000,40.0000 Z" stroke-width="1px" stroke="#E2E2E2"  fill="#E2E2E2" />
<path  clip-path="url(#clip-984943658)" d="M 7.0000,40.0000 L 7.0000,63.0000 L 11.0000,63.0000 L 11.0000,40.0000 L 7.0000,40.0000 Z" stroke-width="1px" stroke="#E1E1E1"  fill="#E1E1E1" />
<path  clip-path="url(#clip-984943658)" d="M 11.0000,40.0000 L 11.0000,63.0000 L 15.0000,63.0000 L 15.0000,40.0000 L 11.0000,40.0000 Z" stroke-width="1px" stroke="#E0E0E0"  fill="#E0E0E0" />
<path  clip-path="url(#clip-984943658)" d="M 15.0000,40.0000 L 15.0000,63.0000 L 20.0000,63.0000 L 20.0000,40.0000 L 15.0000,40.0000 Z" stroke-width="1px" stroke="#DFDFDF"  fill="#DFDFDF" />
<path  clip-path="url(#clip-984943658)" d="M 20.0000,40.0000 L 20.0000,63.0000 L 24.0000,63.0000 L 24.0000,40.0000 L 20.0000,40.0000 Z" stroke-width="1px" stroke="#DEDEDE"  fill="#DEDEDE" />
<path  clip-path="url(#clip-984943658)" d="M 24.0000,40.0000 L 24.0000,63.0000 L 28.0000,63.0000 L 28.0000,40.0000 L 24.0000,40.0000 Z" stroke-width="1px" stroke="#DDDDDD"  fill="#DDDDDD" />
<path  clip-path="url(#clip-984943658)" d="M 28.0000,40.0000 L 28.0000,63.0000 L 36.0000,63.0000 L 36.0000,40.0000 L 28.0000,40.0000 Z" stroke-width="1px" stroke="#DCDCDC"  fill="#DCDCDC" />
<path  clip-path="url(#clip-984943658)" d="M 36.0000,40.0000 L 36.0000,63.0000 L 40.0000,63.0000 L 40.0000,40.0000 L 36.0000,40.0000 Z" stroke-width="1px" stroke="#DBDBDB"  fill="#DBDBDB" />
<path  clip-path="url(#clip-984943658)" d="M 40.0000,40.0000 L 40.0000,63.0000 L 44.0000,63.0000 L 44.0000,40.0000 L 40.0000,40.0000 Z" stroke-width="1px" stroke="#DADADA"  fill="#DADADA" />
<path  clip-path="url(#clip-984943658)" d="M 44.0000,40.0000 L 44.0000,63.0000 L 48.0000,63.0000 L 48.0000,40.0000 L 44.0000,40.0000 Z" stroke-width="1px" stroke="#D9D9D9"  fill="#D9D9D9" />
<path  clip-path="url(#clip-984943658)" d="M 48.0000,40.0000 L 48.0000,63.0000 L 53.0000,63.0000 L 53.0000,40.0000 L 48.0000,40.0000 Z" stroke-width="1px" stroke="#D8D8D8"  fill="#D8D8D8" />
<path  clip-path="url(#clip-984943658)" d="M 53.0000,40.0000 L 53.0000,63.0000 L 57.0000,63.0000 L 57.0000,40.0000 L 53.0000,40.0000 Z" stroke-width="1px" stroke="#D7D7D7"  fill="#D7D7D7" />
<path  clip-path="url(#clip-984943658)" d="M 57.0000,40.0000 L 57.0000,63.0000 L 61.0000,63.0000 L 61.0000,40.0000 L 57.0000,40.0000 Z" stroke-width="1px" stroke="#D6D6D6"  fill="#D6D6D6" />
<path  clip-path="url(#clip-984943658)" d="M 61.0000,40.0000 L 61.0000,63.0000 L 65.0000,63.0000 L 65.0000,40.0000 L 61.0000,40.0000 Z" stroke-width="1px" stroke="#D5D5D5"  fill="#D5D5D5" />
<path  clip-path="url(#clip-984943658)" d="M 65.0000,40.0000 L 65.0000,63.0000 L 66.0000,63.0000 L 66.0000,40.0000 L 65.0000,40.0000 Z" stroke-width="1px" stroke="#D4D4D4"  fill="#D4D4D4" />
</g>
<g transform="matrix(0.0625 0.0000 0.0000 0.0625 0.0000 0.0000)">
<path d="M 723.0000,831.0000 C 707.0000,837.0000 694.0000,830.0000 664.0000,826.0000 C 634.0000,822.0000 537.0000,817.0000 435.0000,826.0000 C 405.0000,828.0000 385.0000,829.0000 367.0000,815.0000 C 354.0000,805.0000 336.0000,786.0000 329.0000,773.0000 C 327.0000,774.0000 324.0000,777.0000 324.0000,779.0000 C 322.0000,789.0000 332.0000,828.0000 350.0000,842.0000 C 368.0000,856.0000 402.0000,861.0000 433.0000,859.0000 C 535.0000,850.0000 624.0000,860.0000 654.0000,864.0000 C 684.0000,868.0000 726.0000,873.0000 742.0000,867.0000 C 764.0000,858.0000 766.0000,831.0000 748.0000,814.0000 C 745.0000,822.0000 737.0000,826.0000 723.0000,831.0000 "  fill="#000000" stroke="none" />
</g>
<g transform="matrix(1.0000 0.0000 0.0000 1.0000 0.0000 0.0000)">
</g>
<g transform="matrix(0.0625 0.0000 0.0000 0.0625 0.0000 0.0000)">
<path d="M 391.0000,693.0000 C 389.0000,693.0000 387.0000,692.0000 386.0000,691.0000 C 366.0000,695.0000 381.0000,721.0000 388.0000,722.0000 C 399.0000,723.0000 453.0000,733.0000 478.0000,706.0000 C 478.0000,701.0000 478.0000,695.0000 478.0000,689.0000 C 427.0000,691.0000 402.0000,695.0000 391.0000,693.0000 "  fill="#000000" stroke="none" />
</g>
<g transform="matrix(1.0000 0.0000 0.0000 1.0000 0.0000 0.0000)">
</g>
<g transform="matrix(0.0625 0.0000 0.0000 0.0625 0.0000 0.0000)">
<path d="M 564.0000,491.0000 C 631.0000,490.0000 651.0000,485.0000 665.0000,480.0000 C 665.0000,470.0000 666.0000,462.0000 666.0000,462.0000 C 666.0000,462.0000 622.0000,459.0000 550.0000,460.0000 C 549.0000,467.0000 549.0000,477.0000 549.0000,487.0000 C 549.0000,492.0000 548.0000,500.0000 548.0000,511.0000 C 548.0000,511.0000 548.0000,511.0000 549.0000,511.0000 C 549.0000,508.0000 549.0000,505.0000 549.0000,504.0000 C 549.0000,494.0000 563.0000,499.0000 564.0000,491.0000 "  fill="#000000" stroke="none" />
</g>
<g transform="matrix(1.0000 0.0000 0.0000 1.0000 0.0000 0.0000)">
</g>
<g transform="matrix(0.0625 0.0000 0.0000 0.0625 0.0000 0.0000)">
<path d="M 503.0000,189.0000 C 475.0000,178.0000 464.0000,162.0000 428.0000,173.0000 C 392.0000,184.0000 354.0000,242.0000 337.0000,278.0000 C 326.0000,302.0000 318.0000,326.0000 320.0000,346.0000 C 322.0000,330.0000 340.0000,319.0000 349.0000,301.0000 C 365.0000,265.0000 392.0000,214.0000 428.0000,203.0000 C 464.0000,192.0000 479.0000,204.0000 507.0000,215.0000 C 526.0000,223.0000 535.0000,201.0000 517.0000,192.0000 C 514.0000,193.0000 509.0000,192.0000 503.0000,189.0000 "  fill="#000000" stroke="none" />
</g>
<g transform="matrix(1.0000 0.0000 0.0000 1.0000 0.0000 0.0000)">
</g>
<g transform="matrix(0.0625 0.0000 0.0000 0.0625 0.0000 0.0000)">
<path d="M 765.0000,303.0000 C 770.0000,327.0000 821.0000,367.0000 850.0000,369.0000 C 866.0000,369.0000 877.0000,355.0000 863.0000,344.0000 C 860.0000,346.0000 856.0000,347.0000 850.0000,347.0000 C 822.0000,345.0000 779.0000,310.0000 773.0000,286.0000 C 771.0000,291.0000 764.0000,298.0000 765.0000,303.0000 "  fill="#000000" stroke="none" />
</g>
<g transform="matrix(1.0000 0.0000 0.0000 1.0000 0.0000 0.0000)">
</g>
<g transform="matrix(0.0625 0.0000 0.0000 0.0625 0.0000 0.0000)">
<path d="M 645.0000,320.0000 C 655.0000,342.0000 715.0000,371.0000 741.0000,366.0000 C 755.0000,363.0000 750.0000,350.0000 744.0000,340.0000 C 742.0000,342.0000 740.0000,343.0000 737.0000,343.0000 C 711.0000,348.0000 662.0000,323.0000 651.0000,300.0000 C 650.0000,297.0000 649.0000,294.0000 649.0000,291.0000 C 647.0000,300.0000 641.0000,312.0000 645.0000,320.0000 "  fill="#000000" stroke="none" />
</g>
<g transform="matrix(1.0000 0.0000 0.0000 1.0000 0.0000 0.0000)">
</g>
<g transform="matrix(0.0625 0.0000 0.0000 0.0625 0.0000 0.0000)">
<path d="M 519.0000,302.0000 C 518.0000,300.0000 517.0000,298.0000 517.0000,296.0000 C 510.0000,299.0000 507.0000,313.0000 510.0000,321.0000 C 519.0000,343.0000 580.0000,368.0000 601.0000,368.0000 C 615.0000,368.0000 622.0000,349.0000 606.0000,340.0000 C 603.0000,341.0000 600.0000,342.0000 596.0000,342.0000 C 576.0000,342.0000 527.0000,325.0000 519.0000,302.0000 "  fill="#000000" stroke="none" />
</g>
<g transform="matrix(1.0000 0.0000 0.0000 1.0000 0.0000 0.0000)">
</g>
<g transform="matrix(0.0625 0.0000 0.0000 0.0625 0.0000 0.0000)">
<path d="M 383.0000,566.0000 C 381.0000,565.0000 379.0000,564.0000 378.0000,562.0000 C 355.0000,566.0000 370.0000,604.0000 377.0000,607.0000 C 395.0000,616.0000 444.0000,617.0000 478.0000,589.0000 C 478.0000,583.0000 478.0000,575.0000 478.0000,570.0000 C 431.0000,572.0000 401.0000,575.0000 383.0000,566.0000 "  fill="#000000" stroke="none" />
</g>
<g transform="matrix(1.0000 0.0000 0.0000 1.0000 0.0000 0.0000)">
</g>
<g transform="matrix(0.0625 0.0000 0.0000 0.0625 0.0000 0.0000)">
<path d="M 478.0000,501.0000 C 478.0000,485.0000 478.0000,471.0000 478.0000,461.0000 C 434.0000,461.0000 383.0000,461.0000 357.0000,461.0000 C 315.0000,461.0000 299.0000,454.0000 271.0000,427.0000 C 245.0000,401.0000 212.0000,368.0000 208.0000,330.0000 C 208.0000,333.0000 207.0000,338.0000 207.0000,341.0000 C 207.0000,383.0000 229.0000,420.0000 257.0000,448.0000 C 284.0000,475.0000 313.0000,490.0000 354.0000,490.0000 C 380.0000,490.0000 425.0000,486.0000 469.0000,485.0000 C 470.0000,494.0000 478.0000,498.0000 478.0000,510.0000 L 478.0000,510.0000 C 478.0000,506.0000 478.0000,503.0000 478.0000,501.0000 Z "  fill="#000000" stroke="none" />
</g>
<g transform="matrix(1.0000 0.0000 0.0000 1.0000 0.0000 0.0000)">
</g>
<g transform="matrix(0.0625 0.0000 0.0000 0.0625 0.0000 0.0000)">
<path d="M 742.0000,496.0000 C 734.0000,530.0000 734.0000,630.0000 734.0000,666.0000 C 734.0000,667.0000 734.0000,667.0000 734.0000,668.0000 C 734.0000,624.0000 744.0000,544.0000 751.0000,514.0000 C 759.0000,480.0000 777.0000,465.0000 781.0000,459.0000 C 783.0000,456.0000 773.0000,443.0000 770.0000,434.0000 C 770.0000,436.0000 769.0000,438.0000 768.0000,440.0000 C 764.0000,446.0000 750.0000,462.0000 742.0000,496.0000 "  fill="#000000" stroke="none" />
</g>
<g transform="matrix(1.0000 0.0000 0.0000 1.0000 0.0000 0.0000)">
</g>
<g transform="matrix(0.0625 0.0000 0.0000 0.0625 0.0000 0.0000)">
<path d="M 402.0000,306.0000 C 401.0000,302.0000 400.0000,298.0000 399.0000,294.0000 C 397.0000,302.0000 390.0000,315.0000 394.0000,325.0000 C 404.0000,350.0000 457.0000,366.0000 479.0000,366.0000 C 494.0000,366.0000 508.0000,345.0000 488.0000,340.0000 C 486.0000,341.0000 483.0000,342.0000 478.0000,342.0000 C 456.0000,342.0000 412.0000,330.0000 402.0000,306.0000 "  fill="#000000" stroke="none" />
</g>
<g transform="matrix(1.0000 0.0000 0.0000 1.0000 0.0000 0.0000)">
</g>
<g transform="matrix(0.0625 0.0000 0.0000 0.0625 0.0000 0.0000)">
<path d="M 641.0000,706.0000 C 641.0000,706.0000 641.0000,688.0000 623.0000,686.0000 C 618.0000,691.0000 589.0000,688.0000 546.0000,688.0000 C 546.0000,694.0000 547.0000,700.0000 547.0000,705.0000 C 571.0000,725.0000 643.0000,715.0000 641.0000,706.0000 "  fill="#000000" stroke="none" />
</g>
<g transform="matrix(1.0000 0.0000 0.0000 1.0000 0.0000 0.0000)">
</g>
<g transform="matrix(0.0625 0.0000 0.0000 0.0625 0.0000 0.0000)">
<path d="M 642.0000,580.0000 C 642.0000,580.0000 629.0000,568.0000 627.0000,561.0000 C 618.0000,567.0000 592.0000,568.0000 547.0000,568.0000 C 547.0000,571.0000 547.0000,580.0000 547.0000,587.0000 C 548.0000,587.0000 552.0000,628.0000 552.0000,628.0000 C 553.0000,614.0000 572.0000,619.0000 572.0000,605.0000 C 628.0000,605.0000 644.0000,590.0000 642.0000,580.0000 "  fill="#000000" stroke="none" />
</g>
<g transform="matrix(1.0000 0.0000 0.0000 1.0000 0.0000 0.0000)">
</g>
<g transform="matrix(0.0625 0.0000 0.0000 0.0625 0.0000 0.0000)">
<path d="M 33.0000,708.0000 L 311.0000,972.0000 L 340.0000,984.0000 L 732.0000,984.0000 L 757.0000,975.0000 L 1038.0000,708.0000 L 1048.0000,683.0000 L 1048.0000,333.0000 L 1033.0000,295.0000 L 760.0000,36.0000 L 733.0000,24.0000 L 340.0000,24.0000 L 313.0000,35.0000 L 40.0000,295.0000 L 24.0000,329.0000 L 24.0000,683.0000 L 33.0000,708.0000 Z M 809.0000,247.0000 C 830.0000,239.0000 846.0000,253.0000 847.0000,275.0000 C 849.0000,298.0000 855.0000,326.0000 861.0000,341.0000 C 868.0000,355.0000 867.0000,364.0000 850.0000,363.0000 C 822.0000,362.0000 777.0000,325.0000 772.0000,301.0000 C 767.0000,277.0000 788.0000,255.0000 809.0000,247.0000 Z M 670.0000,256.0000 C 687.0000,243.0000 705.0000,253.0000 712.0000,275.0000 C 719.0000,296.0000 732.0000,323.0000 741.0000,336.0000 C 750.0000,348.0000 752.0000,357.0000 737.0000,360.0000 C 711.0000,365.0000 662.0000,339.0000 651.0000,317.0000 C 641.0000,295.0000 654.0000,268.0000 670.0000,256.0000 Z M 541.0000,259.0000 C 558.0000,248.0000 575.0000,259.0000 581.0000,281.0000 C 586.0000,303.0000 596.0000,325.0000 604.0000,338.0000 C 613.0000,351.0000 612.0000,358.0000 596.0000,358.0000 C 576.0000,358.0000 527.0000,342.0000 519.0000,319.0000 C 510.0000,296.0000 524.0000,271.0000 541.0000,259.0000 Z M 265.0000,231.0000 C 299.0000,195.0000 334.0000,154.0000 357.0000,134.0000 C 379.0000,115.0000 417.0000,93.0000 442.0000,110.0000 C 467.0000,126.0000 481.0000,157.0000 503.0000,176.0000 C 525.0000,195.0000 530.0000,217.0000 503.0000,206.0000 C 475.0000,195.0000 464.0000,179.0000 428.0000,190.0000 C 392.0000,201.0000 354.0000,259.0000 337.0000,294.0000 C 321.0000,330.0000 310.0000,366.0000 332.0000,388.0000 C 354.0000,410.0000 373.0000,416.0000 464.0000,416.0000 C 498.0000,416.0000 572.0000,414.0000 631.0000,410.0000 C 731.0000,404.0000 744.0000,410.0000 758.0000,418.0000 C 776.0000,428.0000 772.0000,450.0000 768.0000,456.0000 C 764.0000,462.0000 750.0000,478.0000 742.0000,512.0000 C 734.0000,547.0000 734.0000,647.0000 734.0000,683.0000 C 734.0000,743.0000 746.0000,811.0000 746.0000,811.0000 C 752.0000,835.0000 745.0000,841.0000 722.0000,849.0000 C 706.0000,855.0000 693.0000,848.0000 663.0000,844.0000 C 633.0000,840.0000 536.0000,835.0000 434.0000,844.0000 C 403.0000,846.0000 384.0000,847.0000 366.0000,833.0000 C 348.0000,819.0000 322.0000,789.0000 324.0000,779.0000 C 326.0000,769.0000 348.0000,767.0000 374.0000,765.0000 C 393.0000,764.0000 429.0000,766.0000 473.0000,767.0000 C 476.0000,762.0000 478.0000,753.0000 478.0000,742.0000 C 478.0000,737.0000 478.0000,724.0000 478.0000,706.0000 C 427.0000,708.0000 402.0000,712.0000 391.0000,711.0000 C 374.0000,708.0000 393.0000,665.0000 417.0000,653.0000 C 428.0000,648.0000 451.0000,645.0000 478.0000,645.0000 C 478.0000,626.0000 478.0000,607.0000 478.0000,589.0000 C 432.0000,591.0000 401.0000,594.0000 383.0000,586.0000 C 367.0000,578.0000 381.0000,548.0000 405.0000,536.0000 C 416.0000,530.0000 446.0000,527.0000 478.0000,527.0000 C 478.0000,523.0000 478.0000,520.0000 478.0000,518.0000 C 478.0000,502.0000 478.0000,489.0000 478.0000,479.0000 C 434.0000,479.0000 383.0000,479.0000 357.0000,479.0000 C 315.0000,479.0000 299.0000,471.0000 271.0000,444.0000 C 243.0000,416.0000 208.0000,383.0000 208.0000,341.0000 C 207.0000,300.0000 230.0000,270.0000 265.0000,231.0000 Z M 478.0000,359.0000 C 456.0000,359.0000 412.0000,347.0000 402.0000,323.0000 C 393.0000,298.0000 400.0000,278.0000 418.0000,265.0000 C 436.0000,253.0000 454.0000,265.0000 461.0000,288.0000 C 467.0000,312.0000 477.0000,323.0000 487.0000,337.0000 C 496.0000,351.0000 495.0000,359.0000 478.0000,359.0000 Z "  fill="#FFFFFF" stroke="none" />
</g>
<g transform="matrix(1.0000 0.0000 0.0000 1.0000 0.0000 0.0000)">
</g>
<g transform="matrix(0.0625 0.0000 0.0000 0.0625 0.0000 0.0000)">
<path d="M 546.0000,705.0000 C 547.0000,715.0000 547.0000,724.0000 547.0000,731.0000 C 548.0000,750.0000 549.0000,762.0000 551.0000,768.0000 C 562.0000,768.0000 573.0000,768.0000 584.0000,767.0000 C 643.0000,764.0000 660.0000,763.0000 660.0000,763.0000 C 660.0000,763.0000 660.0000,657.0000 662.0000,597.0000 C 664.0000,537.0000 666.0000,480.0000 666.0000,480.0000 C 666.0000,480.0000 622.0000,477.0000 550.0000,478.0000 C 549.0000,485.0000 549.0000,494.0000 549.0000,504.0000 C 549.0000,508.0000 548.0000,517.0000 548.0000,528.0000 C 559.0000,528.0000 569.0000,529.0000 577.0000,529.0000 C 626.0000,533.0000 630.0000,576.0000 630.0000,576.0000 C 632.0000,585.0000 603.0000,587.0000 547.0000,587.0000 C 547.0000,606.0000 547.0000,626.0000 547.0000,646.0000 C 559.0000,646.0000 570.0000,647.0000 580.0000,648.0000 C 628.0000,652.0000 624.0000,700.0000 624.0000,700.0000 C 626.0000,709.0000 595.0000,706.0000 546.0000,705.0000 "  fill="#FFFFFF" stroke="none" />
</g>
<g transform="matrix(1.0000 0.0000 0.0000 1.0000 0.0000 0.0000)">
</g>
</g>
</svg>
