<?xml version="1.0"  encoding="UTF-8" standalone="no"?>
<svg version="1.1" xmlns="http://www.w3.org/2000/svg" xmlns:xlink="http://www.w3.org/1999/xlink" width="65.0000" height="68.0000">
<g transform="translate(-1.0000, -1.0000)">
<g transform="matrix(0.0625 0.0000 0.0000 0.0625 0.0000 0.0000)">
<path d="M 341.0000,122.0000 L 316.0000,131.0000 L 35.0000,397.0000 L 24.0000,422.0000 L 24.0000,787.0000 L 40.0000,825.0000 L 312.0000,1084.0000 L 340.0000,1096.0000 L 553.0000,1096.0000 C 512.0000,773.0000 493.0000,448.0000 489.0000,122.0000 L 341.0000,122.0000 L 341.0000,122.0000 Z "  fill="#D40000" stroke="none" />
</g>
<g transform="matrix(1.0000 0.0000 0.0000 1.0000 0.0000 0.0000)">
</g>
<g transform="matrix(0.0625 0.0000 0.0000 0.0625 0.0000 0.0000)">
<path d="M 1039.0000,397.0000 L 762.0000,133.0000 L 733.0000,122.0000 L 489.0000,122.0000 C 493.0000,448.0000 512.0000,773.0000 553.0000,1096.0000 L 733.0000,1096.0000 L 760.0000,1085.0000 L 1032.0000,825.0000 L 1048.0000,791.0000 L 1048.0000,422.0000 L 1039.0000,397.0000 Z "  fill="#D40000" stroke="none" />
</g>
<g transform="matrix(1.0000 0.0000 0.0000 1.0000 0.0000 0.0000)">
<path d="M 20.0000,9.0000 L 3.0000,25.0000 L 2.0000,27.0000 L 2.0000,50.0000 L 3.0000,52.0000 L 20.0000,68.0000 L 20.0000,68.0000 L 20.0000,9.0000 L 20.0000,9.0000 " fill="none" stroke="none" />
<defs><clipPath id="clip-16807"><path d="M 20.0000,9.0000 L 3.0000,25.0000 L 2.0000,27.0000 L 2.0000,50.0000 L 3.0000,52.0000 L 20.0000,68.0000 L 20.0000,68.0000 L 20.0000,9.0000 L 20.0000,9.0000 Z" /></clipPath></defs>
<path  clip-path="url(#clip-16807)" d="M 0.0000,7.0000 L 0.0000,69.0000 L 1.0000,69.0000 L 1.0000,7.0000 L 0.0000,7.0000 Z" stroke-width="1px" stroke="#B40A0D"  fill="#B40A0D" />
<path  clip-path="url(#clip-16807)" d="M 1.0000,7.0000 L 1.0000,69.0000 L 2.0000,69.0000 L 2.0000,7.0000 L 1.0000,7.0000 Z" stroke-width="1px" stroke="#DB1412"  fill="#DB1412" />
<path  clip-path="url(#clip-16807)" d="M 2.0000,7.0000 L 2.0000,69.0000 L 3.0000,69.0000 L 3.0000,7.0000 L 2.0000,7.0000 Z" stroke-width="1px" stroke="#D91312"  fill="#D91312" />
<path  clip-path="url(#clip-16807)" d="M 3.0000,7.0000 L 3.0000,69.0000 L 4.0000,69.0000 L 4.0000,7.0000 L 3.0000,7.0000 Z" stroke-width="1px" stroke="#D71311"  fill="#D71311" />
<path  clip-path="url(#clip-16807)" d="M 4.0000,7.0000 L 4.0000,69.0000 L 5.0000,69.0000 L 5.0000,7.0000 L 4.0000,7.0000 Z" stroke-width="1px" stroke="#D51211"  fill="#D51211" />
<path  clip-path="url(#clip-16807)" d="M 5.0000,7.0000 L 5.0000,69.0000 L 6.0000,69.0000 L 6.0000,7.0000 L 5.0000,7.0000 Z" stroke-width="1px" stroke="#D31211"  fill="#D31211" />
<path  clip-path="url(#clip-16807)" d="M 6.0000,7.0000 L 6.0000,69.0000 L 7.0000,69.0000 L 7.0000,7.0000 L 6.0000,7.0000 Z" stroke-width="1px" stroke="#D11211"  fill="#D11211" />
<path  clip-path="url(#clip-16807)" d="M 7.0000,7.0000 L 7.0000,69.0000 L 8.0000,69.0000 L 8.0000,7.0000 L 7.0000,7.0000 Z" stroke-width="1px" stroke="#CF1110"  fill="#CF1110" />
<path  clip-path="url(#clip-16807)" d="M 8.0000,7.0000 L 8.0000,69.0000 L 9.0000,69.0000 L 9.0000,7.0000 L 8.0000,7.0000 Z" stroke-width="1px" stroke="#CD1010"  fill="#CD1010" />
<path  clip-path="url(#clip-16807)" d="M 9.0000,7.0000 L 9.0000,69.0000 L 10.0000,69.0000 L 10.0000,7.0000 L 9.0000,7.0000 Z" stroke-width="1px" stroke="#CB1010"  fill="#CB1010" />
<path  clip-path="url(#clip-16807)" d="M 10.0000,7.0000 L 10.0000,69.0000 L 11.0000,69.0000 L 11.0000,7.0000 L 10.0000,7.0000 Z" stroke-width="1px" stroke="#C91010"  fill="#C91010" />
<path  clip-path="url(#clip-16807)" d="M 11.0000,7.0000 L 11.0000,69.0000 L 12.0000,69.0000 L 12.0000,7.0000 L 11.0000,7.0000 Z" stroke-width="1px" stroke="#C70F10"  fill="#C70F10" />
<path  clip-path="url(#clip-16807)" d="M 12.0000,7.0000 L 12.0000,69.0000 L 13.0000,69.0000 L 13.0000,7.0000 L 12.0000,7.0000 Z" stroke-width="1px" stroke="#C50E0F"  fill="#C50E0F" />
<path  clip-path="url(#clip-16807)" d="M 13.0000,7.0000 L 13.0000,69.0000 L 14.0000,69.0000 L 14.0000,7.0000 L 13.0000,7.0000 Z" stroke-width="1px" stroke="#C30E0F"  fill="#C30E0F" />
<path  clip-path="url(#clip-16807)" d="M 14.0000,7.0000 L 14.0000,69.0000 L 15.0000,69.0000 L 15.0000,7.0000 L 14.0000,7.0000 Z" stroke-width="1px" stroke="#C10D0F"  fill="#C10D0F" />
<path  clip-path="url(#clip-16807)" d="M 15.0000,7.0000 L 15.0000,69.0000 L 16.0000,69.0000 L 16.0000,7.0000 L 15.0000,7.0000 Z" stroke-width="1px" stroke="#BF0D0F"  fill="#BF0D0F" />
<path  clip-path="url(#clip-16807)" d="M 16.0000,7.0000 L 16.0000,69.0000 L 17.0000,69.0000 L 17.0000,7.0000 L 16.0000,7.0000 Z" stroke-width="1px" stroke="#BD0D0E"  fill="#BD0D0E" />
<path  clip-path="url(#clip-16807)" d="M 17.0000,7.0000 L 17.0000,69.0000 L 18.0000,69.0000 L 18.0000,7.0000 L 17.0000,7.0000 Z" stroke-width="1px" stroke="#BB0C0E"  fill="#BB0C0E" />
<path  clip-path="url(#clip-16807)" d="M 18.0000,7.0000 L 18.0000,69.0000 L 19.0000,69.0000 L 19.0000,7.0000 L 18.0000,7.0000 Z" stroke-width="1px" stroke="#B90B0E"  fill="#B90B0E" />
<path  clip-path="url(#clip-16807)" d="M 19.0000,7.0000 L 19.0000,69.0000 L 20.0000,69.0000 L 20.0000,7.0000 L 19.0000,7.0000 Z" stroke-width="1px" stroke="#B70B0E"  fill="#B70B0E" />
<path  clip-path="url(#clip-16807)" d="M 20.0000,7.0000 L 20.0000,69.0000 L 21.0000,69.0000 L 21.0000,7.0000 L 20.0000,7.0000 Z" stroke-width="1px" stroke="#B50B0D"  fill="#B50B0D" />
<path d="M 65.0000,25.0000 L 48.0000,9.0000 L 47.0000,9.0000 L 47.0000,68.0000 L 48.0000,68.0000 L 65.0000,52.0000 L 66.0000,50.0000 L 66.0000,27.0000 L 65.0000,25.0000 " fill="none" stroke="none" />
<defs><clipPath id="clip-282475249"><path d="M 65.0000,25.0000 L 48.0000,9.0000 L 47.0000,9.0000 L 47.0000,68.0000 L 48.0000,68.0000 L 65.0000,52.0000 L 66.0000,50.0000 L 66.0000,27.0000 L 65.0000,25.0000 Z" /></clipPath></defs>
<path  clip-path="url(#clip-282475249)" d="M 46.0000,7.0000 L 46.0000,69.0000 L 47.0000,69.0000 L 47.0000,7.0000 L 46.0000,7.0000 Z" stroke-width="1px" stroke="#8B0000"  fill="#8B0000" />
<path  clip-path="url(#clip-282475249)" d="M 47.0000,7.0000 L 47.0000,69.0000 L 48.0000,69.0000 L 48.0000,7.0000 L 47.0000,7.0000 Z" stroke-width="1px" stroke="#8D0000"  fill="#8D0000" />
<path  clip-path="url(#clip-282475249)" d="M 48.0000,7.0000 L 48.0000,69.0000 L 49.0000,69.0000 L 49.0000,7.0000 L 48.0000,7.0000 Z" stroke-width="1px" stroke="#8F0000"  fill="#8F0000" />
<path  clip-path="url(#clip-282475249)" d="M 49.0000,7.0000 L 49.0000,69.0000 L 50.0000,69.0000 L 50.0000,7.0000 L 49.0000,7.0000 Z" stroke-width="1px" stroke="#910000"  fill="#910000" />
<path  clip-path="url(#clip-282475249)" d="M 50.0000,7.0000 L 50.0000,69.0000 L 51.0000,69.0000 L 51.0000,7.0000 L 50.0000,7.0000 Z" stroke-width="1px" stroke="#930000"  fill="#930000" />
<path  clip-path="url(#clip-282475249)" d="M 51.0000,7.0000 L 51.0000,69.0000 L 52.0000,69.0000 L 52.0000,7.0000 L 51.0000,7.0000 Z" stroke-width="1px" stroke="#950000"  fill="#950000" />
<path  clip-path="url(#clip-282475249)" d="M 52.0000,7.0000 L 52.0000,69.0000 L 53.0000,69.0000 L 53.0000,7.0000 L 52.0000,7.0000 Z" stroke-width="1px" stroke="#970000"  fill="#970000" />
<path  clip-path="url(#clip-282475249)" d="M 53.0000,7.0000 L 53.0000,69.0000 L 54.0000,69.0000 L 54.0000,7.0000 L 53.0000,7.0000 Z" stroke-width="1px" stroke="#990000"  fill="#990000" />
<path  clip-path="url(#clip-282475249)" d="M 54.0000,7.0000 L 54.0000,69.0000 L 55.0000,69.0000 L 55.0000,7.0000 L 54.0000,7.0000 Z" stroke-width="1px" stroke="#9B0000"  fill="#9B0000" />
<path  clip-path="url(#clip-282475249)" d="M 55.0000,7.0000 L 55.0000,69.0000 L 56.0000,69.0000 L 56.0000,7.0000 L 55.0000,7.0000 Z" stroke-width="1px" stroke="#9D0000"  fill="#9D0000" />
<path  clip-path="url(#clip-282475249)" d="M 56.0000,7.0000 L 56.0000,69.0000 L 57.0000,69.0000 L 57.0000,7.0000 L 56.0000,7.0000 Z" stroke-width="1px" stroke="#9F0000"  fill="#9F0000" />
<path  clip-path="url(#clip-282475249)" d="M 57.0000,7.0000 L 57.0000,69.0000 L 58.0000,69.0000 L 58.0000,7.0000 L 57.0000,7.0000 Z" stroke-width="1px" stroke="#A10000"  fill="#A10000" />
<path  clip-path="url(#clip-282475249)" d="M 58.0000,7.0000 L 58.0000,69.0000 L 59.0000,69.0000 L 59.0000,7.0000 L 58.0000,7.0000 Z" stroke-width="1px" stroke="#A30000"  fill="#A30000" />
<path  clip-path="url(#clip-282475249)" d="M 59.0000,7.0000 L 59.0000,69.0000 L 60.0000,69.0000 L 60.0000,7.0000 L 59.0000,7.0000 Z" stroke-width="1px" stroke="#A40000"  fill="#A40000" />
<path  clip-path="url(#clip-282475249)" d="M 60.0000,7.0000 L 60.0000,69.0000 L 61.0000,69.0000 L 61.0000,7.0000 L 60.0000,7.0000 Z" stroke-width="1px" stroke="#A70000"  fill="#A70000" />
<path  clip-path="url(#clip-282475249)" d="M 61.0000,7.0000 L 61.0000,69.0000 L 62.0000,69.0000 L 62.0000,7.0000 L 61.0000,7.0000 Z" stroke-width="1px" stroke="#A80000"  fill="#A80000" />
<path  clip-path="url(#clip-282475249)" d="M 62.0000,7.0000 L 62.0000,69.0000 L 63.0000,69.0000 L 63.0000,7.0000 L 62.0000,7.0000 Z" stroke-width="1px" stroke="#AB0000"  fill="#AB0000" />
<path  clip-path="url(#clip-282475249)" d="M 63.0000,7.0000 L 63.0000,69.0000 L 64.0000,69.0000 L 64.0000,7.0000 L 63.0000,7.0000 Z" stroke-width="1px" stroke="#AD0000"  fill="#AD0000" />
<path  clip-path="url(#clip-282475249)" d="M 64.0000,7.0000 L 64.0000,69.0000 L 65.0000,69.0000 L 65.0000,7.0000 L 64.0000,7.0000 Z" stroke-width="1px" stroke="#AE0000"  fill="#AE0000" />
<path  clip-path="url(#clip-282475249)" d="M 65.0000,7.0000 L 65.0000,69.0000 L 66.0000,69.0000 L 66.0000,7.0000 L 65.0000,7.0000 Z" stroke-width="1px" stroke="#B10000"  fill="#B10000" />
<path  clip-path="url(#clip-282475249)" d="M 66.0000,7.0000 L 66.0000,69.0000 L 67.0000,69.0000 L 67.0000,7.0000 L 66.0000,7.0000 Z" stroke-width="1px" stroke="#B20000"  fill="#B20000" />
<defs><clipPath id="clip-1622650073"><path d="M 21.0000,8.0000 L 47.0000,8.0000 L 47.0000,69.0000 L 21.0000,69.0000 L 21.0000,8.0000 Z Z" /></clipPath></defs>
<path  clip-path="url(#clip-1622650073)" d="M 19.0000,6.0000 L 19.0000,69.0000 L 20.0000,69.0000 L 20.0000,6.0000 L 19.0000,6.0000 Z" stroke-width="1px" stroke="#B32116"  fill="#B32116" />
<path  clip-path="url(#clip-1622650073)" d="M 20.0000,6.0000 L 20.0000,69.0000 L 21.0000,69.0000 L 21.0000,6.0000 L 20.0000,6.0000 Z" stroke-width="1px" stroke="#9D000A"  fill="#9D000A" />
<path  clip-path="url(#clip-1622650073)" d="M 21.0000,6.0000 L 21.0000,69.0000 L 22.0000,69.0000 L 22.0000,6.0000 L 21.0000,6.0000 Z" stroke-width="1px" stroke="#9E020B"  fill="#9E020B" />
<path  clip-path="url(#clip-1622650073)" d="M 22.0000,6.0000 L 22.0000,69.0000 L 23.0000,69.0000 L 23.0000,6.0000 L 22.0000,6.0000 Z" stroke-width="1px" stroke="#9F030B"  fill="#9F030B" />
<path  clip-path="url(#clip-1622650073)" d="M 23.0000,6.0000 L 23.0000,69.0000 L 24.0000,69.0000 L 24.0000,6.0000 L 23.0000,6.0000 Z" stroke-width="1px" stroke="#A0040C"  fill="#A0040C" />
<path  clip-path="url(#clip-1622650073)" d="M 24.0000,6.0000 L 24.0000,69.0000 L 25.0000,69.0000 L 25.0000,6.0000 L 24.0000,6.0000 Z" stroke-width="1px" stroke="#A1050C"  fill="#A1050C" />
<path  clip-path="url(#clip-1622650073)" d="M 25.0000,6.0000 L 25.0000,69.0000 L 26.0000,69.0000 L 26.0000,6.0000 L 25.0000,6.0000 Z" stroke-width="1px" stroke="#A1060C"  fill="#A1060C" />
<path  clip-path="url(#clip-1622650073)" d="M 26.0000,6.0000 L 26.0000,69.0000 L 27.0000,69.0000 L 27.0000,6.0000 L 26.0000,6.0000 Z" stroke-width="1px" stroke="#A2080D"  fill="#A2080D" />
<path  clip-path="url(#clip-1622650073)" d="M 27.0000,6.0000 L 27.0000,69.0000 L 28.0000,69.0000 L 28.0000,6.0000 L 27.0000,6.0000 Z" stroke-width="1px" stroke="#A30A0D"  fill="#A30A0D" />
<path  clip-path="url(#clip-1622650073)" d="M 28.0000,6.0000 L 28.0000,69.0000 L 29.0000,69.0000 L 29.0000,6.0000 L 28.0000,6.0000 Z" stroke-width="1px" stroke="#A40B0E"  fill="#A40B0E" />
<path  clip-path="url(#clip-1622650073)" d="M 29.0000,6.0000 L 29.0000,69.0000 L 30.0000,69.0000 L 30.0000,6.0000 L 29.0000,6.0000 Z" stroke-width="1px" stroke="#A40C0E"  fill="#A40C0E" />
<path  clip-path="url(#clip-1622650073)" d="M 30.0000,6.0000 L 30.0000,69.0000 L 31.0000,69.0000 L 31.0000,6.0000 L 30.0000,6.0000 Z" stroke-width="1px" stroke="#A50D0F"  fill="#A50D0F" />
<path  clip-path="url(#clip-1622650073)" d="M 31.0000,6.0000 L 31.0000,69.0000 L 32.0000,69.0000 L 32.0000,6.0000 L 31.0000,6.0000 Z" stroke-width="1px" stroke="#A60E0F"  fill="#A60E0F" />
<path  clip-path="url(#clip-1622650073)" d="M 32.0000,6.0000 L 32.0000,69.0000 L 33.0000,69.0000 L 33.0000,6.0000 L 32.0000,6.0000 Z" stroke-width="1px" stroke="#A70F0F"  fill="#A70F0F" />
<path  clip-path="url(#clip-1622650073)" d="M 33.0000,6.0000 L 33.0000,69.0000 L 34.0000,69.0000 L 34.0000,6.0000 L 33.0000,6.0000 Z" stroke-width="1px" stroke="#A81010"  fill="#A81010" />
<path  clip-path="url(#clip-1622650073)" d="M 34.0000,6.0000 L 34.0000,69.0000 L 35.0000,69.0000 L 35.0000,6.0000 L 34.0000,6.0000 Z" stroke-width="1px" stroke="#A81210"  fill="#A81210" />
<path  clip-path="url(#clip-1622650073)" d="M 35.0000,6.0000 L 35.0000,69.0000 L 36.0000,69.0000 L 36.0000,6.0000 L 35.0000,6.0000 Z" stroke-width="1px" stroke="#A91311"  fill="#A91311" />
<path  clip-path="url(#clip-1622650073)" d="M 36.0000,6.0000 L 36.0000,69.0000 L 37.0000,69.0000 L 37.0000,6.0000 L 36.0000,6.0000 Z" stroke-width="1px" stroke="#AA1411"  fill="#AA1411" />
<path  clip-path="url(#clip-1622650073)" d="M 37.0000,6.0000 L 37.0000,69.0000 L 38.0000,69.0000 L 38.0000,6.0000 L 37.0000,6.0000 Z" stroke-width="1px" stroke="#AB1512"  fill="#AB1512" />
<path  clip-path="url(#clip-1622650073)" d="M 38.0000,6.0000 L 38.0000,69.0000 L 39.0000,69.0000 L 39.0000,6.0000 L 38.0000,6.0000 Z" stroke-width="1px" stroke="#AC1612"  fill="#AC1612" />
<path  clip-path="url(#clip-1622650073)" d="M 39.0000,6.0000 L 39.0000,69.0000 L 40.0000,69.0000 L 40.0000,6.0000 L 39.0000,6.0000 Z" stroke-width="1px" stroke="#AC1812"  fill="#AC1812" />
<path  clip-path="url(#clip-1622650073)" d="M 40.0000,6.0000 L 40.0000,69.0000 L 41.0000,69.0000 L 41.0000,6.0000 L 40.0000,6.0000 Z" stroke-width="1px" stroke="#AE1913"  fill="#AE1913" />
<path  clip-path="url(#clip-1622650073)" d="M 41.0000,6.0000 L 41.0000,69.0000 L 42.0000,69.0000 L 42.0000,6.0000 L 41.0000,6.0000 Z" stroke-width="1px" stroke="#AE1B13"  fill="#AE1B13" />
<path  clip-path="url(#clip-1622650073)" d="M 42.0000,6.0000 L 42.0000,69.0000 L 43.0000,69.0000 L 43.0000,6.0000 L 42.0000,6.0000 Z" stroke-width="1px" stroke="#AF1C14"  fill="#AF1C14" />
<path  clip-path="url(#clip-1622650073)" d="M 43.0000,6.0000 L 43.0000,69.0000 L 44.0000,69.0000 L 44.0000,6.0000 L 43.0000,6.0000 Z" stroke-width="1px" stroke="#AF1D14"  fill="#AF1D14" />
<path  clip-path="url(#clip-1622650073)" d="M 44.0000,6.0000 L 44.0000,69.0000 L 45.0000,69.0000 L 45.0000,6.0000 L 44.0000,6.0000 Z" stroke-width="1px" stroke="#B01E15"  fill="#B01E15" />
<path  clip-path="url(#clip-1622650073)" d="M 45.0000,6.0000 L 45.0000,69.0000 L 46.0000,69.0000 L 46.0000,6.0000 L 45.0000,6.0000 Z" stroke-width="1px" stroke="#B11F15"  fill="#B11F15" />
<path  clip-path="url(#clip-1622650073)" d="M 46.0000,6.0000 L 46.0000,69.0000 L 47.0000,69.0000 L 47.0000,6.0000 L 46.0000,6.0000 Z" stroke-width="1px" stroke="#B22015"  fill="#B22015" />
</g>
<g transform="matrix(0.0625 0.0000 0.0000 0.0625 0.0000 0.0000)">
<path d="M 731.0000,100.0000 L 970.0000,328.0000 L 978.0000,349.0000 L 978.0000,668.0000 L 964.0000,697.0000 L 729.0000,921.0000 L 706.0000,930.0000 L 367.0000,930.0000 L 343.0000,920.0000 L 108.0000,697.0000 L 95.0000,664.0000 L 95.0000,350.0000 L 104.0000,328.0000 L 347.0000,98.0000 L 368.0000,90.0000 L 706.0000,90.0000 L 731.0000,100.0000 Z" stroke-width="1px" stroke="#FFFFFF"  fill="#FFFFFF" />
</g>
<g transform="matrix(1.0000 0.0000 0.0000 1.0000 0.0000 0.0000)">
</g>
<g transform="matrix(0.0625 0.0000 0.0000 0.0625 0.0000 0.0000)">
<path d="M 319.0000,911.0000 L 711.0000,916.0000 L 1048.0000,672.0000 L 1048.0000,694.0000 L 1032.0000,728.0000 L 760.0000,988.0000 L 733.0000,998.0000 L 340.0000,998.0000 L 312.0000,987.0000 L 40.0000,728.0000 L 24.0000,689.0000 L 24.0000,667.0000 L 319.0000,911.0000 Z" stroke-width="1px" stroke="#D40000"  fill="#D40000" />
</g>
<g transform="matrix(1.0000 0.0000 0.0000 1.0000 0.0000 0.0000)">
</g>
<g transform="matrix(0.0625 0.0000 0.0000 0.0625 0.0000 0.0000)">
<path d="M 350.0000,177.0000 C 366.0000,171.0000 378.0000,178.0000 409.0000,182.0000 C 439.0000,186.0000 536.0000,191.0000 638.0000,182.0000 C 668.0000,180.0000 688.0000,179.0000 706.0000,193.0000 C 719.0000,203.0000 737.0000,222.0000 744.0000,236.0000 C 746.0000,234.0000 749.0000,231.0000 749.0000,229.0000 C 751.0000,219.0000 741.0000,180.0000 723.0000,166.0000 C 705.0000,152.0000 670.0000,147.0000 640.0000,149.0000 C 538.0000,158.0000 449.0000,148.0000 419.0000,144.0000 C 389.0000,140.0000 346.0000,135.0000 330.0000,142.0000 C 309.0000,150.0000 307.0000,177.0000 325.0000,194.0000 C 327.0000,186.0000 335.0000,182.0000 350.0000,177.0000 "  fill="#000000" stroke="none" />
</g>
<g transform="matrix(1.0000 0.0000 0.0000 1.0000 0.0000 0.0000)">
</g>
<g transform="matrix(0.0625 0.0000 0.0000 0.0625 0.0000 0.0000)">
<path d="M 682.0000,315.0000 C 684.0000,315.0000 685.0000,316.0000 686.0000,317.0000 C 707.0000,313.0000 692.0000,287.0000 684.0000,286.0000 C 674.0000,285.0000 620.0000,275.0000 595.0000,302.0000 C 595.0000,307.0000 595.0000,313.0000 595.0000,320.0000 C 645.0000,318.0000 671.0000,313.0000 682.0000,315.0000 "  fill="#000000" stroke="none" />
</g>
<g transform="matrix(1.0000 0.0000 0.0000 1.0000 0.0000 0.0000)">
</g>
<g transform="matrix(0.0625 0.0000 0.0000 0.0625 0.0000 0.0000)">
<path d="M 509.0000,517.0000 C 442.0000,518.0000 421.0000,524.0000 408.0000,528.0000 C 407.0000,538.0000 407.0000,546.0000 407.0000,546.0000 C 407.0000,546.0000 451.0000,549.0000 523.0000,548.0000 C 524.0000,541.0000 524.0000,531.0000 524.0000,521.0000 C 524.0000,517.0000 524.0000,508.0000 524.0000,497.0000 C 524.0000,497.0000 524.0000,497.0000 524.0000,497.0000 C 524.0000,500.0000 524.0000,503.0000 524.0000,505.0000 C 524.0000,514.0000 510.0000,510.0000 509.0000,517.0000 "  fill="#000000" stroke="none" />
</g>
<g transform="matrix(1.0000 0.0000 0.0000 1.0000 0.0000 0.0000)">
</g>
<g transform="matrix(0.0625 0.0000 0.0000 0.0625 0.0000 0.0000)">
<path d="M 570.0000,819.0000 C 598.0000,830.0000 609.0000,846.0000 644.0000,835.0000 C 680.0000,824.0000 719.0000,766.0000 736.0000,730.0000 C 747.0000,706.0000 755.0000,682.0000 753.0000,662.0000 C 751.0000,678.0000 732.0000,689.0000 724.0000,707.0000 C 707.0000,743.0000 681.0000,794.0000 645.0000,805.0000 C 609.0000,816.0000 594.0000,804.0000 566.0000,793.0000 C 546.0000,785.0000 538.0000,807.0000 556.0000,816.0000 C 559.0000,815.0000 563.0000,816.0000 570.0000,819.0000 "  fill="#000000" stroke="none" />
</g>
<g transform="matrix(1.0000 0.0000 0.0000 1.0000 0.0000 0.0000)">
</g>
<g transform="matrix(0.0625 0.0000 0.0000 0.0625 0.0000 0.0000)">
<path d="M 307.0000,705.0000 C 303.0000,681.0000 251.0000,641.0000 223.0000,640.0000 C 207.0000,639.0000 196.0000,653.0000 210.0000,664.0000 C 212.0000,662.0000 216.0000,661.0000 222.0000,662.0000 C 251.0000,663.0000 294.0000,699.0000 300.0000,722.0000 C 301.0000,718.0000 308.0000,710.0000 307.0000,705.0000 "  fill="#000000" stroke="none" />
</g>
<g transform="matrix(1.0000 0.0000 0.0000 1.0000 0.0000 0.0000)">
</g>
<g transform="matrix(0.0625 0.0000 0.0000 0.0625 0.0000 0.0000)">
<path d="M 428.0000,688.0000 C 418.0000,666.0000 357.0000,637.0000 331.0000,642.0000 C 318.0000,645.0000 322.0000,658.0000 329.0000,668.0000 C 330.0000,667.0000 333.0000,666.0000 336.0000,665.0000 C 362.0000,660.0000 411.0000,685.0000 421.0000,708.0000 C 423.0000,711.0000 424.0000,714.0000 424.0000,717.0000 C 426.0000,708.0000 432.0000,697.0000 428.0000,688.0000 "  fill="#000000" stroke="none" />
</g>
<g transform="matrix(1.0000 0.0000 0.0000 1.0000 0.0000 0.0000)">
</g>
<g transform="matrix(0.0625 0.0000 0.0000 0.0625 0.0000 0.0000)">
<path d="M 554.0000,706.0000 C 555.0000,708.0000 555.0000,710.0000 556.0000,712.0000 C 563.0000,709.0000 566.0000,695.0000 563.0000,688.0000 C 554.0000,665.0000 493.0000,640.0000 472.0000,640.0000 C 457.0000,640.0000 451.0000,659.0000 467.0000,668.0000 C 469.0000,667.0000 472.0000,667.0000 476.0000,667.0000 C 497.0000,667.0000 545.0000,683.0000 554.0000,706.0000 "  fill="#000000" stroke="none" />
</g>
<g transform="matrix(1.0000 0.0000 0.0000 1.0000 0.0000 0.0000)">
</g>
<g transform="matrix(0.0625 0.0000 0.0000 0.0625 0.0000 0.0000)">
<path d="M 690.0000,442.0000 C 692.0000,443.0000 694.0000,444.0000 695.0000,446.0000 C 718.0000,442.0000 703.0000,404.0000 696.0000,401.0000 C 677.0000,392.0000 628.0000,391.0000 595.0000,419.0000 C 595.0000,425.0000 595.0000,433.0000 595.0000,439.0000 C 641.0000,436.0000 671.0000,433.0000 690.0000,442.0000 "  fill="#000000" stroke="none" />
</g>
<g transform="matrix(1.0000 0.0000 0.0000 1.0000 0.0000 0.0000)">
</g>
<g transform="matrix(0.0625 0.0000 0.0000 0.0625 0.0000 0.0000)">
<path d="M 594.0000,507.0000 C 594.0000,523.0000 595.0000,537.0000 595.0000,547.0000 C 639.0000,547.0000 690.0000,547.0000 716.0000,547.0000 C 758.0000,547.0000 774.0000,554.0000 802.0000,581.0000 C 828.0000,607.0000 861.0000,640.0000 865.0000,678.0000 C 865.0000,675.0000 865.0000,670.0000 865.0000,667.0000 C 865.0000,625.0000 844.0000,588.0000 816.0000,560.0000 C 788.0000,533.0000 760.0000,518.0000 719.0000,518.0000 C 692.0000,518.0000 648.0000,523.0000 603.0000,523.0000 C 603.0000,515.0000 594.0000,510.0000 594.0000,498.0000 L 594.0000,498.0000 C 594.0000,502.0000 594.0000,505.0000 594.0000,507.0000 Z "  fill="#000000" stroke="none" />
</g>
<g transform="matrix(1.0000 0.0000 0.0000 1.0000 0.0000 0.0000)">
</g>
<g transform="matrix(0.0625 0.0000 0.0000 0.0625 0.0000 0.0000)">
<path d="M 331.0000,512.0000 C 339.0000,478.0000 339.0000,378.0000 339.0000,342.0000 C 339.0000,341.0000 339.0000,341.0000 339.0000,341.0000 C 339.0000,384.0000 328.0000,464.0000 321.0000,494.0000 C 313.0000,528.0000 296.0000,543.0000 292.0000,549.0000 C 290.0000,553.0000 300.0000,565.0000 302.0000,574.0000 C 303.0000,572.0000 304.0000,570.0000 305.0000,569.0000 C 309.0000,563.0000 323.0000,547.0000 331.0000,512.0000 "  fill="#000000" stroke="none" />
</g>
<g transform="matrix(1.0000 0.0000 0.0000 1.0000 0.0000 0.0000)">
</g>
<g transform="matrix(0.0625 0.0000 0.0000 0.0625 0.0000 0.0000)">
<path d="M 670.0000,702.0000 C 672.0000,706.0000 673.0000,711.0000 674.0000,715.0000 C 675.0000,706.0000 683.0000,693.0000 679.0000,683.0000 C 669.0000,659.0000 616.0000,642.0000 594.0000,642.0000 C 579.0000,642.0000 565.0000,663.0000 584.0000,668.0000 C 587.0000,667.0000 590.0000,666.0000 595.0000,666.0000 C 617.0000,666.0000 661.0000,678.0000 670.0000,702.0000 "  fill="#000000" stroke="none" />
</g>
<g transform="matrix(1.0000 0.0000 0.0000 1.0000 0.0000 0.0000)">
</g>
<g transform="matrix(0.0625 0.0000 0.0000 0.0625 0.0000 0.0000)">
<path d="M 431.0000,302.0000 C 431.0000,302.0000 432.0000,320.0000 449.0000,322.0000 C 455.0000,317.0000 484.0000,320.0000 526.0000,321.0000 C 526.0000,314.0000 526.0000,308.0000 526.0000,303.0000 C 502.0000,283.0000 429.0000,293.0000 431.0000,302.0000 "  fill="#000000" stroke="none" />
</g>
<g transform="matrix(1.0000 0.0000 0.0000 1.0000 0.0000 0.0000)">
</g>
<g transform="matrix(0.0625 0.0000 0.0000 0.0625 0.0000 0.0000)">
<path d="M 431.0000,428.0000 C 431.0000,428.0000 444.0000,440.0000 446.0000,447.0000 C 455.0000,442.0000 481.0000,441.0000 525.0000,440.0000 C 525.0000,437.0000 525.0000,428.0000 525.0000,421.0000 C 525.0000,421.0000 520.0000,380.0000 520.0000,380.0000 C 520.0000,394.0000 501.0000,390.0000 500.0000,403.0000 C 444.0000,403.0000 429.0000,418.0000 431.0000,428.0000 "  fill="#000000" stroke="none" />
</g>
<g transform="matrix(1.0000 0.0000 0.0000 1.0000 0.0000 0.0000)">
</g>
<g transform="matrix(0.0625 0.0000 0.0000 0.0625 0.0000 0.0000)">
<path d="M 1039.0000,300.0000 L 762.0000,36.0000 L 733.0000,24.0000 L 341.0000,24.0000 L 316.0000,33.0000 L 35.0000,300.0000 L 24.0000,325.0000 L 24.0000,675.0000 L 40.0000,713.0000 L 312.0000,972.0000 L 340.0000,984.0000 L 733.0000,984.0000 L 760.0000,973.0000 L 1032.0000,714.0000 L 1048.0000,680.0000 L 1048.0000,325.0000 L 1039.0000,300.0000 Z M 264.0000,762.0000 C 243.0000,770.0000 227.0000,755.0000 226.0000,733.0000 C 224.0000,710.0000 218.0000,682.0000 211.0000,667.0000 C 205.0000,653.0000 205.0000,644.0000 222.0000,645.0000 C 251.0000,647.0000 296.0000,683.0000 301.0000,707.0000 C 305.0000,731.0000 285.0000,754.0000 264.0000,762.0000 Z M 402.0000,753.0000 C 386.0000,765.0000 368.0000,755.0000 361.0000,733.0000 C 354.0000,712.0000 341.0000,685.0000 332.0000,673.0000 C 323.0000,660.0000 321.0000,651.0000 336.0000,648.0000 C 362.0000,643.0000 411.0000,669.0000 421.0000,691.0000 C 432.0000,713.0000 419.0000,740.0000 402.0000,753.0000 Z M 532.0000,749.0000 C 515.0000,760.0000 498.0000,749.0000 492.0000,727.0000 C 486.0000,705.0000 477.0000,683.0000 468.0000,670.0000 C 460.0000,657.0000 461.0000,650.0000 476.0000,650.0000 C 497.0000,650.0000 545.0000,666.0000 554.0000,689.0000 C 563.0000,712.0000 549.0000,737.0000 532.0000,749.0000 Z M 807.0000,777.0000 C 774.0000,813.0000 738.0000,854.0000 716.0000,874.0000 C 694.0000,893.0000 656.0000,915.0000 631.0000,899.0000 C 606.0000,882.0000 592.0000,852.0000 570.0000,832.0000 C 548.0000,813.0000 542.0000,791.0000 570.0000,802.0000 C 598.0000,813.0000 609.0000,830.0000 644.0000,819.0000 C 680.0000,808.0000 719.0000,750.0000 736.0000,714.0000 C 752.0000,678.0000 763.0000,642.0000 741.0000,620.0000 C 719.0000,598.0000 700.0000,592.0000 609.0000,592.0000 C 575.0000,592.0000 501.0000,595.0000 442.0000,598.0000 C 342.0000,604.0000 329.0000,598.0000 315.0000,590.0000 C 297.0000,580.0000 301.0000,558.0000 305.0000,552.0000 C 309.0000,546.0000 323.0000,530.0000 331.0000,496.0000 C 339.0000,462.0000 339.0000,361.0000 339.0000,325.0000 C 339.0000,265.0000 327.0000,197.0000 327.0000,197.0000 C 321.0000,173.0000 328.0000,168.0000 351.0000,159.0000 C 367.0000,153.0000 380.0000,160.0000 410.0000,165.0000 C 440.0000,169.0000 537.0000,173.0000 639.0000,165.0000 C 670.0000,162.0000 689.0000,161.0000 707.0000,175.0000 C 725.0000,189.0000 751.0000,219.0000 749.0000,229.0000 C 747.0000,239.0000 725.0000,242.0000 699.0000,243.0000 C 680.0000,244.0000 644.0000,242.0000 600.0000,241.0000 C 597.0000,247.0000 595.0000,255.0000 595.0000,267.0000 C 595.0000,271.0000 595.0000,285.0000 595.0000,302.0000 C 645.0000,300.0000 671.0000,296.0000 682.0000,297.0000 C 699.0000,300.0000 680.0000,343.0000 655.0000,355.0000 C 645.0000,360.0000 622.0000,363.0000 595.0000,363.0000 C 595.0000,382.0000 595.0000,401.0000 594.0000,419.0000 C 641.0000,417.0000 671.0000,414.0000 690.0000,422.0000 C 705.0000,430.0000 692.0000,461.0000 668.0000,473.0000 C 656.0000,478.0000 627.0000,481.0000 594.0000,482.0000 C 594.0000,485.0000 594.0000,488.0000 594.0000,490.0000 C 594.0000,506.0000 595.0000,519.0000 595.0000,529.0000 C 639.0000,529.0000 690.0000,529.0000 716.0000,529.0000 C 758.0000,529.0000 774.0000,537.0000 802.0000,565.0000 C 829.0000,592.0000 865.0000,625.0000 865.0000,667.0000 C 865.0000,708.0000 843.0000,739.0000 807.0000,777.0000 Z M 595.0000,650.0000 C 617.0000,649.0000 661.0000,661.0000 670.0000,686.0000 C 680.0000,710.0000 673.0000,730.0000 655.0000,743.0000 C 637.0000,755.0000 618.0000,743.0000 612.0000,720.0000 C 606.0000,697.0000 595.0000,685.0000 586.0000,671.0000 C 577.0000,657.0000 578.0000,650.0000 595.0000,650.0000 Z "  fill="#FF0000" stroke="none" />
</g>
<g transform="matrix(1.0000 0.0000 0.0000 1.0000 0.0000 0.0000)">
</g>
<g transform="matrix(0.0625 0.0000 0.0000 0.0625 0.0000 0.0000)">
<path d="M 526.0000,303.0000 C 526.0000,293.0000 526.0000,284.0000 526.0000,278.0000 C 525.0000,258.0000 523.0000,246.0000 522.0000,240.0000 C 511.0000,240.0000 500.0000,241.0000 488.0000,241.0000 C 430.0000,244.0000 413.0000,245.0000 413.0000,245.0000 C 413.0000,245.0000 413.0000,351.0000 411.0000,411.0000 C 409.0000,471.0000 407.0000,528.0000 407.0000,528.0000 C 407.0000,528.0000 451.0000,532.0000 523.0000,530.0000 C 524.0000,523.0000 524.0000,514.0000 524.0000,505.0000 C 524.0000,500.0000 524.0000,491.0000 524.0000,481.0000 C 514.0000,480.0000 504.0000,479.0000 495.0000,479.0000 C 447.0000,475.0000 443.0000,433.0000 443.0000,433.0000 C 441.0000,423.0000 469.0000,421.0000 525.0000,421.0000 C 526.0000,402.0000 526.0000,382.0000 526.0000,363.0000 C 514.0000,362.0000 502.0000,361.0000 493.0000,360.0000 C 445.0000,356.0000 449.0000,308.0000 449.0000,308.0000 C 447.0000,299.0000 478.0000,302.0000 526.0000,303.0000 "  fill="#FF0000" stroke="none" />
</g>
<g transform="matrix(1.0000 0.0000 0.0000 1.0000 0.0000 0.0000)">
</g>
</g>
</svg>
