<?xml version="1.0"  encoding="UTF-8" standalone="no"?>
<svg version="1.1" xmlns="http://www.w3.org/2000/svg" xmlns:xlink="http://www.w3.org/1999/xlink" width="65.0000" height="68.0000">
<g transform="translate(-1.0000, -1.0000)">
<g transform="matrix(0.0625 0.0000 0.0000 0.0625 0.0000 0.0000)">
<path d="M 341.0000,122.0000 L 316.0000,131.0000 L 35.0000,397.0000 L 24.0000,422.0000 L 24.0000,787.0000 L 40.0000,825.0000 L 312.0000,1084.0000 L 340.0000,1096.0000 L 553.0000,1096.0000 C 512.0000,773.0000 493.0000,448.0000 489.0000,122.0000 L 341.0000,122.0000 L 341.0000,122.0000 Z "  fill="#1E26C7" stroke="none" />
</g>
<g transform="matrix(1.0000 0.0000 0.0000 1.0000 0.0000 0.0000)">
</g>
<g transform="matrix(0.0625 0.0000 0.0000 0.0625 0.0000 0.0000)">
<path d="M 1039.0000,397.0000 L 762.0000,133.0000 L 733.0000,122.0000 L 489.0000,122.0000 C 493.0000,448.0000 512.0000,773.0000 553.0000,1096.0000 L 733.0000,1096.0000 L 760.0000,1085.0000 L 1032.0000,825.0000 L 1048.0000,791.0000 L 1048.0000,422.0000 L 1039.0000,397.0000 Z "  fill="#1E26C7" stroke="none" />
</g>
<g transform="matrix(1.0000 0.0000 0.0000 1.0000 0.0000 0.0000)">
<path d="M 20.0000,9.0000 L 3.0000,25.0000 L 2.0000,27.0000 L 2.0000,50.0000 L 3.0000,52.0000 L 20.0000,68.0000 L 20.0000,68.0000 L 20.0000,9.0000 L 20.0000,9.0000 " fill="none" stroke="none" />
<defs><clipPath id="clip-16807"><path d="M 20.0000,9.0000 L 3.0000,25.0000 L 2.0000,27.0000 L 2.0000,50.0000 L 3.0000,52.0000 L 20.0000,68.0000 L 20.0000,68.0000 L 20.0000,9.0000 L 20.0000,9.0000 Z" /></clipPath></defs>
<path  clip-path="url(#clip-16807)" d="M 0.0000,7.0000 L 0.0000,69.0000 L 1.0000,69.0000 L 1.0000,7.0000 L 0.0000,7.0000 Z" stroke-width="1px" stroke="#01019B"  fill="#01019B" />
<path  clip-path="url(#clip-16807)" d="M 1.0000,7.0000 L 1.0000,69.0000 L 2.0000,69.0000 L 2.0000,7.0000 L 1.0000,7.0000 Z" stroke-width="1px" stroke="#2520BA"  fill="#2520BA" />
<path  clip-path="url(#clip-16807)" d="M 2.0000,7.0000 L 2.0000,69.0000 L 3.0000,69.0000 L 3.0000,7.0000 L 2.0000,7.0000 Z" stroke-width="1px" stroke="#231FB9"  fill="#231FB9" />
<path  clip-path="url(#clip-16807)" d="M 3.0000,7.0000 L 3.0000,69.0000 L 4.0000,69.0000 L 4.0000,7.0000 L 3.0000,7.0000 Z" stroke-width="1px" stroke="#211DB7"  fill="#211DB7" />
<path  clip-path="url(#clip-16807)" d="M 4.0000,7.0000 L 4.0000,69.0000 L 5.0000,69.0000 L 5.0000,7.0000 L 4.0000,7.0000 Z" stroke-width="1px" stroke="#201CB6"  fill="#201CB6" />
<path  clip-path="url(#clip-16807)" d="M 5.0000,7.0000 L 5.0000,69.0000 L 6.0000,69.0000 L 6.0000,7.0000 L 5.0000,7.0000 Z" stroke-width="1px" stroke="#1E1AB4"  fill="#1E1AB4" />
<path  clip-path="url(#clip-16807)" d="M 6.0000,7.0000 L 6.0000,69.0000 L 7.0000,69.0000 L 7.0000,7.0000 L 6.0000,7.0000 Z" stroke-width="1px" stroke="#1C18B2"  fill="#1C18B2" />
<path  clip-path="url(#clip-16807)" d="M 7.0000,7.0000 L 7.0000,69.0000 L 8.0000,69.0000 L 8.0000,7.0000 L 7.0000,7.0000 Z" stroke-width="1px" stroke="#1A17B1"  fill="#1A17B1" />
<path  clip-path="url(#clip-16807)" d="M 8.0000,7.0000 L 8.0000,69.0000 L 9.0000,69.0000 L 9.0000,7.0000 L 8.0000,7.0000 Z" stroke-width="1px" stroke="#1815AF"  fill="#1815AF" />
<path  clip-path="url(#clip-16807)" d="M 9.0000,7.0000 L 9.0000,69.0000 L 10.0000,69.0000 L 10.0000,7.0000 L 9.0000,7.0000 Z" stroke-width="1px" stroke="#1614AE"  fill="#1614AE" />
<path  clip-path="url(#clip-16807)" d="M 10.0000,7.0000 L 10.0000,69.0000 L 11.0000,69.0000 L 11.0000,7.0000 L 10.0000,7.0000 Z" stroke-width="1px" stroke="#1412AC"  fill="#1412AC" />
<path  clip-path="url(#clip-16807)" d="M 11.0000,7.0000 L 11.0000,69.0000 L 12.0000,69.0000 L 12.0000,7.0000 L 11.0000,7.0000 Z" stroke-width="1px" stroke="#1310AA"  fill="#1310AA" />
<path  clip-path="url(#clip-16807)" d="M 12.0000,7.0000 L 12.0000,69.0000 L 13.0000,69.0000 L 13.0000,7.0000 L 12.0000,7.0000 Z" stroke-width="1px" stroke="#110EA8"  fill="#110EA8" />
<path  clip-path="url(#clip-16807)" d="M 13.0000,7.0000 L 13.0000,69.0000 L 14.0000,69.0000 L 14.0000,7.0000 L 13.0000,7.0000 Z" stroke-width="1px" stroke="#0F0CA6"  fill="#0F0CA6" />
<path  clip-path="url(#clip-16807)" d="M 14.0000,7.0000 L 14.0000,69.0000 L 15.0000,69.0000 L 15.0000,7.0000 L 14.0000,7.0000 Z" stroke-width="1px" stroke="#0D0BA5"  fill="#0D0BA5" />
<path  clip-path="url(#clip-16807)" d="M 15.0000,7.0000 L 15.0000,69.0000 L 16.0000,69.0000 L 16.0000,7.0000 L 15.0000,7.0000 Z" stroke-width="1px" stroke="#0B09A3"  fill="#0B09A3" />
<path  clip-path="url(#clip-16807)" d="M 16.0000,7.0000 L 16.0000,69.0000 L 17.0000,69.0000 L 17.0000,7.0000 L 16.0000,7.0000 Z" stroke-width="1px" stroke="#0A08A2"  fill="#0A08A2" />
<path  clip-path="url(#clip-16807)" d="M 17.0000,7.0000 L 17.0000,69.0000 L 18.0000,69.0000 L 18.0000,7.0000 L 17.0000,7.0000 Z" stroke-width="1px" stroke="#0706A0"  fill="#0706A0" />
<path  clip-path="url(#clip-16807)" d="M 18.0000,7.0000 L 18.0000,69.0000 L 19.0000,69.0000 L 19.0000,7.0000 L 18.0000,7.0000 Z" stroke-width="1px" stroke="#06059F"  fill="#06059F" />
<path  clip-path="url(#clip-16807)" d="M 19.0000,7.0000 L 19.0000,69.0000 L 20.0000,69.0000 L 20.0000,7.0000 L 19.0000,7.0000 Z" stroke-width="1px" stroke="#04039D"  fill="#04039D" />
<path  clip-path="url(#clip-16807)" d="M 20.0000,7.0000 L 20.0000,69.0000 L 21.0000,69.0000 L 21.0000,7.0000 L 20.0000,7.0000 Z" stroke-width="1px" stroke="#02029C"  fill="#02029C" />
<path d="M 65.0000,25.0000 L 48.0000,9.0000 L 47.0000,9.0000 L 47.0000,68.0000 L 48.0000,68.0000 L 65.0000,52.0000 L 66.0000,50.0000 L 66.0000,27.0000 L 65.0000,25.0000 " fill="none" stroke="none" />
<defs><clipPath id="clip-282475249"><path d="M 65.0000,25.0000 L 48.0000,9.0000 L 47.0000,9.0000 L 47.0000,68.0000 L 48.0000,68.0000 L 65.0000,52.0000 L 66.0000,50.0000 L 66.0000,27.0000 L 65.0000,25.0000 Z" /></clipPath></defs>
<path  clip-path="url(#clip-282475249)" d="M 46.0000,7.0000 L 46.0000,69.0000 L 47.0000,69.0000 L 47.0000,7.0000 L 46.0000,7.0000 Z" stroke-width="1px" stroke="#000065"  fill="#000065" />
<path  clip-path="url(#clip-282475249)" d="M 47.0000,7.0000 L 47.0000,69.0000 L 48.0000,69.0000 L 48.0000,7.0000 L 47.0000,7.0000 Z" stroke-width="1px" stroke="#020267"  fill="#020267" />
<path  clip-path="url(#clip-282475249)" d="M 48.0000,7.0000 L 48.0000,69.0000 L 49.0000,69.0000 L 49.0000,7.0000 L 48.0000,7.0000 Z" stroke-width="1px" stroke="#030369"  fill="#030369" />
<path  clip-path="url(#clip-282475249)" d="M 49.0000,7.0000 L 49.0000,69.0000 L 50.0000,69.0000 L 50.0000,7.0000 L 49.0000,7.0000 Z" stroke-width="1px" stroke="#05046B"  fill="#05046B" />
<path  clip-path="url(#clip-282475249)" d="M 50.0000,7.0000 L 50.0000,69.0000 L 51.0000,69.0000 L 51.0000,7.0000 L 50.0000,7.0000 Z" stroke-width="1px" stroke="#06056D"  fill="#06056D" />
<path  clip-path="url(#clip-282475249)" d="M 51.0000,7.0000 L 51.0000,69.0000 L 52.0000,69.0000 L 52.0000,7.0000 L 51.0000,7.0000 Z" stroke-width="1px" stroke="#08076F"  fill="#08076F" />
<path  clip-path="url(#clip-282475249)" d="M 52.0000,7.0000 L 52.0000,69.0000 L 53.0000,69.0000 L 53.0000,7.0000 L 52.0000,7.0000 Z" stroke-width="1px" stroke="#090871"  fill="#090871" />
<path  clip-path="url(#clip-282475249)" d="M 53.0000,7.0000 L 53.0000,69.0000 L 54.0000,69.0000 L 54.0000,7.0000 L 53.0000,7.0000 Z" stroke-width="1px" stroke="#0B0A73"  fill="#0B0A73" />
<path  clip-path="url(#clip-282475249)" d="M 54.0000,7.0000 L 54.0000,69.0000 L 55.0000,69.0000 L 55.0000,7.0000 L 54.0000,7.0000 Z" stroke-width="1px" stroke="#0D0B75"  fill="#0D0B75" />
<path  clip-path="url(#clip-282475249)" d="M 55.0000,7.0000 L 55.0000,69.0000 L 56.0000,69.0000 L 56.0000,7.0000 L 55.0000,7.0000 Z" stroke-width="1px" stroke="#0E0C77"  fill="#0E0C77" />
<path  clip-path="url(#clip-282475249)" d="M 56.0000,7.0000 L 56.0000,69.0000 L 57.0000,69.0000 L 57.0000,7.0000 L 56.0000,7.0000 Z" stroke-width="1px" stroke="#100E79"  fill="#100E79" />
<path  clip-path="url(#clip-282475249)" d="M 57.0000,7.0000 L 57.0000,69.0000 L 58.0000,69.0000 L 58.0000,7.0000 L 57.0000,7.0000 Z" stroke-width="1px" stroke="#120F7B"  fill="#120F7B" />
<path  clip-path="url(#clip-282475249)" d="M 58.0000,7.0000 L 58.0000,69.0000 L 59.0000,69.0000 L 59.0000,7.0000 L 58.0000,7.0000 Z" stroke-width="1px" stroke="#14117D"  fill="#14117D" />
<path  clip-path="url(#clip-282475249)" d="M 59.0000,7.0000 L 59.0000,69.0000 L 60.0000,69.0000 L 60.0000,7.0000 L 59.0000,7.0000 Z" stroke-width="1px" stroke="#15127E"  fill="#15127E" />
<path  clip-path="url(#clip-282475249)" d="M 60.0000,7.0000 L 60.0000,69.0000 L 61.0000,69.0000 L 61.0000,7.0000 L 60.0000,7.0000 Z" stroke-width="1px" stroke="#171381"  fill="#171381" />
<path  clip-path="url(#clip-282475249)" d="M 61.0000,7.0000 L 61.0000,69.0000 L 62.0000,69.0000 L 62.0000,7.0000 L 61.0000,7.0000 Z" stroke-width="1px" stroke="#181482"  fill="#181482" />
<path  clip-path="url(#clip-282475249)" d="M 62.0000,7.0000 L 62.0000,69.0000 L 63.0000,69.0000 L 63.0000,7.0000 L 62.0000,7.0000 Z" stroke-width="1px" stroke="#1A1685"  fill="#1A1685" />
<path  clip-path="url(#clip-282475249)" d="M 63.0000,7.0000 L 63.0000,69.0000 L 64.0000,69.0000 L 64.0000,7.0000 L 63.0000,7.0000 Z" stroke-width="1px" stroke="#1C1887"  fill="#1C1887" />
<path  clip-path="url(#clip-282475249)" d="M 64.0000,7.0000 L 64.0000,69.0000 L 65.0000,69.0000 L 65.0000,7.0000 L 64.0000,7.0000 Z" stroke-width="1px" stroke="#1D1988"  fill="#1D1988" />
<path  clip-path="url(#clip-282475249)" d="M 65.0000,7.0000 L 65.0000,69.0000 L 66.0000,69.0000 L 66.0000,7.0000 L 65.0000,7.0000 Z" stroke-width="1px" stroke="#1F1A8B"  fill="#1F1A8B" />
<path  clip-path="url(#clip-282475249)" d="M 66.0000,7.0000 L 66.0000,69.0000 L 67.0000,69.0000 L 67.0000,7.0000 L 66.0000,7.0000 Z" stroke-width="1px" stroke="#201B8C"  fill="#201B8C" />
<defs><clipPath id="clip-1622650073"><path d="M 21.0000,8.0000 L 47.0000,8.0000 L 47.0000,69.0000 L 21.0000,69.0000 L 21.0000,8.0000 Z Z" /></clipPath></defs>
<path  clip-path="url(#clip-1622650073)" d="M 19.0000,6.0000 L 19.0000,69.0000 L 20.0000,69.0000 L 20.0000,6.0000 L 19.0000,6.0000 Z" stroke-width="1px" stroke="#181B99"  fill="#181B99" />
<path  clip-path="url(#clip-1622650073)" d="M 20.0000,6.0000 L 20.0000,69.0000 L 21.0000,69.0000 L 21.0000,6.0000 L 20.0000,6.0000 Z" stroke-width="1px" stroke="#000070"  fill="#000070" />
<path  clip-path="url(#clip-1622650073)" d="M 21.0000,6.0000 L 21.0000,69.0000 L 22.0000,69.0000 L 22.0000,6.0000 L 21.0000,6.0000 Z" stroke-width="1px" stroke="#020271"  fill="#020271" />
<path  clip-path="url(#clip-1622650073)" d="M 22.0000,6.0000 L 22.0000,69.0000 L 23.0000,69.0000 L 23.0000,6.0000 L 22.0000,6.0000 Z" stroke-width="1px" stroke="#020373"  fill="#020373" />
<path  clip-path="url(#clip-1622650073)" d="M 23.0000,6.0000 L 23.0000,69.0000 L 24.0000,69.0000 L 24.0000,6.0000 L 23.0000,6.0000 Z" stroke-width="1px" stroke="#030474"  fill="#030474" />
<path  clip-path="url(#clip-1622650073)" d="M 24.0000,6.0000 L 24.0000,69.0000 L 25.0000,69.0000 L 25.0000,6.0000 L 24.0000,6.0000 Z" stroke-width="1px" stroke="#040576"  fill="#040576" />
<path  clip-path="url(#clip-1622650073)" d="M 25.0000,6.0000 L 25.0000,69.0000 L 26.0000,69.0000 L 26.0000,6.0000 L 25.0000,6.0000 Z" stroke-width="1px" stroke="#050577"  fill="#050577" />
<path  clip-path="url(#clip-1622650073)" d="M 26.0000,6.0000 L 26.0000,69.0000 L 27.0000,69.0000 L 27.0000,6.0000 L 26.0000,6.0000 Z" stroke-width="1px" stroke="#060679"  fill="#060679" />
<path  clip-path="url(#clip-1622650073)" d="M 27.0000,6.0000 L 27.0000,69.0000 L 28.0000,69.0000 L 28.0000,6.0000 L 27.0000,6.0000 Z" stroke-width="1px" stroke="#07087B"  fill="#07087B" />
<path  clip-path="url(#clip-1622650073)" d="M 28.0000,6.0000 L 28.0000,69.0000 L 29.0000,69.0000 L 29.0000,6.0000 L 28.0000,6.0000 Z" stroke-width="1px" stroke="#08097C"  fill="#08097C" />
<path  clip-path="url(#clip-1622650073)" d="M 29.0000,6.0000 L 29.0000,69.0000 L 30.0000,69.0000 L 30.0000,6.0000 L 29.0000,6.0000 Z" stroke-width="1px" stroke="#080A7D"  fill="#080A7D" />
<path  clip-path="url(#clip-1622650073)" d="M 30.0000,6.0000 L 30.0000,69.0000 L 31.0000,69.0000 L 31.0000,6.0000 L 30.0000,6.0000 Z" stroke-width="1px" stroke="#090B7F"  fill="#090B7F" />
<path  clip-path="url(#clip-1622650073)" d="M 31.0000,6.0000 L 31.0000,69.0000 L 32.0000,69.0000 L 32.0000,6.0000 L 31.0000,6.0000 Z" stroke-width="1px" stroke="#0A0C81"  fill="#0A0C81" />
<path  clip-path="url(#clip-1622650073)" d="M 32.0000,6.0000 L 32.0000,69.0000 L 33.0000,69.0000 L 33.0000,6.0000 L 32.0000,6.0000 Z" stroke-width="1px" stroke="#0B0C82"  fill="#0B0C82" />
<path  clip-path="url(#clip-1622650073)" d="M 33.0000,6.0000 L 33.0000,69.0000 L 34.0000,69.0000 L 34.0000,6.0000 L 33.0000,6.0000 Z" stroke-width="1px" stroke="#0C0D84"  fill="#0C0D84" />
<path  clip-path="url(#clip-1622650073)" d="M 34.0000,6.0000 L 34.0000,69.0000 L 35.0000,69.0000 L 35.0000,6.0000 L 34.0000,6.0000 Z" stroke-width="1px" stroke="#0D0F86"  fill="#0D0F86" />
<path  clip-path="url(#clip-1622650073)" d="M 35.0000,6.0000 L 35.0000,69.0000 L 36.0000,69.0000 L 36.0000,6.0000 L 35.0000,6.0000 Z" stroke-width="1px" stroke="#0E1087"  fill="#0E1087" />
<path  clip-path="url(#clip-1622650073)" d="M 36.0000,6.0000 L 36.0000,69.0000 L 37.0000,69.0000 L 37.0000,6.0000 L 36.0000,6.0000 Z" stroke-width="1px" stroke="#0F1188"  fill="#0F1188" />
<path  clip-path="url(#clip-1622650073)" d="M 37.0000,6.0000 L 37.0000,69.0000 L 38.0000,69.0000 L 38.0000,6.0000 L 37.0000,6.0000 Z" stroke-width="1px" stroke="#10128A"  fill="#10128A" />
<path  clip-path="url(#clip-1622650073)" d="M 38.0000,6.0000 L 38.0000,69.0000 L 39.0000,69.0000 L 39.0000,6.0000 L 38.0000,6.0000 Z" stroke-width="1px" stroke="#11138C"  fill="#11138C" />
<path  clip-path="url(#clip-1622650073)" d="M 39.0000,6.0000 L 39.0000,69.0000 L 40.0000,69.0000 L 40.0000,6.0000 L 39.0000,6.0000 Z" stroke-width="1px" stroke="#11138D"  fill="#11138D" />
<path  clip-path="url(#clip-1622650073)" d="M 40.0000,6.0000 L 40.0000,69.0000 L 41.0000,69.0000 L 41.0000,6.0000 L 40.0000,6.0000 Z" stroke-width="1px" stroke="#13158F"  fill="#13158F" />
<path  clip-path="url(#clip-1622650073)" d="M 41.0000,6.0000 L 41.0000,69.0000 L 42.0000,69.0000 L 42.0000,6.0000 L 41.0000,6.0000 Z" stroke-width="1px" stroke="#131690"  fill="#131690" />
<path  clip-path="url(#clip-1622650073)" d="M 42.0000,6.0000 L 42.0000,69.0000 L 43.0000,69.0000 L 43.0000,6.0000 L 42.0000,6.0000 Z" stroke-width="1px" stroke="#141792"  fill="#141792" />
<path  clip-path="url(#clip-1622650073)" d="M 43.0000,6.0000 L 43.0000,69.0000 L 44.0000,69.0000 L 44.0000,6.0000 L 43.0000,6.0000 Z" stroke-width="1px" stroke="#151893"  fill="#151893" />
<path  clip-path="url(#clip-1622650073)" d="M 44.0000,6.0000 L 44.0000,69.0000 L 45.0000,69.0000 L 45.0000,6.0000 L 44.0000,6.0000 Z" stroke-width="1px" stroke="#161995"  fill="#161995" />
<path  clip-path="url(#clip-1622650073)" d="M 45.0000,6.0000 L 45.0000,69.0000 L 46.0000,69.0000 L 46.0000,6.0000 L 45.0000,6.0000 Z" stroke-width="1px" stroke="#171A96"  fill="#171A96" />
<path  clip-path="url(#clip-1622650073)" d="M 46.0000,6.0000 L 46.0000,69.0000 L 47.0000,69.0000 L 47.0000,6.0000 L 46.0000,6.0000 Z" stroke-width="1px" stroke="#171A98"  fill="#171A98" />
</g>
<g transform="matrix(0.0625 0.0000 0.0000 0.0625 0.0000 0.0000)">
<path d="M 731.0000,100.0000 L 970.0000,328.0000 L 978.0000,349.0000 L 978.0000,668.0000 L 964.0000,697.0000 L 729.0000,921.0000 L 706.0000,930.0000 L 367.0000,930.0000 L 343.0000,920.0000 L 108.0000,697.0000 L 95.0000,664.0000 L 95.0000,350.0000 L 104.0000,328.0000 L 347.0000,98.0000 L 368.0000,90.0000 L 706.0000,90.0000 L 731.0000,100.0000 Z" stroke-width="1px" stroke="#FFFFFF"  fill="#FFFFFF" />
</g>
<g transform="matrix(1.0000 0.0000 0.0000 1.0000 0.0000 0.0000)">
</g>
<g transform="matrix(0.0625 0.0000 0.0000 0.0625 0.0000 0.0000)">
<path d="M 359.0000,884.0000 L 727.0000,884.0000 L 1048.0000,672.0000 L 1048.0000,694.0000 L 1032.0000,728.0000 L 760.0000,988.0000 L 733.0000,998.0000 L 340.0000,998.0000 L 312.0000,987.0000 L 40.0000,728.0000 L 24.0000,689.0000 L 24.0000,667.0000 L 359.0000,884.0000 Z" stroke-width="1px" stroke="#0000AC"  fill="#0000AC" />
</g>
<g transform="matrix(1.0000 0.0000 0.0000 1.0000 0.0000 0.0000)">
</g>
<g transform="matrix(0.0625 0.0000 0.0000 0.0625 0.0000 0.0000)">
<path d="M 588.0000,725.0000 C 517.0000,733.0000 408.0000,741.0000 370.0000,717.0000 C 358.0000,709.0000 340.0000,710.0000 337.0000,704.0000 C 333.0000,718.0000 338.0000,730.0000 359.0000,744.0000 C 397.0000,768.0000 529.0000,774.0000 600.0000,766.0000 C 671.0000,757.0000 715.0000,741.0000 737.0000,703.0000 C 745.0000,689.0000 747.0000,675.0000 746.0000,662.0000 C 745.0000,670.0000 713.0000,657.0000 708.0000,666.0000 C 686.0000,704.0000 660.0000,717.0000 588.0000,725.0000 "  fill="#000000" stroke="none" />
</g>
<g transform="matrix(1.0000 0.0000 0.0000 1.0000 0.0000 0.0000)">
</g>
<g transform="matrix(0.0625 0.0000 0.0000 0.0625 0.0000 0.0000)">
<path d="M 415.0000,606.0000 C 447.0000,609.0000 481.0000,611.0000 501.0000,609.0000 C 545.0000,607.0000 584.0000,620.0000 597.0000,637.0000 C 601.0000,641.0000 607.0000,648.0000 608.0000,664.0000 C 611.0000,654.0000 624.0000,620.0000 617.0000,612.0000 C 603.0000,595.0000 544.0000,571.0000 500.0000,574.0000 C 480.0000,575.0000 438.0000,578.0000 416.0000,587.0000 L 415.0000,606.0000 Z "  fill="#000000" stroke="none" />
</g>
<g transform="matrix(1.0000 0.0000 0.0000 1.0000 0.0000 0.0000)">
</g>
<g transform="matrix(0.0625 0.0000 0.0000 0.0625 0.0000 0.0000)">
<path d="M 307.0000,516.0000 C 337.0000,497.0000 403.0000,499.0000 431.0000,501.0000 C 435.0000,494.0000 439.0000,488.0000 441.0000,483.0000 C 444.0000,476.0000 444.0000,458.0000 442.0000,452.0000 C 442.0000,453.0000 433.0000,462.0000 432.0000,464.0000 C 430.0000,468.0000 423.0000,464.0000 418.0000,471.0000 C 390.0000,469.0000 300.0000,468.0000 270.0000,488.0000 C 249.0000,501.0000 246.0000,542.0000 274.0000,552.0000 C 278.0000,537.0000 291.0000,526.0000 307.0000,516.0000 "  fill="#000000" stroke="none" />
</g>
<g transform="matrix(1.0000 0.0000 0.0000 1.0000 0.0000 0.0000)">
</g>
<g transform="matrix(0.0625 0.0000 0.0000 0.0625 0.0000 0.0000)">
<path d="M 550.0000,441.0000 C 552.0000,435.0000 562.0000,427.0000 560.0000,423.0000 C 547.0000,397.0000 496.0000,369.0000 438.0000,372.0000 C 400.0000,374.0000 341.0000,423.0000 397.0000,415.0000 C 398.0000,415.0000 398.0000,415.0000 399.0000,415.0000 C 410.0000,411.0000 427.0000,407.0000 444.0000,406.0000 C 501.0000,404.0000 537.0000,415.0000 550.0000,441.0000 "  fill="#000000" stroke="none" />
</g>
<g transform="matrix(1.0000 0.0000 0.0000 1.0000 0.0000 0.0000)">
</g>
<g transform="matrix(0.0625 0.0000 0.0000 0.0625 0.0000 0.0000)">
<path d="M 394.0000,195.0000 C 405.0000,165.0000 393.0000,154.0000 416.0000,162.0000 C 452.0000,174.0000 479.0000,192.0000 486.0000,207.0000 C 487.0000,204.0000 499.0000,197.0000 499.0000,195.0000 C 499.0000,178.0000 460.0000,142.0000 419.0000,128.0000 C 395.0000,120.0000 380.0000,143.0000 369.0000,174.0000 C 358.0000,204.0000 285.0000,259.0000 263.0000,281.0000 C 242.0000,302.0000 262.0000,338.0000 270.0000,353.0000 C 275.0000,339.0000 289.0000,322.0000 304.0000,308.0000 C 326.0000,286.0000 384.0000,225.0000 394.0000,195.0000 "  fill="#000000" stroke="none" />
</g>
<g transform="matrix(1.0000 0.0000 0.0000 1.0000 0.0000 0.0000)">
</g>
<g transform="matrix(0.0625 0.0000 0.0000 0.0625 0.0000 0.0000)">
<path d="M 550.0000,471.0000 C 704.0000,499.0000 782.0000,559.0000 814.0000,594.0000 C 831.0000,613.0000 821.0000,673.0000 817.0000,711.0000 C 817.0000,667.0000 796.0000,642.0000 781.0000,626.0000 C 748.0000,590.0000 685.0000,530.0000 523.0000,502.0000 L 523.0000,484.0000 L 550.0000,471.0000 Z "  fill="#000000" stroke="none" />
</g>
<g transform="matrix(1.0000 0.0000 0.0000 1.0000 0.0000 0.0000)">
</g>
<g transform="matrix(0.0625 0.0000 0.0000 0.0625 0.0000 0.0000)">
<path d="M 441.0000,267.0000 C 444.0000,267.0000 443.0000,270.0000 448.0000,270.0000 C 470.0000,270.0000 525.0000,246.0000 594.0000,238.0000 C 662.0000,230.0000 748.0000,240.0000 784.0000,243.0000 C 819.0000,246.0000 842.0000,292.0000 851.0000,325.0000 C 852.0000,331.0000 840.0000,337.0000 839.0000,341.0000 C 839.0000,341.0000 839.0000,341.0000 839.0000,341.0000 C 830.0000,308.0000 798.0000,277.0000 762.0000,275.0000 C 726.0000,272.0000 652.0000,266.0000 584.0000,275.0000 C 515.0000,283.0000 469.0000,297.0000 447.0000,297.0000 C 434.0000,297.0000 428.0000,295.0000 429.0000,289.0000 L 429.0000,271.0000 L 441.0000,267.0000 Z "  fill="#000000" stroke="none" />
</g>
<g transform="matrix(1.0000 0.0000 0.0000 1.0000 0.0000 0.0000)">
</g>
<g transform="matrix(0.0625 0.0000 0.0000 0.0625 0.0000 0.0000)">
<path d="M 704.0000,328.0000 L 718.0000,326.0000 L 718.0000,340.0000 C 718.0000,348.0000 714.0000,355.0000 704.0000,362.0000 C 692.0000,372.0000 673.0000,384.0000 655.0000,395.0000 C 631.0000,399.0000 614.0000,401.0000 614.0000,401.0000 C 614.0000,401.0000 653.0000,368.0000 681.0000,346.0000 C 685.0000,342.0000 694.0000,337.0000 696.0000,335.0000 L 704.0000,328.0000 Z "  fill="#000000" stroke="none" />
</g>
<g transform="matrix(1.0000 0.0000 0.0000 1.0000 0.0000 0.0000)">
</g>
<g transform="matrix(0.0625 0.0000 0.0000 0.0625 0.0000 0.0000)">
<path d="M 462.0000,658.0000 C 452.0000,651.0000 438.0000,660.0000 411.0000,657.0000 C 412.0000,680.0000 414.0000,702.0000 436.0000,710.0000 C 441.0000,708.0000 446.0000,705.0000 452.0000,701.0000 C 459.0000,697.0000 467.0000,691.0000 474.0000,686.0000 C 477.0000,683.0000 479.0000,680.0000 479.0000,677.0000 L 479.0000,662.0000 L 462.0000,658.0000 Z "  fill="#000000" stroke="none" />
</g>
<g transform="matrix(1.0000 0.0000 0.0000 1.0000 0.0000 0.0000)">
</g>
<g transform="matrix(0.0625 0.0000 0.0000 0.0625 0.0000 0.0000)">
<path d="M 404.0000,539.0000 C 386.0000,563.0000 376.0000,574.0000 359.0000,595.0000 C 347.0000,591.0000 338.0000,587.0000 334.0000,582.0000 C 323.0000,570.0000 320.0000,554.0000 324.0000,544.0000 C 326.0000,550.0000 331.0000,546.0000 336.0000,553.0000 C 340.0000,558.0000 347.0000,559.0000 359.0000,563.0000 C 372.0000,546.0000 389.0000,539.0000 404.0000,519.0000 L 404.0000,539.0000 Z "  fill="#000000" stroke="none" />
</g>
<g transform="matrix(1.0000 0.0000 0.0000 1.0000 0.0000 0.0000)">
</g>
<g transform="matrix(0.0625 0.0000 0.0000 0.0625 0.0000 0.0000)">
<path d="M 1039.0000,300.0000 L 762.0000,36.0000 L 733.0000,24.0000 L 341.0000,24.0000 L 316.0000,33.0000 L 35.0000,300.0000 L 24.0000,325.0000 L 24.0000,675.0000 L 40.0000,713.0000 L 312.0000,972.0000 L 340.0000,984.0000 L 733.0000,984.0000 L 760.0000,973.0000 L 1032.0000,714.0000 L 1048.0000,680.0000 L 1048.0000,325.0000 L 1039.0000,300.0000 Z M 814.0000,714.0000 C 800.0000,758.0000 748.0000,807.0000 674.0000,821.0000 C 600.0000,834.0000 436.0000,843.0000 364.0000,829.0000 C 293.0000,815.0000 268.0000,785.0000 257.0000,733.0000 C 248.0000,689.0000 301.0000,639.0000 333.0000,607.0000 C 313.0000,600.0000 297.0000,589.0000 285.0000,571.0000 C 260.0000,535.0000 279.0000,515.0000 307.0000,497.0000 C 337.0000,478.0000 402.0000,480.0000 431.0000,482.0000 C 435.0000,475.0000 439.0000,469.0000 441.0000,464.0000 C 452.0000,439.0000 427.0000,418.0000 397.0000,412.0000 C 367.0000,407.0000 405.0000,389.0000 444.0000,387.0000 C 501.0000,385.0000 537.0000,397.0000 551.0000,423.0000 C 559.0000,439.0000 523.0000,483.0000 523.0000,483.0000 C 685.0000,511.0000 748.0000,571.0000 781.0000,607.0000 C 801.0000,628.0000 828.0000,670.0000 814.0000,714.0000 Z M 756.0000,374.0000 C 699.0000,385.0000 614.0000,398.0000 614.0000,398.0000 C 614.0000,398.0000 677.0000,365.0000 704.0000,343.0000 C 732.0000,322.0000 715.0000,313.0000 674.0000,300.0000 C 633.0000,286.0000 554.0000,291.0000 490.0000,302.0000 C 427.0000,313.0000 364.0000,354.0000 329.0000,368.0000 C 293.0000,382.0000 282.0000,365.0000 271.0000,352.0000 C 260.0000,338.0000 282.0000,311.0000 304.0000,289.0000 C 326.0000,267.0000 384.0000,206.0000 394.0000,176.0000 C 405.0000,146.0000 393.0000,135.0000 416.0000,143.0000 C 458.0000,157.0000 488.0000,179.0000 488.0000,195.0000 C 488.0000,212.0000 466.0000,228.0000 444.0000,250.0000 C 422.0000,272.0000 425.0000,278.0000 447.0000,278.0000 C 469.0000,278.0000 515.0000,264.0000 584.0000,256.0000 C 652.0000,248.0000 726.0000,253.0000 762.0000,256.0000 C 798.0000,258.0000 830.0000,289.0000 839.0000,322.0000 C 847.0000,354.0000 814.0000,363.0000 756.0000,374.0000 Z "  fill="#0000FF" stroke="none" />
</g>
<g transform="matrix(1.0000 0.0000 0.0000 1.0000 0.0000 0.0000)">
</g>
<g transform="matrix(0.0625 0.0000 0.0000 0.0625 0.0000 0.0000)">
<path d="M 359.0000,576.0000 C 372.0000,560.0000 389.0000,539.0000 404.0000,519.0000 C 383.0000,520.0000 359.0000,522.0000 345.0000,527.0000 C 333.0000,531.0000 326.0000,537.0000 324.0000,544.0000 C 326.0000,550.0000 329.0000,556.0000 334.0000,563.0000 C 338.0000,568.0000 347.0000,572.0000 359.0000,576.0000 "  fill="#0000FF" stroke="none" />
</g>
<g transform="matrix(1.0000 0.0000 0.0000 1.0000 0.0000 0.0000)">
</g>
<g transform="matrix(0.0625 0.0000 0.0000 0.0625 0.0000 0.0000)">
<path d="M 707.0000,598.0000 C 677.0000,576.0000 617.0000,527.0000 477.0000,524.0000 C 477.0000,524.0000 446.0000,552.0000 416.0000,587.0000 C 448.0000,590.0000 481.0000,592.0000 501.0000,590.0000 C 545.0000,588.0000 584.0000,601.0000 597.0000,618.0000 C 605.0000,626.0000 608.0000,637.0000 608.0000,646.0000 C 607.0000,660.0000 603.0000,676.0000 570.0000,689.0000 C 526.0000,705.0000 425.0000,697.0000 425.0000,697.0000 C 425.0000,697.0000 438.0000,691.0000 452.0000,682.0000 C 459.0000,678.0000 467.0000,672.0000 474.0000,667.0000 C 481.0000,661.0000 480.0000,656.0000 473.0000,652.0000 C 461.0000,645.0000 431.0000,640.0000 400.0000,636.0000 C 392.0000,636.0000 385.0000,635.0000 378.0000,634.0000 C 374.0000,639.0000 370.0000,645.0000 367.0000,650.0000 C 352.0000,675.0000 341.0000,691.0000 337.0000,704.0000 C 340.0000,711.0000 347.0000,717.0000 359.0000,725.0000 C 397.0000,749.0000 529.0000,755.0000 600.0000,747.0000 C 671.0000,738.0000 715.0000,722.0000 737.0000,683.0000 C 742.0000,675.0000 745.0000,667.0000 746.0000,659.0000 C 743.0000,634.0000 727.0000,612.0000 707.0000,598.0000 "  fill="#0000FF" stroke="none" />
</g>
<g transform="matrix(1.0000 0.0000 0.0000 1.0000 0.0000 0.0000)">
</g>
</g>
</svg>
