<?xml version="1.0"  encoding="UTF-8" standalone="no"?>
<svg version="1.1" xmlns="http://www.w3.org/2000/svg" xmlns:xlink="http://www.w3.org/1999/xlink" width="65.0000" height="68.0000">
<g transform="translate(-1.0000, -1.0000)">
<g transform="matrix(0.0625 0.0000 0.0000 0.0625 0.0000 0.0000)">
<path d="M 341.0000,122.0000 L 316.0000,131.0000 L 35.0000,397.0000 L 24.0000,422.0000 L 24.0000,787.0000 L 40.0000,825.0000 L 312.0000,1084.0000 L 340.0000,1096.0000 L 553.0000,1096.0000 C 512.0000,773.0000 493.0000,448.0000 489.0000,122.0000 L 341.0000,122.0000 Z "  fill="#DEDEDE" stroke="none" />
</g>
<g transform="matrix(1.0000 0.0000 0.0000 1.0000 0.0000 0.0000)">
</g>
<g transform="matrix(0.0625 0.0000 0.0000 0.0625 0.0000 0.0000)">
<path d="M 1039.0000,397.0000 L 762.0000,133.0000 L 733.0000,122.0000 L 489.0000,122.0000 C 493.0000,448.0000 512.0000,773.0000 553.0000,1096.0000 L 733.0000,1096.0000 L 760.0000,1085.0000 L 1032.0000,825.0000 L 1048.0000,791.0000 L 1048.0000,422.0000 L 1039.0000,397.0000 Z "  fill="#CFCFCF" stroke="none" />
</g>
<g transform="matrix(1.0000 0.0000 0.0000 1.0000 0.0000 0.0000)">
<path d="M 20.0000,9.0000 L 3.0000,25.0000 L 2.0000,27.0000 L 2.0000,50.0000 L 3.0000,52.0000 L 20.0000,68.0000 L 20.0000,68.0000 L 20.0000,9.0000 L 20.0000,9.0000 " fill="none" stroke="none" />
<defs><clipPath id="clip-16807"><path d="M 20.0000,9.0000 L 3.0000,25.0000 L 2.0000,27.0000 L 2.0000,50.0000 L 3.0000,52.0000 L 20.0000,68.0000 L 20.0000,68.0000 L 20.0000,9.0000 L 20.0000,9.0000 Z" /></clipPath></defs>
<path  clip-path="url(#clip-16807)" d="M 0.0000,7.0000 L 0.0000,69.0000 L 1.0000,69.0000 L 1.0000,7.0000 L 0.0000,7.0000 Z" stroke-width="1px" stroke="#C9C9C9"  fill="#C9C9C9" />
<path  clip-path="url(#clip-16807)" d="M 1.0000,7.0000 L 1.0000,69.0000 L 2.0000,69.0000 L 2.0000,7.0000 L 1.0000,7.0000 Z" stroke-width="1px" stroke="#D4D4D4"  fill="#D4D4D4" />
<path  clip-path="url(#clip-16807)" d="M 2.0000,7.0000 L 2.0000,69.0000 L 4.0000,69.0000 L 4.0000,7.0000 L 2.0000,7.0000 Z" stroke-width="1px" stroke="#D3D3D3"  fill="#D3D3D3" />
<path  clip-path="url(#clip-16807)" d="M 4.0000,7.0000 L 4.0000,69.0000 L 5.0000,69.0000 L 5.0000,7.0000 L 4.0000,7.0000 Z" stroke-width="1px" stroke="#D2D2D2"  fill="#D2D2D2" />
<path  clip-path="url(#clip-16807)" d="M 5.0000,7.0000 L 5.0000,69.0000 L 8.0000,69.0000 L 8.0000,7.0000 L 5.0000,7.0000 Z" stroke-width="1px" stroke="#D1D1D1"  fill="#D1D1D1" />
<path  clip-path="url(#clip-16807)" d="M 8.0000,7.0000 L 8.0000,69.0000 L 9.0000,69.0000 L 9.0000,7.0000 L 8.0000,7.0000 Z" stroke-width="1px" stroke="#D0D0D0"  fill="#D0D0D0" />
<path  clip-path="url(#clip-16807)" d="M 9.0000,7.0000 L 9.0000,69.0000 L 12.0000,69.0000 L 12.0000,7.0000 L 9.0000,7.0000 Z" stroke-width="1px" stroke="#CFCFCF"  fill="#CFCFCF" />
<path  clip-path="url(#clip-16807)" d="M 12.0000,7.0000 L 12.0000,69.0000 L 13.0000,69.0000 L 13.0000,7.0000 L 12.0000,7.0000 Z" stroke-width="1px" stroke="#CECECE"  fill="#CECECE" />
<path  clip-path="url(#clip-16807)" d="M 13.0000,7.0000 L 13.0000,69.0000 L 14.0000,69.0000 L 14.0000,7.0000 L 13.0000,7.0000 Z" stroke-width="1px" stroke="#CDCDCD"  fill="#CDCDCD" />
<path  clip-path="url(#clip-16807)" d="M 14.0000,7.0000 L 14.0000,69.0000 L 17.0000,69.0000 L 17.0000,7.0000 L 14.0000,7.0000 Z" stroke-width="1px" stroke="#CCCCCC"  fill="#CCCCCC" />
<path  clip-path="url(#clip-16807)" d="M 17.0000,7.0000 L 17.0000,69.0000 L 18.0000,69.0000 L 18.0000,7.0000 L 17.0000,7.0000 Z" stroke-width="1px" stroke="#CBCBCB"  fill="#CBCBCB" />
<path  clip-path="url(#clip-16807)" d="M 18.0000,7.0000 L 18.0000,69.0000 L 21.0000,69.0000 L 21.0000,7.0000 L 18.0000,7.0000 Z" stroke-width="1px" stroke="#CACACA"  fill="#CACACA" />
<path d="M 65.0000,25.0000 L 48.0000,9.0000 L 47.0000,9.0000 L 47.0000,68.0000 L 48.0000,68.0000 L 65.0000,52.0000 L 66.0000,50.0000 L 66.0000,27.0000 L 65.0000,25.0000 " fill="none" stroke="none" />
<defs><clipPath id="clip-282475249"><path d="M 65.0000,25.0000 L 48.0000,9.0000 L 47.0000,9.0000 L 47.0000,68.0000 L 48.0000,68.0000 L 65.0000,52.0000 L 66.0000,50.0000 L 66.0000,27.0000 L 65.0000,25.0000 Z" /></clipPath></defs>
<path  clip-path="url(#clip-282475249)" d="M 46.0000,7.0000 L 46.0000,69.0000 L 47.0000,69.0000 L 47.0000,7.0000 L 46.0000,7.0000 Z" stroke-width="1px" stroke="#A3A3A3"  fill="#A3A3A3" />
<path  clip-path="url(#clip-282475249)" d="M 47.0000,7.0000 L 47.0000,69.0000 L 48.0000,69.0000 L 48.0000,7.0000 L 47.0000,7.0000 Z" stroke-width="1px" stroke="#A4A4A4"  fill="#A4A4A4" />
<path  clip-path="url(#clip-282475249)" d="M 48.0000,7.0000 L 48.0000,69.0000 L 50.0000,69.0000 L 50.0000,7.0000 L 48.0000,7.0000 Z" stroke-width="1px" stroke="#A5A5A5"  fill="#A5A5A5" />
<path  clip-path="url(#clip-282475249)" d="M 50.0000,7.0000 L 50.0000,69.0000 L 51.0000,69.0000 L 51.0000,7.0000 L 50.0000,7.0000 Z" stroke-width="1px" stroke="#A6A6A6"  fill="#A6A6A6" />
<path  clip-path="url(#clip-282475249)" d="M 51.0000,7.0000 L 51.0000,69.0000 L 52.0000,69.0000 L 52.0000,7.0000 L 51.0000,7.0000 Z" stroke-width="1px" stroke="#A7A7A7"  fill="#A7A7A7" />
<path  clip-path="url(#clip-282475249)" d="M 52.0000,7.0000 L 52.0000,69.0000 L 54.0000,69.0000 L 54.0000,7.0000 L 52.0000,7.0000 Z" stroke-width="1px" stroke="#A8A8A8"  fill="#A8A8A8" />
<path  clip-path="url(#clip-282475249)" d="M 54.0000,7.0000 L 54.0000,69.0000 L 55.0000,69.0000 L 55.0000,7.0000 L 54.0000,7.0000 Z" stroke-width="1px" stroke="#A9A9A9"  fill="#A9A9A9" />
<path  clip-path="url(#clip-282475249)" d="M 55.0000,7.0000 L 55.0000,69.0000 L 56.0000,69.0000 L 56.0000,7.0000 L 55.0000,7.0000 Z" stroke-width="1px" stroke="#AAAAAA"  fill="#AAAAAA" />
<path  clip-path="url(#clip-282475249)" d="M 56.0000,7.0000 L 56.0000,69.0000 L 59.0000,69.0000 L 59.0000,7.0000 L 56.0000,7.0000 Z" stroke-width="1px" stroke="#ABABAB"  fill="#ABABAB" />
<path  clip-path="url(#clip-282475249)" d="M 59.0000,7.0000 L 59.0000,69.0000 L 60.0000,69.0000 L 60.0000,7.0000 L 59.0000,7.0000 Z" stroke-width="1px" stroke="#ACACAC"  fill="#ACACAC" />
<path  clip-path="url(#clip-282475249)" d="M 60.0000,7.0000 L 60.0000,69.0000 L 61.0000,69.0000 L 61.0000,7.0000 L 60.0000,7.0000 Z" stroke-width="1px" stroke="#ADADAD"  fill="#ADADAD" />
<path  clip-path="url(#clip-282475249)" d="M 61.0000,7.0000 L 61.0000,69.0000 L 62.0000,69.0000 L 62.0000,7.0000 L 61.0000,7.0000 Z" stroke-width="1px" stroke="#AEAEAE"  fill="#AEAEAE" />
<path  clip-path="url(#clip-282475249)" d="M 62.0000,7.0000 L 62.0000,69.0000 L 64.0000,69.0000 L 64.0000,7.0000 L 62.0000,7.0000 Z" stroke-width="1px" stroke="#AFAFAF"  fill="#AFAFAF" />
<path  clip-path="url(#clip-282475249)" d="M 64.0000,7.0000 L 64.0000,69.0000 L 65.0000,69.0000 L 65.0000,7.0000 L 64.0000,7.0000 Z" stroke-width="1px" stroke="#B0B0B0"  fill="#B0B0B0" />
<path  clip-path="url(#clip-282475249)" d="M 65.0000,7.0000 L 65.0000,69.0000 L 66.0000,69.0000 L 66.0000,7.0000 L 65.0000,7.0000 Z" stroke-width="1px" stroke="#B1B1B1"  fill="#B1B1B1" />
<path  clip-path="url(#clip-282475249)" d="M 66.0000,7.0000 L 66.0000,69.0000 L 67.0000,69.0000 L 67.0000,7.0000 L 66.0000,7.0000 Z" stroke-width="1px" stroke="#B2B2B2"  fill="#B2B2B2" />
<defs><clipPath id="clip-1622650073"><path d="M 21.0000,8.0000 L 47.0000,8.0000 L 47.0000,69.0000 L 21.0000,69.0000 L 21.0000,8.0000 Z Z" /></clipPath></defs>
<path  clip-path="url(#clip-1622650073)" d="M 19.0000,6.0000 L 19.0000,69.0000 L 20.0000,69.0000 L 20.0000,6.0000 L 19.0000,6.0000 Z" stroke-width="1px" stroke="#BDBDBD"  fill="#BDBDBD" />
<path  clip-path="url(#clip-1622650073)" d="M 20.0000,6.0000 L 20.0000,69.0000 L 21.0000,69.0000 L 21.0000,6.0000 L 20.0000,6.0000 Z" stroke-width="1px" stroke="#ADADAD"  fill="#ADADAD" />
<path  clip-path="url(#clip-1622650073)" d="M 21.0000,6.0000 L 21.0000,69.0000 L 23.0000,69.0000 L 23.0000,6.0000 L 21.0000,6.0000 Z" stroke-width="1px" stroke="#AEAEAE"  fill="#AEAEAE" />
<path  clip-path="url(#clip-1622650073)" d="M 23.0000,6.0000 L 23.0000,69.0000 L 24.0000,69.0000 L 24.0000,6.0000 L 23.0000,6.0000 Z" stroke-width="1px" stroke="#AFAFAF"  fill="#AFAFAF" />
<path  clip-path="url(#clip-1622650073)" d="M 24.0000,6.0000 L 24.0000,69.0000 L 26.0000,69.0000 L 26.0000,6.0000 L 24.0000,6.0000 Z" stroke-width="1px" stroke="#B0B0B0"  fill="#B0B0B0" />
<path  clip-path="url(#clip-1622650073)" d="M 26.0000,6.0000 L 26.0000,69.0000 L 28.0000,69.0000 L 28.0000,6.0000 L 26.0000,6.0000 Z" stroke-width="1px" stroke="#B1B1B1"  fill="#B1B1B1" />
<path  clip-path="url(#clip-1622650073)" d="M 28.0000,6.0000 L 28.0000,69.0000 L 30.0000,69.0000 L 30.0000,6.0000 L 28.0000,6.0000 Z" stroke-width="1px" stroke="#B2B2B2"  fill="#B2B2B2" />
<path  clip-path="url(#clip-1622650073)" d="M 30.0000,6.0000 L 30.0000,69.0000 L 31.0000,69.0000 L 31.0000,6.0000 L 30.0000,6.0000 Z" stroke-width="1px" stroke="#B3B3B3"  fill="#B3B3B3" />
<path  clip-path="url(#clip-1622650073)" d="M 31.0000,6.0000 L 31.0000,69.0000 L 33.0000,69.0000 L 33.0000,6.0000 L 31.0000,6.0000 Z" stroke-width="1px" stroke="#B4B4B4"  fill="#B4B4B4" />
<path  clip-path="url(#clip-1622650073)" d="M 33.0000,6.0000 L 33.0000,69.0000 L 35.0000,69.0000 L 35.0000,6.0000 L 33.0000,6.0000 Z" stroke-width="1px" stroke="#B5B5B5"  fill="#B5B5B5" />
<path  clip-path="url(#clip-1622650073)" d="M 35.0000,6.0000 L 35.0000,69.0000 L 37.0000,69.0000 L 37.0000,6.0000 L 35.0000,6.0000 Z" stroke-width="1px" stroke="#B6B6B6"  fill="#B6B6B6" />
<path  clip-path="url(#clip-1622650073)" d="M 37.0000,6.0000 L 37.0000,69.0000 L 38.0000,69.0000 L 38.0000,6.0000 L 37.0000,6.0000 Z" stroke-width="1px" stroke="#B7B7B7"  fill="#B7B7B7" />
<path  clip-path="url(#clip-1622650073)" d="M 38.0000,6.0000 L 38.0000,69.0000 L 40.0000,69.0000 L 40.0000,6.0000 L 38.0000,6.0000 Z" stroke-width="1px" stroke="#B8B8B8"  fill="#B8B8B8" />
<path  clip-path="url(#clip-1622650073)" d="M 40.0000,6.0000 L 40.0000,69.0000 L 42.0000,69.0000 L 42.0000,6.0000 L 40.0000,6.0000 Z" stroke-width="1px" stroke="#B9B9B9"  fill="#B9B9B9" />
<path  clip-path="url(#clip-1622650073)" d="M 42.0000,6.0000 L 42.0000,69.0000 L 44.0000,69.0000 L 44.0000,6.0000 L 42.0000,6.0000 Z" stroke-width="1px" stroke="#BABABA"  fill="#BABABA" />
<path  clip-path="url(#clip-1622650073)" d="M 44.0000,6.0000 L 44.0000,69.0000 L 45.0000,69.0000 L 45.0000,6.0000 L 44.0000,6.0000 Z" stroke-width="1px" stroke="#BBBBBB"  fill="#BBBBBB" />
<path  clip-path="url(#clip-1622650073)" d="M 45.0000,6.0000 L 45.0000,69.0000 L 47.0000,69.0000 L 47.0000,6.0000 L 45.0000,6.0000 Z" stroke-width="1px" stroke="#BCBCBC"  fill="#BCBCBC" />
</g>
<g transform="matrix(0.0625 0.0000 0.0000 0.0625 0.0000 0.0000)">
<path d="M 731.0000,100.0000 L 970.0000,328.0000 L 978.0000,349.0000 L 978.0000,668.0000 L 964.0000,697.0000 L 729.0000,921.0000 L 706.0000,930.0000 L 367.0000,930.0000 L 343.0000,920.0000 L 108.0000,697.0000 L 95.0000,664.0000 L 95.0000,350.0000 L 104.0000,328.0000 L 347.0000,98.0000 L 368.0000,90.0000 L 706.0000,90.0000 L 731.0000,100.0000 Z" stroke-width="1px" stroke="#FF0000"  fill="#FF0000" />
</g>
<g transform="matrix(1.0000 0.0000 0.0000 1.0000 0.0000 0.0000)">
<path d="M 21.0000,58.0000 L 44.0000,57.0000 L 66.0000,42.0000 L 66.0000,44.0000 L 65.0000,46.0000 L 48.0000,62.0000 L 46.0000,63.0000 L 22.0000,63.0000 L 20.0000,62.0000 L 3.0000,46.0000 L 2.0000,44.0000 L 2.0000,42.0000 L 21.0000,58.0000 " fill="none" stroke="none" />
<defs><clipPath id="clip-984943658"><path d="M 21.0000,58.0000 L 44.0000,57.0000 L 66.0000,42.0000 L 66.0000,44.0000 L 65.0000,46.0000 L 48.0000,62.0000 L 46.0000,63.0000 L 22.0000,63.0000 L 20.0000,62.0000 L 3.0000,46.0000 L 2.0000,44.0000 L 2.0000,42.0000 L 21.0000,58.0000 Z" /></clipPath></defs>
<path  clip-path="url(#clip-984943658)" d="M 0.0000,40.0000 L 0.0000,63.0000 L 1.0000,63.0000 L 1.0000,40.0000 L 0.0000,40.0000 Z" stroke-width="1px" stroke="#D4D4D4"  fill="#D4D4D4" />
<path  clip-path="url(#clip-984943658)" d="M 1.0000,40.0000 L 1.0000,63.0000 L 3.0000,63.0000 L 3.0000,40.0000 L 1.0000,40.0000 Z" stroke-width="1px" stroke="#E3E3E3"  fill="#E3E3E3" />
<path  clip-path="url(#clip-984943658)" d="M 3.0000,40.0000 L 3.0000,63.0000 L 7.0000,63.0000 L 7.0000,40.0000 L 3.0000,40.0000 Z" stroke-width="1px" stroke="#E2E2E2"  fill="#E2E2E2" />
<path  clip-path="url(#clip-984943658)" d="M 7.0000,40.0000 L 7.0000,63.0000 L 11.0000,63.0000 L 11.0000,40.0000 L 7.0000,40.0000 Z" stroke-width="1px" stroke="#E1E1E1"  fill="#E1E1E1" />
<path  clip-path="url(#clip-984943658)" d="M 11.0000,40.0000 L 11.0000,63.0000 L 15.0000,63.0000 L 15.0000,40.0000 L 11.0000,40.0000 Z" stroke-width="1px" stroke="#E0E0E0"  fill="#E0E0E0" />
<path  clip-path="url(#clip-984943658)" d="M 15.0000,40.0000 L 15.0000,63.0000 L 20.0000,63.0000 L 20.0000,40.0000 L 15.0000,40.0000 Z" stroke-width="1px" stroke="#DFDFDF"  fill="#DFDFDF" />
<path  clip-path="url(#clip-984943658)" d="M 20.0000,40.0000 L 20.0000,63.0000 L 24.0000,63.0000 L 24.0000,40.0000 L 20.0000,40.0000 Z" stroke-width="1px" stroke="#DEDEDE"  fill="#DEDEDE" />
<path  clip-path="url(#clip-984943658)" d="M 24.0000,40.0000 L 24.0000,63.0000 L 28.0000,63.0000 L 28.0000,40.0000 L 24.0000,40.0000 Z" stroke-width="1px" stroke="#DDDDDD"  fill="#DDDDDD" />
<path  clip-path="url(#clip-984943658)" d="M 28.0000,40.0000 L 28.0000,63.0000 L 36.0000,63.0000 L 36.0000,40.0000 L 28.0000,40.0000 Z" stroke-width="1px" stroke="#DCDCDC"  fill="#DCDCDC" />
<path  clip-path="url(#clip-984943658)" d="M 36.0000,40.0000 L 36.0000,63.0000 L 40.0000,63.0000 L 40.0000,40.0000 L 36.0000,40.0000 Z" stroke-width="1px" stroke="#DBDBDB"  fill="#DBDBDB" />
<path  clip-path="url(#clip-984943658)" d="M 40.0000,40.0000 L 40.0000,63.0000 L 44.0000,63.0000 L 44.0000,40.0000 L 40.0000,40.0000 Z" stroke-width="1px" stroke="#DADADA"  fill="#DADADA" />
<path  clip-path="url(#clip-984943658)" d="M 44.0000,40.0000 L 44.0000,63.0000 L 48.0000,63.0000 L 48.0000,40.0000 L 44.0000,40.0000 Z" stroke-width="1px" stroke="#D9D9D9"  fill="#D9D9D9" />
<path  clip-path="url(#clip-984943658)" d="M 48.0000,40.0000 L 48.0000,63.0000 L 53.0000,63.0000 L 53.0000,40.0000 L 48.0000,40.0000 Z" stroke-width="1px" stroke="#D8D8D8"  fill="#D8D8D8" />
<path  clip-path="url(#clip-984943658)" d="M 53.0000,40.0000 L 53.0000,63.0000 L 57.0000,63.0000 L 57.0000,40.0000 L 53.0000,40.0000 Z" stroke-width="1px" stroke="#D7D7D7"  fill="#D7D7D7" />
<path  clip-path="url(#clip-984943658)" d="M 57.0000,40.0000 L 57.0000,63.0000 L 61.0000,63.0000 L 61.0000,40.0000 L 57.0000,40.0000 Z" stroke-width="1px" stroke="#D6D6D6"  fill="#D6D6D6" />
<path  clip-path="url(#clip-984943658)" d="M 61.0000,40.0000 L 61.0000,63.0000 L 65.0000,63.0000 L 65.0000,40.0000 L 61.0000,40.0000 Z" stroke-width="1px" stroke="#D5D5D5"  fill="#D5D5D5" />
<path  clip-path="url(#clip-984943658)" d="M 65.0000,40.0000 L 65.0000,63.0000 L 66.0000,63.0000 L 66.0000,40.0000 L 65.0000,40.0000 Z" stroke-width="1px" stroke="#D4D4D4"  fill="#D4D4D4" />
</g>
<g transform="matrix(0.0625 0.0000 0.0000 0.0625 0.0000 0.0000)">
<path d="M 645.0000,315.0000 C 671.0000,312.0000 696.0000,307.0000 711.0000,305.0000 C 760.0000,298.0000 781.0000,316.0000 797.0000,331.0000 C 812.0000,346.0000 836.0000,371.0000 808.0000,380.0000 C 807.0000,380.0000 807.0000,380.0000 807.0000,381.0000 C 801.0000,372.0000 789.0000,364.0000 779.0000,354.0000 C 764.0000,339.0000 755.0000,332.0000 706.0000,339.0000 C 689.0000,341.0000 662.0000,344.0000 631.0000,347.0000 L 631.0000,329.0000 L 645.0000,315.0000 Z "  fill="#000000" stroke="none" />
</g>
<g transform="matrix(1.0000 0.0000 0.0000 1.0000 0.0000 0.0000)">
</g>
<g transform="matrix(0.0625 0.0000 0.0000 0.0625 0.0000 0.0000)">
<path d="M 371.0000,617.0000 C 370.0000,618.0000 358.0000,618.0000 357.0000,620.0000 C 338.0000,641.0000 306.0000,665.0000 286.0000,678.0000 C 267.0000,691.0000 258.0000,720.0000 273.0000,720.0000 C 280.0000,720.0000 298.0000,706.0000 315.0000,702.0000 C 335.0000,688.0000 362.0000,666.0000 381.0000,646.0000 C 387.0000,639.0000 390.0000,633.0000 390.0000,629.0000 L 390.0000,611.0000 L 371.0000,617.0000 Z "  fill="#000000" stroke="none" />
</g>
<g transform="matrix(1.0000 0.0000 0.0000 1.0000 0.0000 0.0000)">
</g>
<g transform="matrix(0.0625 0.0000 0.0000 0.0625 0.0000 0.0000)">
<path d="M 405.0000,727.0000 C 437.0000,703.0000 464.0000,671.0000 474.0000,659.0000 C 484.0000,646.0000 492.0000,640.0000 503.0000,650.0000 C 511.0000,658.0000 526.0000,658.0000 535.0000,657.0000 C 535.0000,651.0000 535.0000,645.0000 534.0000,639.0000 C 527.0000,626.0000 514.0000,627.0000 506.0000,619.0000 C 495.0000,609.0000 471.0000,623.0000 461.0000,636.0000 C 451.0000,649.0000 432.0000,674.0000 399.0000,698.0000 C 367.0000,722.0000 331.0000,742.0000 311.0000,749.0000 C 291.0000,756.0000 276.0000,781.0000 299.0000,784.0000 C 303.0000,785.0000 314.0000,779.0000 319.0000,779.0000 C 322.0000,778.0000 324.0000,777.0000 327.0000,776.0000 C 347.0000,769.0000 372.0000,751.0000 405.0000,727.0000 "  fill="#000000" stroke="none" />
</g>
<g transform="matrix(1.0000 0.0000 0.0000 1.0000 0.0000 0.0000)">
</g>
<g transform="matrix(0.0625 0.0000 0.0000 0.0625 0.0000 0.0000)">
<path d="M 408.0000,547.0000 C 416.0000,540.0000 415.0000,530.0000 412.0000,523.0000 C 411.0000,525.0000 384.0000,515.0000 382.0000,517.0000 C 366.0000,530.0000 319.0000,558.0000 269.0000,575.0000 C 220.0000,592.0000 180.0000,605.0000 198.0000,625.0000 C 201.0000,628.0000 220.0000,633.0000 234.0000,620.0000 C 246.0000,617.0000 261.0000,613.0000 280.0000,606.0000 C 330.0000,589.0000 392.0000,559.0000 408.0000,547.0000 "  fill="#000000" stroke="none" />
</g>
<g transform="matrix(1.0000 0.0000 0.0000 1.0000 0.0000 0.0000)">
</g>
<g transform="matrix(0.0625 0.0000 0.0000 0.0625 0.0000 0.0000)">
<path d="M 459.0000,175.0000 C 463.0000,153.0000 476.0000,160.0000 499.0000,160.0000 C 526.0000,160.0000 540.0000,170.0000 545.0000,181.0000 L 545.0000,181.0000 C 562.0000,166.0000 541.0000,129.0000 499.0000,129.0000 C 477.0000,129.0000 449.0000,130.0000 445.0000,152.0000 C 440.0000,174.0000 414.0000,203.0000 377.0000,238.0000 C 339.0000,273.0000 317.0000,292.0000 332.0000,296.0000 C 335.0000,297.0000 345.0000,291.0000 351.0000,291.0000 C 360.0000,285.0000 374.0000,275.0000 388.0000,262.0000 C 426.0000,226.0000 454.0000,198.0000 459.0000,175.0000 Z "  fill="#000000" stroke="none" />
</g>
<g transform="matrix(1.0000 0.0000 0.0000 1.0000 0.0000 0.0000)">
</g>
<g transform="matrix(0.0625 0.0000 0.0000 0.0625 0.0000 0.0000)">
<path d="M 552.0000,189.0000 C 561.0000,192.0000 569.0000,190.0000 584.0000,189.0000 C 622.0000,187.0000 641.0000,191.0000 667.0000,184.0000 C 693.0000,177.0000 706.0000,208.0000 715.0000,223.0000 C 720.0000,234.0000 712.0000,245.0000 708.0000,253.0000 C 707.0000,250.0000 706.0000,247.0000 704.0000,244.0000 C 695.0000,228.0000 695.0000,213.0000 669.0000,220.0000 C 642.0000,226.0000 616.0000,222.0000 578.0000,224.0000 C 558.0000,225.0000 544.0000,221.0000 535.0000,217.0000 L 535.0000,199.0000 L 552.0000,189.0000 Z "  fill="#000000" stroke="none" />
</g>
<g transform="matrix(1.0000 0.0000 0.0000 1.0000 0.0000 0.0000)">
</g>
<g transform="matrix(0.0625 0.0000 0.0000 0.0625 0.0000 0.0000)">
<path d="M 511.0000,709.0000 C 508.0000,722.0000 510.0000,722.0000 504.0000,735.0000 C 483.0000,786.0000 487.0000,783.0000 467.0000,786.0000 C 447.0000,789.0000 438.0000,798.0000 427.0000,790.0000 C 411.0000,778.0000 407.0000,804.0000 417.0000,818.0000 C 418.0000,819.0000 420.0000,822.0000 421.0000,823.0000 C 421.0000,823.0000 428.0000,822.0000 429.0000,823.0000 C 440.0000,832.0000 450.0000,830.0000 470.0000,827.0000 C 490.0000,824.0000 497.0000,824.0000 518.0000,773.0000 C 525.0000,757.0000 529.0000,741.0000 532.0000,726.0000 L 532.0000,708.0000 L 511.0000,709.0000 Z "  fill="#000000" stroke="none" />
</g>
<g transform="matrix(1.0000 0.0000 0.0000 1.0000 0.0000 0.0000)">
</g>
<g transform="matrix(0.0625 0.0000 0.0000 0.0625 0.0000 0.0000)">
<path d="M 587.0000,270.0000 C 584.0000,276.0000 582.0000,280.0000 576.0000,288.0000 C 566.0000,302.0000 548.0000,310.0000 533.0000,320.0000 C 482.0000,324.0000 481.0000,319.0000 463.0000,320.0000 C 404.0000,322.0000 351.0000,330.0000 333.0000,330.0000 C 315.0000,330.0000 279.0000,345.0000 288.0000,370.0000 C 288.0000,370.0000 297.0000,373.0000 298.0000,374.0000 C 303.0000,366.0000 319.0000,365.0000 331.0000,365.0000 C 348.0000,365.0000 408.0000,361.0000 468.0000,359.0000 C 487.0000,358.0000 514.0000,356.0000 543.0000,354.0000 C 557.0000,344.0000 577.0000,328.0000 587.0000,315.0000 C 598.0000,300.0000 605.0000,288.0000 604.0000,281.0000 L 604.0000,262.0000 L 587.0000,270.0000 Z "  fill="#000000" stroke="none" />
</g>
<g transform="matrix(1.0000 0.0000 0.0000 1.0000 0.0000 0.0000)">
</g>
<g transform="matrix(0.0625 0.0000 0.0000 0.0625 0.0000 0.0000)">
<path d="M 401.0000,432.0000 C 395.0000,426.0000 389.0000,418.0000 371.0000,418.0000 C 368.0000,418.0000 366.0000,418.0000 366.0000,418.0000 C 368.0000,432.0000 379.0000,462.0000 389.0000,471.0000 C 394.0000,476.0000 479.0000,469.0000 506.0000,467.0000 C 505.0000,460.0000 507.0000,455.0000 505.0000,449.0000 C 493.0000,437.0000 406.0000,437.0000 401.0000,432.0000 "  fill="#000000" stroke="none" />
</g>
<g transform="matrix(1.0000 0.0000 0.0000 1.0000 0.0000 0.0000)">
</g>
<g transform="matrix(0.0625 0.0000 0.0000 0.0625 0.0000 0.0000)">
<path d="M 675.0000,460.0000 C 692.0000,454.0000 702.0000,421.0000 702.0000,401.0000 C 702.0000,399.0000 701.0000,398.0000 700.0000,397.0000 C 677.0000,404.0000 671.0000,415.0000 658.0000,420.0000 C 651.0000,423.0000 595.0000,424.0000 564.0000,447.0000 C 563.0000,454.0000 562.0000,460.0000 561.0000,465.0000 C 597.0000,464.0000 668.0000,463.0000 675.0000,460.0000 "  fill="#000000" stroke="none" />
</g>
<g transform="matrix(1.0000 0.0000 0.0000 1.0000 0.0000 0.0000)">
</g>
<g transform="matrix(0.0625 0.0000 0.0000 0.0625 0.0000 0.0000)">
<path d="M 629.0000,637.0000 C 643.0000,650.0000 668.0000,658.0000 691.0000,675.0000 C 739.0000,710.0000 815.0000,732.0000 831.0000,736.0000 C 846.0000,741.0000 871.0000,763.0000 867.0000,771.0000 C 865.0000,774.0000 854.0000,780.0000 845.0000,778.0000 C 839.0000,777.0000 831.0000,777.0000 824.0000,775.0000 C 809.0000,771.0000 727.0000,746.0000 678.0000,711.0000 C 645.0000,686.0000 623.0000,671.0000 606.0000,650.0000 L 606.0000,631.0000 L 629.0000,637.0000 Z "  fill="#000000" stroke="none" />
</g>
<g transform="matrix(1.0000 0.0000 0.0000 1.0000 0.0000 0.0000)">
</g>
<g transform="matrix(0.0625 0.0000 0.0000 0.0625 0.0000 0.0000)">
<path d="M 552.0000,504.0000 C 562.0000,517.0000 578.0000,542.0000 594.0000,579.0000 C 595.0000,581.0000 598.0000,585.0000 599.0000,587.0000 C 608.0000,587.0000 610.0000,584.0000 626.0000,572.0000 C 647.0000,557.0000 651.0000,552.0000 652.0000,538.0000 C 654.0000,524.0000 669.0000,515.0000 690.0000,524.0000 C 711.0000,532.0000 739.0000,559.0000 740.0000,569.0000 C 741.0000,574.0000 730.0000,583.0000 728.0000,588.0000 C 724.0000,577.0000 704.0000,559.0000 684.0000,551.0000 C 663.0000,542.0000 664.0000,551.0000 663.0000,565.0000 C 661.0000,579.0000 651.0000,593.0000 630.0000,609.0000 C 614.0000,621.0000 599.0000,623.0000 590.0000,623.0000 C 589.0000,621.0000 589.0000,620.0000 588.0000,617.0000 C 569.0000,575.0000 550.0000,536.0000 541.0000,528.0000 C 539.0000,527.0000 538.0000,524.0000 538.0000,521.0000 L 538.0000,506.0000 L 552.0000,504.0000 Z "  fill="#000000" stroke="none" />
</g>
<g transform="matrix(1.0000 0.0000 0.0000 1.0000 0.0000 0.0000)">
</g>
<g transform="matrix(0.0625 0.0000 0.0000 0.0625 0.0000 0.0000)">
<path d="M 1039.0000,300.0000 L 762.0000,36.0000 L 733.0000,24.0000 L 341.0000,24.0000 L 316.0000,33.0000 L 35.0000,300.0000 L 24.0000,325.0000 L 24.0000,675.0000 L 40.0000,713.0000 L 312.0000,972.0000 L 340.0000,984.0000 L 733.0000,984.0000 L 760.0000,973.0000 L 1032.0000,714.0000 L 1048.0000,680.0000 L 1048.0000,325.0000 L 1039.0000,300.0000 Z M 857.0000,768.0000 C 853.0000,776.0000 826.0000,789.0000 805.0000,802.0000 C 783.0000,815.0000 773.0000,816.0000 742.0000,808.0000 C 711.0000,799.0000 678.0000,754.0000 654.0000,727.0000 C 635.0000,705.0000 619.0000,697.0000 605.0000,698.0000 C 594.0000,699.0000 595.0000,738.0000 589.0000,775.0000 C 583.0000,812.0000 573.0000,840.0000 554.0000,867.0000 C 534.0000,894.0000 507.0000,903.0000 487.0000,901.0000 C 467.0000,900.0000 457.0000,883.0000 450.0000,861.0000 C 443.0000,840.0000 432.0000,829.0000 423.0000,818.0000 C 415.0000,806.0000 417.0000,796.0000 429.0000,805.0000 C 440.0000,813.0000 450.0000,812.0000 470.0000,809.0000 C 490.0000,806.0000 497.0000,806.0000 518.0000,755.0000 C 525.0000,739.0000 529.0000,723.0000 532.0000,708.0000 C 531.0000,702.0000 530.0000,696.0000 527.0000,694.0000 C 520.0000,690.0000 511.0000,687.0000 497.0000,700.0000 C 483.0000,713.0000 437.0000,742.0000 401.0000,762.0000 C 364.0000,782.0000 327.0000,781.0000 304.0000,778.0000 C 281.0000,775.0000 307.0000,765.0000 327.0000,758.0000 C 347.0000,751.0000 372.0000,732.0000 405.0000,708.0000 C 437.0000,684.0000 464.0000,653.0000 474.0000,640.0000 C 484.0000,628.0000 492.0000,621.0000 503.0000,632.0000 C 511.0000,640.0000 526.0000,640.0000 535.0000,639.0000 C 535.0000,630.0000 534.0000,621.0000 534.0000,612.0000 C 531.0000,564.0000 515.0000,550.0000 507.0000,545.0000 C 492.0000,538.0000 484.0000,551.0000 480.0000,567.0000 C 476.0000,582.0000 467.0000,603.0000 453.0000,620.0000 C 432.0000,647.0000 399.0000,673.0000 358.0000,688.0000 C 331.0000,699.0000 290.0000,708.0000 276.0000,708.0000 C 262.0000,708.0000 291.0000,698.0000 311.0000,686.0000 C 331.0000,673.0000 361.0000,649.0000 381.0000,627.0000 C 394.0000,614.0000 392.0000,603.0000 379.0000,606.0000 C 366.0000,609.0000 328.0000,613.0000 290.0000,618.0000 C 252.0000,622.0000 213.0000,622.0000 208.0000,615.0000 C 202.0000,608.0000 230.0000,605.0000 280.0000,588.0000 C 330.0000,571.0000 392.0000,541.0000 408.0000,528.0000 C 418.0000,520.0000 414.0000,508.0000 410.0000,501.0000 C 398.0000,502.0000 388.0000,503.0000 380.0000,503.0000 C 358.0000,503.0000 351.0000,498.0000 343.0000,479.0000 C 325.0000,439.0000 306.0000,397.0000 297.0000,372.0000 C 288.0000,347.0000 313.0000,347.0000 331.0000,347.0000 C 348.0000,347.0000 408.0000,343.0000 468.0000,340.0000 C 487.0000,340.0000 514.0000,338.0000 543.0000,336.0000 C 557.0000,325.0000 577.0000,310.0000 587.0000,296.0000 C 605.0000,272.0000 611.0000,257.0000 596.0000,254.0000 C 580.0000,252.0000 554.0000,257.0000 534.0000,239.0000 C 527.0000,233.0000 522.0000,227.0000 518.0000,221.0000 C 505.0000,236.0000 487.0000,252.0000 465.0000,265.0000 C 421.0000,292.0000 353.0000,294.0000 337.0000,290.0000 C 322.0000,285.0000 351.0000,279.0000 388.0000,243.0000 C 426.0000,208.0000 454.0000,179.0000 459.0000,157.0000 C 463.0000,135.0000 476.0000,142.0000 499.0000,142.0000 C 541.0000,142.0000 552.0000,164.0000 545.0000,181.0000 C 543.0000,186.0000 540.0000,192.0000 535.0000,199.0000 C 544.0000,203.0000 558.0000,207.0000 578.0000,206.0000 C 616.0000,204.0000 642.0000,208.0000 669.0000,201.0000 C 695.0000,195.0000 695.0000,210.0000 704.0000,226.0000 C 713.0000,241.0000 713.0000,254.0000 697.0000,263.0000 C 683.0000,271.0000 650.0000,281.0000 631.0000,329.0000 C 662.0000,326.0000 689.0000,323.0000 706.0000,321.0000 C 755.0000,314.0000 764.0000,321.0000 779.0000,336.0000 C 794.0000,351.0000 819.0000,363.0000 808.0000,380.0000 C 797.0000,398.0000 777.0000,418.0000 766.0000,435.0000 C 755.0000,453.0000 764.0000,462.0000 759.0000,477.0000 C 755.0000,493.0000 746.0000,502.0000 724.0000,499.0000 C 704.0000,497.0000 626.0000,485.0000 569.0000,484.0000 C 547.0000,490.0000 532.0000,504.0000 541.0000,510.0000 C 551.0000,517.0000 569.0000,557.0000 588.0000,599.0000 C 589.0000,601.0000 589.0000,603.0000 590.0000,605.0000 C 599.0000,605.0000 614.0000,603.0000 630.0000,591.0000 C 651.0000,575.0000 661.0000,561.0000 663.0000,547.0000 C 664.0000,533.0000 663.0000,524.0000 684.0000,533.0000 C 705.0000,541.0000 728.0000,562.0000 729.0000,572.0000 C 731.0000,582.0000 731.0000,595.0000 712.0000,603.0000 C 694.0000,612.0000 666.0000,625.0000 650.0000,628.0000 C 637.0000,630.0000 624.0000,635.0000 606.0000,631.0000 C 623.0000,653.0000 645.0000,668.0000 678.0000,693.0000 C 727.0000,728.0000 809.0000,752.0000 824.0000,757.0000 C 840.0000,761.0000 861.0000,759.0000 857.0000,768.0000 Z "  fill="#FFFFFF" stroke="none" />
</g>
<g transform="matrix(1.0000 0.0000 0.0000 1.0000 0.0000 0.0000)">
</g>
<g transform="matrix(0.0625 0.0000 0.0000 0.0625 0.0000 0.0000)">
<path d="M 700.0000,397.0000 C 693.0000,389.0000 623.0000,392.0000 587.0000,395.0000 C 582.0000,400.0000 579.0000,404.0000 571.0000,422.0000 C 567.0000,430.0000 566.0000,439.0000 564.0000,447.0000 C 599.0000,446.0000 668.0000,445.0000 675.0000,442.0000 C 688.0000,437.0000 697.0000,415.0000 700.0000,397.0000 "  fill="#FFFFFF" stroke="none" />
</g>
<g transform="matrix(1.0000 0.0000 0.0000 1.0000 0.0000 0.0000)">
</g>
<g transform="matrix(0.0625 0.0000 0.0000 0.0625 0.0000 0.0000)">
<path d="M 371.0000,418.0000 C 376.0000,431.0000 383.0000,447.0000 389.0000,453.0000 C 394.0000,458.0000 480.0000,450.0000 505.0000,449.0000 C 505.0000,429.0000 503.0000,415.0000 501.0000,405.0000 C 460.0000,406.0000 380.0000,417.0000 371.0000,418.0000 "  fill="#FFFFFF" stroke="none" />
</g>
<g transform="matrix(1.0000 0.0000 0.0000 1.0000 0.0000 0.0000)">
</g>
</g>
</svg>
