<?xml version="1.0"  encoding="UTF-8" standalone="no"?>
<svg version="1.1" xmlns="http://www.w3.org/2000/svg" xmlns:xlink="http://www.w3.org/1999/xlink" width="65.0000" height="68.0000">
<g transform="translate(-1.0000, -1.0000)">
<g transform="matrix(0.0625 0.0000 0.0000 0.0625 0.0000 0.0000)">
<path d="M 341.0000,122.0000 L 316.0000,131.0000 L 35.0000,397.0000 L 24.0000,422.0000 L 24.0000,787.0000 L 40.0000,825.0000 L 312.0000,1084.0000 L 340.0000,1096.0000 L 553.0000,1096.0000 C 512.0000,773.0000 493.0000,448.0000 489.0000,122.0000 L 341.0000,122.0000 L 341.0000,122.0000 Z "  fill="#1E26C7" stroke="none" />
</g>
<g transform="matrix(1.0000 0.0000 0.0000 1.0000 0.0000 0.0000)">
</g>
<g transform="matrix(0.0625 0.0000 0.0000 0.0625 0.0000 0.0000)">
<path d="M 1039.0000,397.0000 L 762.0000,133.0000 L 733.0000,122.0000 L 489.0000,122.0000 C 493.0000,448.0000 512.0000,773.0000 553.0000,1096.0000 L 733.0000,1096.0000 L 760.0000,1085.0000 L 1032.0000,826.0000 L 1048.0000,792.0000 L 1048.0000,422.0000 L 1039.0000,397.0000 Z "  fill="#1E26C7" stroke="none" />
</g>
<g transform="matrix(1.0000 0.0000 0.0000 1.0000 0.0000 0.0000)">
<path d="M 20.0000,9.0000 L 3.0000,25.0000 L 2.0000,27.0000 L 2.0000,50.0000 L 3.0000,52.0000 L 20.0000,68.0000 L 20.0000,68.0000 L 20.0000,9.0000 L 20.0000,9.0000 " fill="none" stroke="none" />
<defs><clipPath id="clip-16807"><path d="M 20.0000,9.0000 L 3.0000,25.0000 L 2.0000,27.0000 L 2.0000,50.0000 L 3.0000,52.0000 L 20.0000,68.0000 L 20.0000,68.0000 L 20.0000,9.0000 L 20.0000,9.0000 Z" /></clipPath></defs>
<path  clip-path="url(#clip-16807)" d="M 0.0000,7.0000 L 0.0000,69.0000 L 1.0000,69.0000 L 1.0000,7.0000 L 0.0000,7.0000 Z" stroke-width="1px" stroke="#01019B"  fill="#01019B" />
<path  clip-path="url(#clip-16807)" d="M 1.0000,7.0000 L 1.0000,69.0000 L 2.0000,69.0000 L 2.0000,7.0000 L 1.0000,7.0000 Z" stroke-width="1px" stroke="#2520BA"  fill="#2520BA" />
<path  clip-path="url(#clip-16807)" d="M 2.0000,7.0000 L 2.0000,69.0000 L 3.0000,69.0000 L 3.0000,7.0000 L 2.0000,7.0000 Z" stroke-width="1px" stroke="#231FB9"  fill="#231FB9" />
<path  clip-path="url(#clip-16807)" d="M 3.0000,7.0000 L 3.0000,69.0000 L 4.0000,69.0000 L 4.0000,7.0000 L 3.0000,7.0000 Z" stroke-width="1px" stroke="#211DB7"  fill="#211DB7" />
<path  clip-path="url(#clip-16807)" d="M 4.0000,7.0000 L 4.0000,69.0000 L 5.0000,69.0000 L 5.0000,7.0000 L 4.0000,7.0000 Z" stroke-width="1px" stroke="#201CB6"  fill="#201CB6" />
<path  clip-path="url(#clip-16807)" d="M 5.0000,7.0000 L 5.0000,69.0000 L 6.0000,69.0000 L 6.0000,7.0000 L 5.0000,7.0000 Z" stroke-width="1px" stroke="#1E1AB4"  fill="#1E1AB4" />
<path  clip-path="url(#clip-16807)" d="M 6.0000,7.0000 L 6.0000,69.0000 L 7.0000,69.0000 L 7.0000,7.0000 L 6.0000,7.0000 Z" stroke-width="1px" stroke="#1C18B2"  fill="#1C18B2" />
<path  clip-path="url(#clip-16807)" d="M 7.0000,7.0000 L 7.0000,69.0000 L 8.0000,69.0000 L 8.0000,7.0000 L 7.0000,7.0000 Z" stroke-width="1px" stroke="#1A17B1"  fill="#1A17B1" />
<path  clip-path="url(#clip-16807)" d="M 8.0000,7.0000 L 8.0000,69.0000 L 9.0000,69.0000 L 9.0000,7.0000 L 8.0000,7.0000 Z" stroke-width="1px" stroke="#1815AF"  fill="#1815AF" />
<path  clip-path="url(#clip-16807)" d="M 9.0000,7.0000 L 9.0000,69.0000 L 10.0000,69.0000 L 10.0000,7.0000 L 9.0000,7.0000 Z" stroke-width="1px" stroke="#1614AE"  fill="#1614AE" />
<path  clip-path="url(#clip-16807)" d="M 10.0000,7.0000 L 10.0000,69.0000 L 11.0000,69.0000 L 11.0000,7.0000 L 10.0000,7.0000 Z" stroke-width="1px" stroke="#1412AC"  fill="#1412AC" />
<path  clip-path="url(#clip-16807)" d="M 11.0000,7.0000 L 11.0000,69.0000 L 12.0000,69.0000 L 12.0000,7.0000 L 11.0000,7.0000 Z" stroke-width="1px" stroke="#1310AA"  fill="#1310AA" />
<path  clip-path="url(#clip-16807)" d="M 12.0000,7.0000 L 12.0000,69.0000 L 13.0000,69.0000 L 13.0000,7.0000 L 12.0000,7.0000 Z" stroke-width="1px" stroke="#110EA8"  fill="#110EA8" />
<path  clip-path="url(#clip-16807)" d="M 13.0000,7.0000 L 13.0000,69.0000 L 14.0000,69.0000 L 14.0000,7.0000 L 13.0000,7.0000 Z" stroke-width="1px" stroke="#0F0CA6"  fill="#0F0CA6" />
<path  clip-path="url(#clip-16807)" d="M 14.0000,7.0000 L 14.0000,69.0000 L 15.0000,69.0000 L 15.0000,7.0000 L 14.0000,7.0000 Z" stroke-width="1px" stroke="#0D0BA5"  fill="#0D0BA5" />
<path  clip-path="url(#clip-16807)" d="M 15.0000,7.0000 L 15.0000,69.0000 L 16.0000,69.0000 L 16.0000,7.0000 L 15.0000,7.0000 Z" stroke-width="1px" stroke="#0B09A3"  fill="#0B09A3" />
<path  clip-path="url(#clip-16807)" d="M 16.0000,7.0000 L 16.0000,69.0000 L 17.0000,69.0000 L 17.0000,7.0000 L 16.0000,7.0000 Z" stroke-width="1px" stroke="#0A08A2"  fill="#0A08A2" />
<path  clip-path="url(#clip-16807)" d="M 17.0000,7.0000 L 17.0000,69.0000 L 18.0000,69.0000 L 18.0000,7.0000 L 17.0000,7.0000 Z" stroke-width="1px" stroke="#0706A0"  fill="#0706A0" />
<path  clip-path="url(#clip-16807)" d="M 18.0000,7.0000 L 18.0000,69.0000 L 19.0000,69.0000 L 19.0000,7.0000 L 18.0000,7.0000 Z" stroke-width="1px" stroke="#06059F"  fill="#06059F" />
<path  clip-path="url(#clip-16807)" d="M 19.0000,7.0000 L 19.0000,69.0000 L 20.0000,69.0000 L 20.0000,7.0000 L 19.0000,7.0000 Z" stroke-width="1px" stroke="#04039D"  fill="#04039D" />
<path  clip-path="url(#clip-16807)" d="M 20.0000,7.0000 L 20.0000,69.0000 L 21.0000,69.0000 L 21.0000,7.0000 L 20.0000,7.0000 Z" stroke-width="1px" stroke="#02029C"  fill="#02029C" />
<path d="M 65.0000,25.0000 L 48.0000,9.0000 L 47.0000,9.0000 L 47.0000,68.0000 L 48.0000,68.0000 L 65.0000,52.0000 L 66.0000,50.0000 L 66.0000,27.0000 L 65.0000,25.0000 " fill="none" stroke="none" />
<defs><clipPath id="clip-282475249"><path d="M 65.0000,25.0000 L 48.0000,9.0000 L 47.0000,9.0000 L 47.0000,68.0000 L 48.0000,68.0000 L 65.0000,52.0000 L 66.0000,50.0000 L 66.0000,27.0000 L 65.0000,25.0000 Z" /></clipPath></defs>
<path  clip-path="url(#clip-282475249)" d="M 46.0000,7.0000 L 46.0000,69.0000 L 47.0000,69.0000 L 47.0000,7.0000 L 46.0000,7.0000 Z" stroke-width="1px" stroke="#000065"  fill="#000065" />
<path  clip-path="url(#clip-282475249)" d="M 47.0000,7.0000 L 47.0000,69.0000 L 48.0000,69.0000 L 48.0000,7.0000 L 47.0000,7.0000 Z" stroke-width="1px" stroke="#020267"  fill="#020267" />
<path  clip-path="url(#clip-282475249)" d="M 48.0000,7.0000 L 48.0000,69.0000 L 49.0000,69.0000 L 49.0000,7.0000 L 48.0000,7.0000 Z" stroke-width="1px" stroke="#030369"  fill="#030369" />
<path  clip-path="url(#clip-282475249)" d="M 49.0000,7.0000 L 49.0000,69.0000 L 50.0000,69.0000 L 50.0000,7.0000 L 49.0000,7.0000 Z" stroke-width="1px" stroke="#05046B"  fill="#05046B" />
<path  clip-path="url(#clip-282475249)" d="M 50.0000,7.0000 L 50.0000,69.0000 L 51.0000,69.0000 L 51.0000,7.0000 L 50.0000,7.0000 Z" stroke-width="1px" stroke="#06056D"  fill="#06056D" />
<path  clip-path="url(#clip-282475249)" d="M 51.0000,7.0000 L 51.0000,69.0000 L 52.0000,69.0000 L 52.0000,7.0000 L 51.0000,7.0000 Z" stroke-width="1px" stroke="#08076F"  fill="#08076F" />
<path  clip-path="url(#clip-282475249)" d="M 52.0000,7.0000 L 52.0000,69.0000 L 53.0000,69.0000 L 53.0000,7.0000 L 52.0000,7.0000 Z" stroke-width="1px" stroke="#090871"  fill="#090871" />
<path  clip-path="url(#clip-282475249)" d="M 53.0000,7.0000 L 53.0000,69.0000 L 54.0000,69.0000 L 54.0000,7.0000 L 53.0000,7.0000 Z" stroke-width="1px" stroke="#0B0A73"  fill="#0B0A73" />
<path  clip-path="url(#clip-282475249)" d="M 54.0000,7.0000 L 54.0000,69.0000 L 55.0000,69.0000 L 55.0000,7.0000 L 54.0000,7.0000 Z" stroke-width="1px" stroke="#0D0B75"  fill="#0D0B75" />
<path  clip-path="url(#clip-282475249)" d="M 55.0000,7.0000 L 55.0000,69.0000 L 56.0000,69.0000 L 56.0000,7.0000 L 55.0000,7.0000 Z" stroke-width="1px" stroke="#0E0C77"  fill="#0E0C77" />
<path  clip-path="url(#clip-282475249)" d="M 56.0000,7.0000 L 56.0000,69.0000 L 57.0000,69.0000 L 57.0000,7.0000 L 56.0000,7.0000 Z" stroke-width="1px" stroke="#100E79"  fill="#100E79" />
<path  clip-path="url(#clip-282475249)" d="M 57.0000,7.0000 L 57.0000,69.0000 L 58.0000,69.0000 L 58.0000,7.0000 L 57.0000,7.0000 Z" stroke-width="1px" stroke="#120F7B"  fill="#120F7B" />
<path  clip-path="url(#clip-282475249)" d="M 58.0000,7.0000 L 58.0000,69.0000 L 59.0000,69.0000 L 59.0000,7.0000 L 58.0000,7.0000 Z" stroke-width="1px" stroke="#14117D"  fill="#14117D" />
<path  clip-path="url(#clip-282475249)" d="M 59.0000,7.0000 L 59.0000,69.0000 L 60.0000,69.0000 L 60.0000,7.0000 L 59.0000,7.0000 Z" stroke-width="1px" stroke="#15127E"  fill="#15127E" />
<path  clip-path="url(#clip-282475249)" d="M 60.0000,7.0000 L 60.0000,69.0000 L 61.0000,69.0000 L 61.0000,7.0000 L 60.0000,7.0000 Z" stroke-width="1px" stroke="#171381"  fill="#171381" />
<path  clip-path="url(#clip-282475249)" d="M 61.0000,7.0000 L 61.0000,69.0000 L 62.0000,69.0000 L 62.0000,7.0000 L 61.0000,7.0000 Z" stroke-width="1px" stroke="#181482"  fill="#181482" />
<path  clip-path="url(#clip-282475249)" d="M 62.0000,7.0000 L 62.0000,69.0000 L 63.0000,69.0000 L 63.0000,7.0000 L 62.0000,7.0000 Z" stroke-width="1px" stroke="#1A1685"  fill="#1A1685" />
<path  clip-path="url(#clip-282475249)" d="M 63.0000,7.0000 L 63.0000,69.0000 L 64.0000,69.0000 L 64.0000,7.0000 L 63.0000,7.0000 Z" stroke-width="1px" stroke="#1C1887"  fill="#1C1887" />
<path  clip-path="url(#clip-282475249)" d="M 64.0000,7.0000 L 64.0000,69.0000 L 65.0000,69.0000 L 65.0000,7.0000 L 64.0000,7.0000 Z" stroke-width="1px" stroke="#1D1988"  fill="#1D1988" />
<path  clip-path="url(#clip-282475249)" d="M 65.0000,7.0000 L 65.0000,69.0000 L 66.0000,69.0000 L 66.0000,7.0000 L 65.0000,7.0000 Z" stroke-width="1px" stroke="#1F1A8B"  fill="#1F1A8B" />
<path  clip-path="url(#clip-282475249)" d="M 66.0000,7.0000 L 66.0000,69.0000 L 67.0000,69.0000 L 67.0000,7.0000 L 66.0000,7.0000 Z" stroke-width="1px" stroke="#201B8C"  fill="#201B8C" />
<defs><clipPath id="clip-1622650073"><path d="M 21.0000,8.0000 L 47.0000,8.0000 L 47.0000,69.0000 L 21.0000,69.0000 L 21.0000,8.0000 Z Z" /></clipPath></defs>
<path  clip-path="url(#clip-1622650073)" d="M 19.0000,6.0000 L 19.0000,69.0000 L 20.0000,69.0000 L 20.0000,6.0000 L 19.0000,6.0000 Z" stroke-width="1px" stroke="#181B99"  fill="#181B99" />
<path  clip-path="url(#clip-1622650073)" d="M 20.0000,6.0000 L 20.0000,69.0000 L 21.0000,69.0000 L 21.0000,6.0000 L 20.0000,6.0000 Z" stroke-width="1px" stroke="#000070"  fill="#000070" />
<path  clip-path="url(#clip-1622650073)" d="M 21.0000,6.0000 L 21.0000,69.0000 L 22.0000,69.0000 L 22.0000,6.0000 L 21.0000,6.0000 Z" stroke-width="1px" stroke="#020271"  fill="#020271" />
<path  clip-path="url(#clip-1622650073)" d="M 22.0000,6.0000 L 22.0000,69.0000 L 23.0000,69.0000 L 23.0000,6.0000 L 22.0000,6.0000 Z" stroke-width="1px" stroke="#020373"  fill="#020373" />
<path  clip-path="url(#clip-1622650073)" d="M 23.0000,6.0000 L 23.0000,69.0000 L 24.0000,69.0000 L 24.0000,6.0000 L 23.0000,6.0000 Z" stroke-width="1px" stroke="#030474"  fill="#030474" />
<path  clip-path="url(#clip-1622650073)" d="M 24.0000,6.0000 L 24.0000,69.0000 L 25.0000,69.0000 L 25.0000,6.0000 L 24.0000,6.0000 Z" stroke-width="1px" stroke="#040576"  fill="#040576" />
<path  clip-path="url(#clip-1622650073)" d="M 25.0000,6.0000 L 25.0000,69.0000 L 26.0000,69.0000 L 26.0000,6.0000 L 25.0000,6.0000 Z" stroke-width="1px" stroke="#050577"  fill="#050577" />
<path  clip-path="url(#clip-1622650073)" d="M 26.0000,6.0000 L 26.0000,69.0000 L 27.0000,69.0000 L 27.0000,6.0000 L 26.0000,6.0000 Z" stroke-width="1px" stroke="#060679"  fill="#060679" />
<path  clip-path="url(#clip-1622650073)" d="M 27.0000,6.0000 L 27.0000,69.0000 L 28.0000,69.0000 L 28.0000,6.0000 L 27.0000,6.0000 Z" stroke-width="1px" stroke="#07087B"  fill="#07087B" />
<path  clip-path="url(#clip-1622650073)" d="M 28.0000,6.0000 L 28.0000,69.0000 L 29.0000,69.0000 L 29.0000,6.0000 L 28.0000,6.0000 Z" stroke-width="1px" stroke="#08097C"  fill="#08097C" />
<path  clip-path="url(#clip-1622650073)" d="M 29.0000,6.0000 L 29.0000,69.0000 L 30.0000,69.0000 L 30.0000,6.0000 L 29.0000,6.0000 Z" stroke-width="1px" stroke="#080A7D"  fill="#080A7D" />
<path  clip-path="url(#clip-1622650073)" d="M 30.0000,6.0000 L 30.0000,69.0000 L 31.0000,69.0000 L 31.0000,6.0000 L 30.0000,6.0000 Z" stroke-width="1px" stroke="#090B7F"  fill="#090B7F" />
<path  clip-path="url(#clip-1622650073)" d="M 31.0000,6.0000 L 31.0000,69.0000 L 32.0000,69.0000 L 32.0000,6.0000 L 31.0000,6.0000 Z" stroke-width="1px" stroke="#0A0C81"  fill="#0A0C81" />
<path  clip-path="url(#clip-1622650073)" d="M 32.0000,6.0000 L 32.0000,69.0000 L 33.0000,69.0000 L 33.0000,6.0000 L 32.0000,6.0000 Z" stroke-width="1px" stroke="#0B0C82"  fill="#0B0C82" />
<path  clip-path="url(#clip-1622650073)" d="M 33.0000,6.0000 L 33.0000,69.0000 L 34.0000,69.0000 L 34.0000,6.0000 L 33.0000,6.0000 Z" stroke-width="1px" stroke="#0C0D84"  fill="#0C0D84" />
<path  clip-path="url(#clip-1622650073)" d="M 34.0000,6.0000 L 34.0000,69.0000 L 35.0000,69.0000 L 35.0000,6.0000 L 34.0000,6.0000 Z" stroke-width="1px" stroke="#0D0F86"  fill="#0D0F86" />
<path  clip-path="url(#clip-1622650073)" d="M 35.0000,6.0000 L 35.0000,69.0000 L 36.0000,69.0000 L 36.0000,6.0000 L 35.0000,6.0000 Z" stroke-width="1px" stroke="#0E1087"  fill="#0E1087" />
<path  clip-path="url(#clip-1622650073)" d="M 36.0000,6.0000 L 36.0000,69.0000 L 37.0000,69.0000 L 37.0000,6.0000 L 36.0000,6.0000 Z" stroke-width="1px" stroke="#0F1188"  fill="#0F1188" />
<path  clip-path="url(#clip-1622650073)" d="M 37.0000,6.0000 L 37.0000,69.0000 L 38.0000,69.0000 L 38.0000,6.0000 L 37.0000,6.0000 Z" stroke-width="1px" stroke="#10128A"  fill="#10128A" />
<path  clip-path="url(#clip-1622650073)" d="M 38.0000,6.0000 L 38.0000,69.0000 L 39.0000,69.0000 L 39.0000,6.0000 L 38.0000,6.0000 Z" stroke-width="1px" stroke="#11138C"  fill="#11138C" />
<path  clip-path="url(#clip-1622650073)" d="M 39.0000,6.0000 L 39.0000,69.0000 L 40.0000,69.0000 L 40.0000,6.0000 L 39.0000,6.0000 Z" stroke-width="1px" stroke="#11138D"  fill="#11138D" />
<path  clip-path="url(#clip-1622650073)" d="M 40.0000,6.0000 L 40.0000,69.0000 L 41.0000,69.0000 L 41.0000,6.0000 L 40.0000,6.0000 Z" stroke-width="1px" stroke="#13158F"  fill="#13158F" />
<path  clip-path="url(#clip-1622650073)" d="M 41.0000,6.0000 L 41.0000,69.0000 L 42.0000,69.0000 L 42.0000,6.0000 L 41.0000,6.0000 Z" stroke-width="1px" stroke="#131690"  fill="#131690" />
<path  clip-path="url(#clip-1622650073)" d="M 42.0000,6.0000 L 42.0000,69.0000 L 43.0000,69.0000 L 43.0000,6.0000 L 42.0000,6.0000 Z" stroke-width="1px" stroke="#141792"  fill="#141792" />
<path  clip-path="url(#clip-1622650073)" d="M 43.0000,6.0000 L 43.0000,69.0000 L 44.0000,69.0000 L 44.0000,6.0000 L 43.0000,6.0000 Z" stroke-width="1px" stroke="#151893"  fill="#151893" />
<path  clip-path="url(#clip-1622650073)" d="M 44.0000,6.0000 L 44.0000,69.0000 L 45.0000,69.0000 L 45.0000,6.0000 L 44.0000,6.0000 Z" stroke-width="1px" stroke="#161995"  fill="#161995" />
<path  clip-path="url(#clip-1622650073)" d="M 45.0000,6.0000 L 45.0000,69.0000 L 46.0000,69.0000 L 46.0000,6.0000 L 45.0000,6.0000 Z" stroke-width="1px" stroke="#171A96"  fill="#171A96" />
<path  clip-path="url(#clip-1622650073)" d="M 46.0000,6.0000 L 46.0000,69.0000 L 47.0000,69.0000 L 47.0000,6.0000 L 46.0000,6.0000 Z" stroke-width="1px" stroke="#171A98"  fill="#171A98" />
</g>
<g transform="matrix(0.0625 0.0000 0.0000 0.0625 0.0000 0.0000)">
<path d="M 731.0000,100.0000 L 970.0000,328.0000 L 978.0000,349.0000 L 978.0000,668.0000 L 964.0000,697.0000 L 729.0000,921.0000 L 706.0000,930.0000 L 367.0000,930.0000 L 343.0000,920.0000 L 108.0000,697.0000 L 95.0000,664.0000 L 95.0000,350.0000 L 104.0000,328.0000 L 347.0000,98.0000 L 368.0000,90.0000 L 706.0000,90.0000 L 731.0000,100.0000 Z" stroke-width="1px" stroke="#FFFFFF"  fill="#FFFFFF" />
</g>
<g transform="matrix(1.0000 0.0000 0.0000 1.0000 0.0000 0.0000)">
</g>
<g transform="matrix(0.0625 0.0000 0.0000 0.0625 0.0000 0.0000)">
<path d="M 359.0000,884.0000 L 727.0000,884.0000 L 1048.0000,672.0000 L 1048.0000,694.0000 L 1032.0000,728.0000 L 760.0000,988.0000 L 733.0000,998.0000 L 340.0000,998.0000 L 312.0000,987.0000 L 40.0000,728.0000 L 24.0000,689.0000 L 24.0000,667.0000 L 359.0000,884.0000 Z" stroke-width="1px" stroke="#0000AC"  fill="#0000AC" />
</g>
<g transform="matrix(1.0000 0.0000 0.0000 1.0000 0.0000 0.0000)">
</g>
<g transform="matrix(0.0625 0.0000 0.0000 0.0625 0.0000 0.0000)">
<path d="M 484.0000,283.0000 C 556.0000,275.0000 664.0000,267.0000 703.0000,292.0000 C 715.0000,299.0000 733.0000,298.0000 736.0000,305.0000 C 740.0000,290.0000 735.0000,278.0000 714.0000,265.0000 C 676.0000,240.0000 544.0000,234.0000 473.0000,243.0000 C 401.0000,251.0000 357.0000,267.0000 336.0000,306.0000 C 328.0000,319.0000 326.0000,333.0000 327.0000,346.0000 C 328.0000,338.0000 360.0000,351.0000 364.0000,343.0000 C 386.0000,304.0000 413.0000,291.0000 484.0000,283.0000 "  fill="#000000" stroke="none" />
</g>
<g transform="matrix(1.0000 0.0000 0.0000 1.0000 0.0000 0.0000)">
</g>
<g transform="matrix(0.0625 0.0000 0.0000 0.0625 0.0000 0.0000)">
<path d="M 657.0000,403.0000 C 626.0000,399.0000 591.0000,398.0000 571.0000,399.0000 C 527.0000,402.0000 489.0000,388.0000 475.0000,371.0000 C 472.0000,368.0000 466.0000,360.0000 465.0000,344.0000 C 461.0000,354.0000 449.0000,388.0000 456.0000,397.0000 C 470.0000,413.0000 529.0000,437.0000 573.0000,435.0000 C 593.0000,433.0000 634.0000,430.0000 657.0000,421.0000 L 657.0000,403.0000 Z "  fill="#000000" stroke="none" />
</g>
<g transform="matrix(1.0000 0.0000 0.0000 1.0000 0.0000 0.0000)">
</g>
<g transform="matrix(0.0625 0.0000 0.0000 0.0625 0.0000 0.0000)">
<path d="M 766.0000,492.0000 C 736.0000,511.0000 670.0000,509.0000 642.0000,507.0000 C 637.0000,514.0000 634.0000,520.0000 632.0000,525.0000 C 629.0000,532.0000 629.0000,550.0000 631.0000,556.0000 C 631.0000,555.0000 640.0000,546.0000 641.0000,545.0000 C 643.0000,540.0000 650.0000,544.0000 655.0000,537.0000 C 683.0000,539.0000 773.0000,540.0000 802.0000,521.0000 C 824.0000,507.0000 826.0000,467.0000 799.0000,457.0000 C 795.0000,471.0000 782.0000,482.0000 766.0000,492.0000 "  fill="#000000" stroke="none" />
</g>
<g transform="matrix(1.0000 0.0000 0.0000 1.0000 0.0000 0.0000)">
</g>
<g transform="matrix(0.0625 0.0000 0.0000 0.0625 0.0000 0.0000)">
<path d="M 522.0000,567.0000 C 521.0000,573.0000 510.0000,581.0000 512.0000,585.0000 C 526.0000,612.0000 577.0000,639.0000 634.0000,636.0000 C 673.0000,634.0000 732.0000,586.0000 676.0000,593.0000 C 675.0000,593.0000 674.0000,593.0000 674.0000,593.0000 C 663.0000,597.0000 646.0000,601.0000 629.0000,602.0000 C 572.0000,605.0000 536.0000,593.0000 522.0000,567.0000 "  fill="#000000" stroke="none" />
</g>
<g transform="matrix(1.0000 0.0000 0.0000 1.0000 0.0000 0.0000)">
</g>
<g transform="matrix(0.0625 0.0000 0.0000 0.0625 0.0000 0.0000)">
<path d="M 678.0000,813.0000 C 667.0000,843.0000 680.0000,854.0000 656.0000,846.0000 C 621.0000,834.0000 594.0000,816.0000 587.0000,801.0000 C 586.0000,804.0000 574.0000,811.0000 574.0000,813.0000 C 574.0000,830.0000 613.0000,866.0000 654.0000,880.0000 C 678.0000,888.0000 693.0000,865.0000 704.0000,835.0000 C 715.0000,804.0000 788.0000,749.0000 810.0000,728.0000 C 831.0000,707.0000 810.0000,670.0000 803.0000,655.0000 C 798.0000,669.0000 783.0000,686.0000 769.0000,701.0000 C 747.0000,722.0000 689.0000,783.0000 678.0000,813.0000 "  fill="#000000" stroke="none" />
</g>
<g transform="matrix(1.0000 0.0000 0.0000 1.0000 0.0000 0.0000)">
</g>
<g transform="matrix(0.0625 0.0000 0.0000 0.0625 0.0000 0.0000)">
<path d="M 523.0000,538.0000 C 369.0000,509.0000 291.0000,449.0000 259.0000,414.0000 C 242.0000,395.0000 252.0000,335.0000 255.0000,297.0000 C 255.0000,341.0000 277.0000,366.0000 292.0000,382.0000 C 325.0000,418.0000 388.0000,478.0000 549.0000,506.0000 L 549.0000,524.0000 L 523.0000,538.0000 Z "  fill="#000000" stroke="none" />
</g>
<g transform="matrix(1.0000 0.0000 0.0000 1.0000 0.0000 0.0000)">
</g>
<g transform="matrix(0.0625 0.0000 0.0000 0.0625 0.0000 0.0000)">
<path d="M 632.0000,742.0000 C 629.0000,741.0000 630.0000,739.0000 625.0000,739.0000 C 603.0000,739.0000 548.0000,762.0000 479.0000,770.0000 C 411.0000,778.0000 325.0000,768.0000 289.0000,765.0000 C 253.0000,763.0000 230.0000,716.0000 222.0000,683.0000 C 220.0000,677.0000 232.0000,672.0000 234.0000,667.0000 C 234.0000,667.0000 234.0000,667.0000 234.0000,668.0000 C 242.0000,701.0000 275.0000,731.0000 311.0000,733.0000 C 346.0000,736.0000 420.0000,742.0000 489.0000,733.0000 C 558.0000,725.0000 604.0000,712.0000 626.0000,712.0000 C 638.0000,712.0000 645.0000,713.0000 644.0000,719.0000 L 644.0000,737.0000 L 632.0000,742.0000 Z "  fill="#000000" stroke="none" />
</g>
<g transform="matrix(1.0000 0.0000 0.0000 1.0000 0.0000 0.0000)">
</g>
<g transform="matrix(0.0625 0.0000 0.0000 0.0625 0.0000 0.0000)">
<path d="M 368.0000,681.0000 L 355.0000,683.0000 L 355.0000,668.0000 C 354.0000,660.0000 359.0000,654.0000 368.0000,646.0000 C 381.0000,636.0000 400.0000,624.0000 418.0000,614.0000 C 442.0000,610.0000 459.0000,607.0000 459.0000,607.0000 C 459.0000,607.0000 419.0000,640.0000 392.0000,662.0000 C 387.0000,666.0000 379.0000,671.0000 376.0000,674.0000 L 368.0000,681.0000 Z "  fill="#000000" stroke="none" />
</g>
<g transform="matrix(1.0000 0.0000 0.0000 1.0000 0.0000 0.0000)">
</g>
<g transform="matrix(0.0625 0.0000 0.0000 0.0625 0.0000 0.0000)">
<path d="M 610.0000,351.0000 C 621.0000,357.0000 634.0000,348.0000 661.0000,351.0000 C 661.0000,328.0000 659.0000,306.0000 637.0000,298.0000 C 632.0000,301.0000 627.0000,304.0000 621.0000,307.0000 C 613.0000,312.0000 605.0000,317.0000 599.0000,323.0000 C 595.0000,326.0000 594.0000,328.0000 594.0000,331.0000 L 594.0000,346.0000 L 610.0000,351.0000 Z "  fill="#000000" stroke="none" />
</g>
<g transform="matrix(1.0000 0.0000 0.0000 1.0000 0.0000 0.0000)">
</g>
<g transform="matrix(0.0625 0.0000 0.0000 0.0625 0.0000 0.0000)">
<path d="M 669.0000,470.0000 C 687.0000,445.0000 697.0000,434.0000 713.0000,413.0000 C 726.0000,417.0000 734.0000,421.0000 739.0000,426.0000 C 749.0000,439.0000 753.0000,455.0000 749.0000,465.0000 C 747.0000,459.0000 741.0000,462.0000 736.0000,455.0000 C 732.0000,450.0000 726.0000,449.0000 714.0000,446.0000 C 701.0000,462.0000 684.0000,469.0000 669.0000,489.0000 L 669.0000,470.0000 Z "  fill="#000000" stroke="none" />
</g>
<g transform="matrix(1.0000 0.0000 0.0000 1.0000 0.0000 0.0000)">
</g>
<g transform="matrix(0.0625 0.0000 0.0000 0.0625 0.0000 0.0000)">
<path d="M 33.0000,708.0000 L 311.0000,972.0000 L 340.0000,984.0000 L 732.0000,984.0000 L 757.0000,975.0000 L 1038.0000,708.0000 L 1048.0000,683.0000 L 1048.0000,333.0000 L 1033.0000,295.0000 L 760.0000,36.0000 L 733.0000,24.0000 L 340.0000,24.0000 L 313.0000,35.0000 L 40.0000,295.0000 L 24.0000,329.0000 L 24.0000,683.0000 L 33.0000,708.0000 Z M 259.0000,294.0000 C 272.0000,251.0000 325.0000,201.0000 399.0000,188.0000 C 473.0000,174.0000 637.0000,166.0000 708.0000,179.0000 C 780.0000,193.0000 804.0000,223.0000 815.0000,275.0000 C 825.0000,319.0000 772.0000,369.0000 740.0000,401.0000 C 759.0000,408.0000 776.0000,419.0000 788.0000,437.0000 C 813.0000,473.0000 794.0000,493.0000 766.0000,511.0000 C 736.0000,530.0000 670.0000,528.0000 642.0000,526.0000 C 637.0000,533.0000 634.0000,539.0000 632.0000,544.0000 C 621.0000,569.0000 645.0000,591.0000 676.0000,596.0000 C 706.0000,602.0000 667.0000,619.0000 629.0000,621.0000 C 571.0000,623.0000 535.0000,612.0000 522.0000,585.0000 C 514.0000,569.0000 549.0000,525.0000 549.0000,525.0000 C 388.0000,497.0000 325.0000,437.0000 292.0000,401.0000 C 272.0000,380.0000 245.0000,338.0000 259.0000,294.0000 Z M 316.0000,635.0000 C 374.0000,624.0000 459.0000,610.0000 459.0000,610.0000 C 459.0000,610.0000 396.0000,643.0000 368.0000,665.0000 C 341.0000,687.0000 357.0000,695.0000 399.0000,709.0000 C 440.0000,722.0000 519.0000,717.0000 582.0000,706.0000 C 645.0000,695.0000 708.0000,654.0000 744.0000,640.0000 C 780.0000,626.0000 791.0000,643.0000 802.0000,656.0000 C 813.0000,670.0000 791.0000,698.0000 769.0000,720.0000 C 747.0000,741.0000 689.0000,802.0000 678.0000,832.0000 C 667.0000,862.0000 680.0000,873.0000 656.0000,865.0000 C 615.0000,851.0000 585.0000,829.0000 585.0000,813.0000 C 585.0000,796.0000 607.0000,780.0000 629.0000,758.0000 C 651.0000,736.0000 648.0000,730.0000 626.0000,730.0000 C 604.0000,730.0000 558.0000,744.0000 489.0000,752.0000 C 420.0000,761.0000 346.0000,755.0000 311.0000,752.0000 C 275.0000,750.0000 242.0000,719.0000 234.0000,687.0000 C 226.0000,654.0000 259.0000,645.0000 316.0000,635.0000 Z "  fill="#0000FF" stroke="none" />
</g>
<g transform="matrix(1.0000 0.0000 0.0000 1.0000 0.0000 0.0000)">
</g>
<g transform="matrix(0.0625 0.0000 0.0000 0.0625 0.0000 0.0000)">
<path d="M 713.0000,432.0000 C 700.0000,448.0000 683.0000,469.0000 668.0000,489.0000 C 690.0000,489.0000 714.0000,486.0000 728.0000,481.0000 C 740.0000,477.0000 746.0000,471.0000 749.0000,465.0000 C 747.0000,458.0000 744.0000,452.0000 739.0000,445.0000 C 735.0000,440.0000 726.0000,436.0000 713.0000,432.0000 "  fill="#0000FF" stroke="none" />
</g>
<g transform="matrix(1.0000 0.0000 0.0000 1.0000 0.0000 0.0000)">
</g>
<g transform="matrix(0.0625 0.0000 0.0000 0.0625 0.0000 0.0000)">
<path d="M 366.0000,410.0000 C 396.0000,432.0000 456.0000,481.0000 596.0000,484.0000 C 596.0000,484.0000 626.0000,456.0000 657.0000,421.0000 C 625.0000,418.0000 592.0000,417.0000 571.0000,418.0000 C 527.0000,421.0000 489.0000,407.0000 475.0000,390.0000 C 468.0000,382.0000 465.0000,372.0000 465.0000,362.0000 C 466.0000,348.0000 469.0000,332.0000 503.0000,320.0000 C 547.0000,303.0000 648.0000,311.0000 648.0000,311.0000 C 648.0000,311.0000 635.0000,317.0000 621.0000,326.0000 C 613.0000,331.0000 605.0000,336.0000 599.0000,342.0000 C 592.0000,348.0000 593.0000,352.0000 600.0000,356.0000 C 612.0000,364.0000 641.0000,368.0000 673.0000,372.0000 C 680.0000,373.0000 688.0000,374.0000 695.0000,375.0000 C 699.0000,369.0000 702.0000,363.0000 706.0000,358.0000 C 721.0000,333.0000 732.0000,317.0000 736.0000,304.0000 C 733.0000,298.0000 726.0000,291.0000 714.0000,284.0000 C 676.0000,259.0000 544.0000,253.0000 473.0000,262.0000 C 401.0000,270.0000 357.0000,286.0000 335.0000,325.0000 C 331.0000,333.0000 328.0000,341.0000 327.0000,349.0000 C 330.0000,374.0000 346.0000,396.0000 366.0000,410.0000 "  fill="#0000FF" stroke="none" />
</g>
<g transform="matrix(1.0000 0.0000 0.0000 1.0000 0.0000 0.0000)">
</g>
</g>
</svg>
